<svg width="848" height="848" viewBox="0 0 848 848" fill="none" xmlns="http://www.w3.org/2000/svg">
<path d="M424 212C397.794 212 372.177 219.771 350.387 234.33C328.597 248.89 311.615 269.583 301.586 293.794C291.557 318.006 288.933 344.647 294.046 370.349C299.159 396.052 311.778 419.661 330.308 438.192C348.839 456.722 372.448 469.341 398.151 474.454C423.853 479.567 450.494 476.943 474.706 466.914C498.917 456.885 519.611 439.903 534.17 418.113C548.729 396.324 556.5 370.706 556.5 344.5C556.5 309.359 542.54 275.657 517.692 250.808C492.843 225.96 459.141 212 424 212ZM424 424C408.276 424 392.906 419.337 379.832 410.602C366.759 401.866 356.569 389.45 350.552 374.923C344.534 360.397 342.96 344.412 346.028 328.99C349.095 313.569 356.667 299.403 367.785 288.285C378.903 277.167 393.069 269.595 408.49 266.528C423.912 263.46 439.897 265.034 454.423 271.052C468.95 277.069 481.366 287.258 490.102 300.332C498.837 313.406 503.5 328.776 503.5 344.5C503.479 365.578 495.096 385.787 480.192 400.692C465.287 415.596 445.078 423.979 424 424Z" fill="white"/>
<path d="M424 53C350.623 53 278.894 74.7588 217.884 115.525C156.873 156.291 109.321 214.233 81.2409 282.024C53.1607 349.816 45.8137 424.412 60.1288 496.378C74.4439 568.345 109.778 634.451 161.664 686.337C213.549 738.222 279.655 773.556 351.622 787.871C423.589 802.186 498.184 794.839 565.976 766.759C633.767 738.679 691.709 691.127 732.475 630.117C773.241 569.106 795 497.377 795 424C794.888 325.639 755.764 231.339 686.213 161.787C616.661 92.2356 522.361 53.1122 424 53ZM265 698.99V662.5C265.021 641.422 273.404 621.213 288.308 606.308C303.213 591.404 323.422 583.021 344.5 583H503.5C524.578 583.021 544.787 591.404 559.692 606.308C574.596 621.213 582.979 641.422 583 662.5V698.99C534.747 727.163 479.875 742.009 424 742.009C368.125 742.009 313.253 727.163 265 698.99ZM635.815 660.539C635.3 625.771 621.139 592.598 596.386 568.177C571.633 543.757 538.272 530.045 503.5 530H344.5C309.733 530.052 276.379 543.767 251.632 568.187C226.884 592.607 212.727 625.775 212.212 660.539C164.156 617.629 130.267 561.134 115.032 498.536C99.7975 435.937 103.936 370.188 126.899 309.993C149.862 249.799 190.567 197.999 243.624 161.453C296.682 124.907 359.588 105.338 424.013 105.338C488.439 105.338 551.345 124.907 604.402 161.453C657.459 197.999 698.164 249.799 721.128 309.993C744.091 370.188 748.229 435.937 732.995 498.536C717.76 561.134 683.871 617.629 635.815 660.539Z" fill="white"/>
</svg>
