<svg width="25" height="25" viewBox="0 0 25 25" fill="none" xmlns="http://www.w3.org/2000/svg">
<g clip-path="url(#clip0_557_34)">
<path d="M24.5 12.7339C24.5 6.10651 19.1274 0.733887 12.5 0.733887C5.87262 0.733887 0.5 6.10651 0.5 12.7339C0.5 18.7234 4.88825 23.6879 10.625 24.5881V16.2026H7.57812V12.7339H10.625V10.0901C10.625 7.08264 12.4166 5.42139 15.1576 5.42139C16.4705 5.42139 17.8438 5.65576 17.8438 5.65576V8.60889H16.3306C14.8399 8.60889 14.375 9.53392 14.375 10.4829V12.7339H17.7031L17.1711 16.2026H14.375V24.5881C20.1117 23.6879 24.5 18.7235 24.5 12.7339Z" fill="#1877F2"/>
<path d="M17.1711 16.2026L17.7031 12.7339H14.375V10.4829C14.375 9.53382 14.8399 8.60889 16.3306 8.60889H17.8438V5.65576C17.8438 5.65576 16.4705 5.42139 15.1575 5.42139C12.4166 5.42139 10.625 7.08264 10.625 10.0901V12.7339H7.57812V16.2026H10.625V24.5881C11.2453 24.6853 11.8722 24.7341 12.5 24.7339C13.1278 24.7341 13.7547 24.6853 14.375 24.5881V16.2026H17.1711Z" fill="white"/>
</g>
<defs>
<clipPath id="clip0_557_34">
<rect width="24" height="24" fill="white" transform="translate(0.5 0.733887)"/>
</clipPath>
</defs>
</svg>
