<svg width="72" height="35" viewBox="0 0 72 35" fill="none" xmlns="http://www.w3.org/2000/svg">
<path d="M17.6738 35.3125C14.528 35.3125 11.6443 34.6006 9.02274 33.1769C6.46676 31.6885 4.43507 29.6177 2.92769 26.9644C1.42031 24.3111 0.666626 21.1725 0.666626 17.5485C0.666626 13.9246 1.42031 10.7859 2.92769 8.13266C4.43507 5.41468 6.46676 3.34383 9.02274 1.92013C11.6443 0.43171 14.528 -0.3125 17.6738 -0.3125C19.9676 -0.3125 22.0648 0.0434266 23.9655 0.75528C25.8661 1.46713 27.7667 2.66434 29.6673 4.3469C31.6334 6.02946 33.7634 8.35916 36.0572 11.336C38.3511 8.35916 40.4483 6.02946 42.3489 4.3469C44.2495 2.66434 46.1501 1.46713 48.0507 0.75528C50.0169 0.0434266 52.1469 -0.3125 54.4407 -0.3125C57.6521 -0.3125 60.5358 0.43171 63.0918 1.92013C65.6477 3.34383 67.6794 5.41468 69.1868 8.13266C70.6942 10.7859 71.4479 13.9246 71.4479 17.5485C71.4479 21.1725 70.6942 24.3111 69.1868 26.9644C67.6794 29.6177 65.6477 31.6885 63.0918 33.1769C60.5358 34.6006 57.6521 35.3125 54.4407 35.3125C51.0327 35.3125 47.9524 34.4712 45.1998 32.7887C42.4472 31.0414 39.3997 27.9675 36.0572 23.5669C32.7148 27.9675 29.6673 31.0414 26.9147 32.7887C24.2276 34.4712 21.1473 35.3125 17.6738 35.3125ZM17.6738 28.6146C19.5744 28.6146 21.3439 28.0969 22.9824 27.0615C24.6208 25.9613 26.161 24.57 27.6028 22.8874C29.1102 21.1402 30.4865 19.3605 31.7317 17.5485C30.6176 15.8013 29.3396 14.054 27.8977 12.3067C26.5214 10.5594 24.9813 9.10337 23.2773 7.93852C21.6388 6.77367 19.771 6.19125 17.6738 6.19125C14.528 6.19125 12.0703 7.22667 10.3007 9.29751C8.59675 11.3036 7.74475 14.054 7.74475 17.5485C7.74475 20.9784 8.72782 23.6964 10.694 25.7025C12.6601 27.6439 14.9867 28.6146 17.6738 28.6146ZM54.4407 28.6146C57.1278 28.6146 59.4544 27.6439 61.4205 25.7025C63.3867 23.6964 64.3697 20.9784 64.3697 17.5485C64.3697 14.054 63.485 11.3036 61.7154 9.29751C60.0115 7.22667 57.5865 6.19125 54.4407 6.19125C52.3435 6.19125 50.4429 6.77367 48.7389 7.93852C47.1004 9.10337 45.5931 10.5594 44.2167 12.3067C42.8404 14.054 41.5625 15.8013 40.3828 17.5485C41.6935 19.4252 43.0698 21.2049 44.5117 22.8874C45.9535 24.57 47.4937 25.9613 49.1321 27.0615C50.7706 28.0969 52.5401 28.6146 54.4407 28.6146Z" fill="#444444"/>
</svg>
