<svg width="34" height="28" viewBox="0 0 34 28" fill="none" xmlns="http://www.w3.org/2000/svg">
<path d="M34 13C34 20.1812 26.3903 26 17.001 26C14.5375 26 12.2001 25.6 10.0885 24.8813C9.29831 25.425 8.0101 26.1688 6.48284 26.7938C4.88919 27.4438 2.97016 28 1.06441 28C0.632792 28 0.247658 27.7563 0.0816521 27.3813C-0.084354 27.0063 0.0086094 26.5813 0.30742 26.2938L0.327341 26.275C0.347262 26.2563 0.373823 26.2313 0.413664 26.1875C0.486707 26.1125 0.599591 25.9937 0.739036 25.8312C1.01129 25.5187 1.3765 25.0563 1.74835 24.4813C2.41238 23.4438 3.0432 22.0812 3.16936 20.55C1.17729 18.425 0.00196917 15.8188 0.00196917 13C0.00196917 5.81875 7.61169 0 17.001 0C26.3903 0 34 5.81875 34 13Z" fill="#FFD43B"/>
</svg>
