<svg width="25" height="25" viewBox="0 0 25 25" fill="none" xmlns="http://www.w3.org/2000/svg">
<g clip-path="url(#clip0_557_1036)">
<path d="M18.875 0.733887H6.125C3.0184 0.733887 0.5 3.25229 0.5 6.35889V19.1089C0.5 22.2155 3.0184 24.7339 6.125 24.7339H18.875C21.9816 24.7339 24.5 22.2155 24.5 19.1089V6.35889C24.5 3.25229 21.9816 0.733887 18.875 0.733887Z" fill="url(#paint0_radial_557_1036)"/>
<path d="M18.875 0.733887H6.125C3.0184 0.733887 0.5 3.25229 0.5 6.35889V19.1089C0.5 22.2155 3.0184 24.7339 6.125 24.7339H18.875C21.9816 24.7339 24.5 22.2155 24.5 19.1089V6.35889C24.5 3.25229 21.9816 0.733887 18.875 0.733887Z" fill="url(#paint1_radial_557_1036)"/>
<path d="M12.5008 3.35889C9.95478 3.35889 9.63519 3.37004 8.63525 3.41551C7.63719 3.46126 6.95591 3.61923 6.35984 3.85107C5.74316 4.09051 5.22013 4.41086 4.69906 4.93211C4.17753 5.45326 3.85719 5.97629 3.617 6.5927C3.3845 7.18895 3.22634 7.87051 3.18144 8.86811C3.13672 9.86814 3.125 10.1878 3.125 12.734C3.125 15.2801 3.13625 15.5987 3.18163 16.5986C3.22756 17.5967 3.38553 18.278 3.61719 18.874C3.85681 19.4907 4.17716 20.0138 4.69841 20.5348C5.21938 21.0564 5.74241 21.3774 6.35862 21.6169C6.95516 21.8487 7.63653 22.0067 8.63441 22.0524C9.63444 22.0979 9.95375 22.1091 12.4997 22.1091C15.0461 22.1091 15.3646 22.0979 16.3646 22.0524C17.3626 22.0067 18.0447 21.8487 18.6412 21.6169C19.2576 21.3774 19.7799 21.0564 20.3007 20.5348C20.8223 20.0138 21.1425 19.4907 21.3828 18.8743C21.6133 18.278 21.7715 17.5965 21.8184 16.5988C21.8633 15.5989 21.875 15.2801 21.875 12.734C21.875 10.1878 21.8633 9.86832 21.8184 8.86829C21.7715 7.87023 21.6133 7.18904 21.3828 6.59298C21.1425 5.97629 20.8223 5.45326 20.3007 4.93211C19.7793 4.41067 19.2578 4.09032 18.6406 3.85117C18.043 3.61923 17.3613 3.46117 16.3632 3.41551C15.3632 3.37004 15.0448 3.35889 12.4979 3.35889H12.5008ZM11.6598 5.04836C11.9095 5.04798 12.188 5.04836 12.5008 5.04836C15.0041 5.04836 15.3007 5.05736 16.2892 5.10226C17.2032 5.14407 17.6994 5.29679 18.0298 5.42514C18.4674 5.59501 18.7793 5.79817 19.1072 6.12639C19.4353 6.45451 19.6384 6.76698 19.8088 7.20451C19.9371 7.53451 20.09 8.03064 20.1316 8.9447C20.1765 9.93301 20.1863 10.2298 20.1863 12.7318C20.1863 15.2338 20.1765 15.5307 20.1316 16.5189C20.0898 17.433 19.9371 17.9291 19.8088 18.2592C19.6389 18.6968 19.4353 19.0083 19.1072 19.3362C18.7791 19.6644 18.4676 19.8674 18.0298 20.0374C17.6997 20.1663 17.2032 20.3186 16.2892 20.3605C15.3009 20.4054 15.0041 20.4151 12.5008 20.4151C9.99753 20.4151 9.70081 20.4054 8.71259 20.3605C7.79853 20.3183 7.30241 20.1655 6.97166 20.0372C6.53422 19.8672 6.22166 19.6642 5.89353 19.336C5.56541 19.0079 5.36234 18.6962 5.192 18.2585C5.06366 17.9284 4.91075 17.4323 4.86913 16.5182C4.82422 15.5299 4.81522 15.2331 4.81522 12.7295C4.81522 10.226 4.82422 9.93067 4.86913 8.94236C4.91094 8.02829 5.06366 7.53217 5.192 7.2017C5.36197 6.76417 5.56541 6.4517 5.89363 6.12357C6.22175 5.79545 6.53422 5.59229 6.97175 5.42204C7.30222 5.29314 7.79853 5.14079 8.71259 5.09879C9.57744 5.0597 9.91259 5.04798 11.6598 5.04601V5.04836ZM17.5052 6.60498C16.8841 6.60498 16.3802 7.10842 16.3802 7.72961C16.3802 8.3507 16.8841 8.85461 17.5052 8.85461C18.1263 8.85461 18.6302 8.3507 18.6302 7.72961C18.6302 7.10851 18.1263 6.60461 17.5052 6.60461V6.60498ZM12.5008 7.91945C9.84209 7.91945 7.68641 10.0751 7.68641 12.734C7.68641 15.3928 9.84209 17.5475 12.5008 17.5475C15.1597 17.5475 17.3146 15.3928 17.3146 12.734C17.3146 10.0752 15.1595 7.91945 12.5007 7.91945H12.5008ZM12.5008 9.60892C14.2267 9.60892 15.6259 11.0079 15.6259 12.734C15.6259 14.4598 14.2267 15.859 12.5008 15.859C10.7749 15.859 9.37588 14.4598 9.37588 12.734C9.37588 11.0079 10.7749 9.60892 12.5008 9.60892Z" fill="white"/>
</g>
<defs>
<radialGradient id="paint0_radial_557_1036" cx="0" cy="0" r="1" gradientUnits="userSpaceOnUse" gradientTransform="translate(6.875 26.5824) rotate(-90) scale(23.7858 22.1227)">
<stop stop-color="#FFDD55"/>
<stop offset="0.1" stop-color="#FFDD55"/>
<stop offset="0.5" stop-color="#FF543E"/>
<stop offset="1" stop-color="#C837AB"/>
</radialGradient>
<radialGradient id="paint1_radial_557_1036" cx="0" cy="0" r="1" gradientUnits="userSpaceOnUse" gradientTransform="translate(-3.52009 2.46273) rotate(78.681) scale(10.6324 43.827)">
<stop stop-color="#3771C8"/>
<stop offset="0.128" stop-color="#3771C8"/>
<stop offset="1" stop-color="#6600FF" stop-opacity="0"/>
</radialGradient>
<clipPath id="clip0_557_1036">
<rect width="24" height="24" fill="white" transform="translate(0.5 0.733887)"/>
</clipPath>
</defs>
</svg>
