<svg width="38" height="38" viewBox="0 0 38 38" fill="none" xmlns="http://www.w3.org/2000/svg">
<g clip-path="url(#clip0_406_692)">
<path d="M18.2316 0.0190424C33.0573 -0.633893 42.9392 15.6361 35.4204 28.5408C28.4728 40.4648 11.5351 41.292 3.52675 30.0171C-5.21823 17.7056 3.28307 0.6776 18.2316 0.0190424ZM18.5262 1.19313C15.3598 1.24268 12.2106 2.2024 9.54705 3.89694C9.92591 4.27788 10.3476 4.222 10.7851 4.34324C11.7626 4.61383 12.6215 4.80219 13.6397 4.85069C13.9877 4.86721 14.4662 5.11179 14.7798 5.12058C15.3641 5.13674 15.989 5.13675 16.5305 5.05943C16.9536 4.99899 17.4118 5.11531 17.824 5.19719L18.5262 1.19313ZM18.5266 7.76078V6.53152L18.035 6.60146C17.7878 8.71699 18.1772 10.8171 18.2457 12.9245H18.667V8.56869C18.923 8.65585 19.113 8.65549 19.3686 8.56869V12.7836L19.7938 12.6701C19.7309 11.7304 19.9398 10.7995 19.9992 9.86754C20.0898 8.44886 20.0167 7.07482 19.8496 5.66317C19.6769 4.20408 19.3303 2.76854 19.1449 1.31086L19.0922 1.22335L18.8781 1.19208L18.2471 5.05627L18.515 4.97404C18.5161 4.72067 18.726 3.46716 19.1502 3.73072C19.7134 4.94733 19.3254 6.44367 19.4402 7.76149C19.3735 8.10904 18.6084 8.04403 18.5273 7.76043L18.5266 7.76078ZM28.4882 3.86285C25.7635 2.28323 22.6933 1.21351 19.5087 1.19243C19.6066 1.6317 20.0062 4.84612 20.1849 4.90621C20.6537 5.0633 21.0866 4.74983 21.5093 4.70591C22.6189 4.59064 23.7091 4.51719 24.8246 4.37241C25.6887 4.26031 26.5237 3.95844 27.398 4.14012L28.4886 3.8625L28.4882 3.86285ZM11.02 5.3367C10.7198 5.01551 10.415 4.62824 10.0607 4.36608C9.82795 4.19389 9.47928 3.94719 9.19593 4.07371C9.30127 4.33832 9.52353 4.5309 9.7665 4.66374C9.83076 4.69888 9.95997 4.70064 9.96699 4.70801C9.97401 4.71539 9.90203 4.82469 9.91327 4.87213C9.95435 5.04292 10.784 5.45443 11.02 5.3367ZM29.7515 4.84472C29.2168 4.28385 28.6627 3.937 27.8572 4.07335C28.0324 4.31197 28.4285 4.29158 28.6961 4.39174C29.0542 4.52563 29.3822 4.74035 29.7512 4.84472H29.7515ZM26.3144 4.2828C27.0627 4.40334 27.8579 4.9273 28.6143 4.96736C28.7459 4.97439 28.8119 5.02816 28.9081 4.88056C28.2217 4.44797 27.3752 4.17948 26.5584 4.21322C26.4735 4.21673 26.2976 4.1598 26.3144 4.28245V4.2828ZM8.97613 4.36398C8.81391 4.2705 8.57656 4.52001 8.63554 4.7038L9.19558 4.84542C9.25562 4.78638 8.99895 4.37733 8.97613 4.36433V4.36398ZM27.366 4.91676C26.6339 4.69712 25.9064 4.3573 25.1213 4.42477C25.1431 4.51403 25.2323 4.58432 25.3148 4.61665C25.6571 4.75054 26.4756 5.08965 26.7902 5.1125C26.9236 5.12234 27.1308 5.08684 27.2617 5.05451C27.3657 5.02886 27.3853 5.10547 27.3664 4.91676H27.366ZM12.5632 5.68812C12.5881 5.56477 12.5 5.51452 12.4241 5.44142C11.9968 5.02781 11.3318 4.58713 10.7395 4.4947C11.1991 5.09071 11.73 5.7447 12.5632 5.68777V5.68812ZM25.8924 5.12726C24.9177 4.80922 23.9914 4.49365 22.9465 4.63527C22.93 4.73648 23.0701 4.73332 23.1424 4.7537C23.6452 4.89532 25.1459 5.3722 25.5444 5.30753C25.6101 5.29699 25.8892 5.22249 25.8924 5.12726ZM14.2471 5.89862C13.6348 5.3606 12.909 4.84226 12.0723 4.77619C12.3827 4.97193 12.7995 5.46919 13.106 5.60202C13.2731 5.67441 13.4487 5.65298 13.5691 5.70288C13.6731 5.74575 13.6657 5.88316 13.7352 5.90108C13.8725 5.93692 14.0933 5.87578 14.2475 5.89897L14.2471 5.89862ZM24.1389 5.33846C23.2783 5.03764 22.3977 4.68658 21.4735 4.84647C21.457 4.94733 21.5971 4.94487 21.6695 4.9649C22.3492 5.15432 23.3643 5.56583 24.0357 5.47797C24.1326 5.46532 24.2418 5.43932 24.1392 5.33846H24.1389ZM17.6762 6.53996C17.3812 6.37233 17.1133 6.53504 16.811 6.53469C15.0094 6.53258 12.6682 6.33859 10.9484 5.86523C10.4066 5.71623 9.84936 5.56231 9.30513 5.40312C8.97402 5.30613 8.28934 4.91359 7.98352 4.99583C7.92066 5.01269 7.11098 5.71272 6.98423 5.82693C5.03306 7.58472 3.45583 9.93501 2.4611 12.3612C2.62437 12.4954 5.48811 11.0898 5.89716 10.92C6.24617 10.7752 6.33466 10.9007 6.7416 10.5714C8.24791 9.3513 8.63379 8.31392 10.7244 7.74532C11.9459 7.41323 12.5597 7.39847 13.7545 7.90241C14.6587 8.28369 14.3535 8.89692 14.686 9.25326C14.7759 9.34955 15.2984 9.4859 15.4883 9.60889C15.9294 9.89424 16.0435 10.4604 16.0719 10.9569C16.5417 10.687 17.1091 10.6642 17.5736 10.9633C17.6776 11.03 17.6432 11.1741 17.7541 11.1674C17.5891 9.63455 17.5536 8.07706 17.6762 6.53996ZM16.0712 6.03919C15.3177 5.48289 14.4353 5.0264 13.4757 4.98704L14.2636 5.43334C14.7654 5.38555 14.4978 5.46884 14.6671 5.65298C14.8679 5.87191 15.7594 6.11439 16.0712 6.03954V6.03919ZM21.1575 5.05627C20.8426 5.01656 20.4637 5.08509 20.1403 5.05627L21.5294 5.5971C21.8896 5.6839 22.2358 5.74751 22.5954 5.61748C22.6884 5.49238 21.2832 5.07208 21.1572 5.05627H21.1575ZM19.2906 5.20422L18.2464 5.12691C18.2088 5.3476 18.3138 5.23338 18.4195 5.26607C18.686 5.3483 18.9528 5.472 19.1958 5.5458C19.3714 5.59921 19.2924 5.30086 19.2903 5.20457L19.2906 5.20422ZM17.6846 6.03884C17.0241 5.52612 16.1376 5.23268 15.2998 5.19754L15.5277 5.26993C16.139 5.69866 16.9139 6.23844 17.6846 6.03884ZM17.9107 5.74435C17.9929 5.81498 18.1793 5.7563 18.2682 5.78406C18.3524 5.81041 19.3068 6.25847 19.2966 5.93411C18.6484 5.60694 17.8833 5.26782 17.1491 5.20562C17.0635 5.19824 16.7749 5.13077 16.7727 5.26607C17.0199 5.33108 17.6182 5.35498 17.8096 5.49203C17.8682 5.5342 17.8486 5.69093 17.9104 5.744L17.9107 5.74435ZM33.7504 9.12991C33.8765 8.9549 32.0707 6.85869 31.8221 6.60075C31.6072 6.37795 30.4738 5.29277 30.2726 5.26677C30.057 5.23901 29.6971 5.40031 29.4376 5.4105C28.5065 5.44705 27.6125 5.49906 26.6961 5.61432C25.7976 5.72713 24.8878 5.73626 23.9911 5.86769C23.2741 5.97277 22.5114 6.18081 21.785 6.24617C21.5308 6.26901 20.3531 6.17624 20.2885 6.43067C20.634 8.49806 20.2253 10.5721 20.1403 12.6427C20.962 12.4617 21.7678 12.17 22.5806 11.9609C22.798 11.9051 23.0367 11.903 23.2428 11.8513C23.9542 11.6731 25.2934 11.0353 25.6922 12.002L33.7501 9.12956L33.7504 9.12991ZM21.0522 5.82834C21.1322 5.7215 20.2594 5.42456 20.2109 5.47832L20.2183 5.82166C20.5087 5.90565 20.7625 5.93763 21.0522 5.82834ZM11.02 10.3947C10.8202 10.032 10.8311 9.62365 11.0583 9.27469C11.2707 8.94893 11.8848 8.73105 11.5839 8.24996C11.0899 8.10834 10.6085 8.12591 10.1074 8.21833C9.99648 8.30829 10.1141 8.3466 10.2117 8.35855C10.5695 8.40282 10.9607 8.26577 11.23 8.63863C10.414 8.5462 9.92696 8.33289 9.17416 8.7936C8.39257 9.27188 7.86168 9.9568 7.30164 10.6417C7.15768 10.8178 6.8013 11.0704 6.74125 11.2753C6.65663 11.5642 7.24546 11.0487 7.32165 11.0125C7.42313 10.9643 7.63626 10.9654 7.64784 10.9534C7.67172 10.9281 7.64117 10.7433 7.66716 10.6586C7.75283 10.3788 8.07516 10.2295 8.3536 10.1856C8.29075 10.3602 8.0583 10.3883 7.98387 10.5524C7.90065 10.7359 7.97509 10.9717 7.8989 11.0996C7.86765 11.1523 7.33254 11.4282 7.20649 11.5301C7.09659 11.619 7.04673 11.7399 6.95333 11.8415C6.89996 11.8994 6.76864 11.9261 6.75214 11.9539C6.69877 12.0428 6.82306 12.3278 6.79708 12.5193C6.76899 12.726 6.51759 12.9544 6.53199 13.0229C6.56499 13.1811 6.86731 13.1382 6.81007 13.3452L1.75465 14.5713C1.68548 14.6187 1.51308 15.4779 1.48288 15.6403C1.45269 15.8026 1.53415 15.8898 1.54012 15.985C1.54222 16.0167 1.42987 16.0036 1.41196 16.0662C1.38001 16.1787 1.41898 16.3175 1.33787 16.4366C1.38246 16.4721 2.27677 16.1319 2.41967 16.0803C2.53238 16.0395 2.59804 16.0142 2.67037 15.9098C2.38316 15.8195 2.09454 15.9443 1.79538 15.9474C1.71533 15.9481 1.53064 15.9938 1.5489 15.8757C2.60261 15.4119 3.76411 15.3117 4.86066 15.0116C5.23039 14.9104 6.14435 14.6433 6.45895 14.5052C6.80867 14.3516 6.47862 13.964 6.8336 14.0589C7.11941 14.1352 7.16786 14.63 7.2725 14.8144C7.38064 15.0053 8.06076 16.1323 8.14643 16.1874C8.60465 16.483 8.99685 16.205 9.43048 16.2331C10.1282 16.2781 10.7275 16.9005 11.5098 16.5779C11.3989 16.7715 10.9013 16.8601 10.6994 16.8608C10.2718 16.8622 9.80477 16.3031 9.33603 16.6829C10.1812 17.0231 10.6629 17.9589 11.6878 17.7727C11.863 17.7407 11.8227 17.5741 11.9958 17.5214C12.2489 17.4441 12.5969 17.4483 12.8634 17.4051L13.4743 16.788C13.5361 17.7783 12.3876 17.6546 11.8651 18.1659C11.8564 18.2176 12.3988 18.8607 12.4912 18.932C13.0407 19.3562 13.428 19.0585 13.9824 19.1235C14.8402 19.2244 15.2155 19.663 15.8367 20.078C16.4824 20.5092 16.9781 20.5749 17.5438 21.2489C17.7088 21.4454 17.8142 21.9085 18.1281 21.8983C18.6442 21.8815 18.8254 21.5771 18.8057 21.1094C18.7738 20.3475 18.3998 19.5618 17.7081 19.1882C16.8128 18.7046 17.1744 19.8826 16.351 19.8081C16.3935 19.6366 16.627 19.664 16.7067 19.5505C16.7285 19.5196 17.0041 18.9232 16.9817 18.8958L16.5621 19.1766L16.4571 18.7556C16.1902 18.9158 16.2046 19.359 15.8598 19.3864C16.3581 18.6358 16.4048 18.1659 15.4782 17.8366C15.3932 18.1055 15.0393 18.1255 14.8974 18.2829C14.8293 18.3585 14.8532 18.4815 14.7605 18.5493C14.5136 18.7299 13.982 18.6772 13.6857 18.6836L14.4525 18.3634C14.5789 18.187 14.7141 18.0204 14.8763 17.8749C14.9806 17.7815 15.2717 17.708 15.2282 17.5963C15.1769 17.4645 14.8574 17.3615 14.7341 17.2477C14.448 16.9831 14.2124 16.4271 13.8212 16.1948L12.1425 15.5222C12.1281 15.3925 12.3774 15.4509 12.4417 15.4688C12.7278 15.5475 13.0196 15.8005 13.369 15.8051L13.4045 15.6649C12.9252 15.5043 12.2858 14.6953 11.8637 14.5723C11.698 14.5242 11.526 14.5562 11.3669 14.508C10.7405 14.3182 10.2328 14.1141 9.54705 14.1172L10.5056 14.0037L10.8792 14.047C10.8086 13.9359 10.6341 13.788 10.5116 13.7518C10.2675 13.6794 9.58778 13.5884 9.30056 13.5567C9.04319 13.5283 8.75633 13.5761 8.49475 13.5553L9.29811 13.4126C9.74473 13.4601 10.3929 13.3104 10.79 13.5346C10.9006 13.5971 10.908 13.7043 10.9912 13.7574C11.1439 13.8551 11.3655 13.8593 11.5112 13.9422C12.0755 14.2641 12.7321 14.7494 13.2278 15.1739C13.4441 15.3591 14.1028 16.1312 14.2861 16.1576C14.6281 16.2064 15.3992 15.5925 15.7822 15.5145C15.9157 15.3043 15.3061 14.385 15.1263 14.2567C14.9757 14.1492 14.7503 14.1278 14.573 14.0382C14.3367 13.919 14.1601 13.6368 13.7563 13.6973C14.1372 14.1415 14.6295 14.6155 14.6334 15.2418C13.6204 14.2536 12.9726 13.0096 11.4701 12.7189C10.8002 12.5893 9.91221 12.5496 9.23947 12.6511C8.79636 12.7179 8.388 12.9231 7.93366 12.9231L9.61131 12.04L10.592 11.2609C10.626 11.1555 10.336 10.0383 10.2546 9.94871C10.1499 9.8331 9.73595 9.89178 9.57584 9.76879C9.48631 9.70026 9.31215 9.0902 9.33708 9.06033C9.65625 9.07895 9.58708 9.55794 9.75597 9.65879C9.91011 9.75086 10.1657 9.63384 10.3199 9.72662C10.4856 9.82642 10.5579 10.5324 11.0203 10.3943L11.02 10.3947ZM13.9659 9.41175C13.5761 9.07649 13.6067 8.35749 13.0295 8.22817C12.5358 8.84807 11.5772 8.78552 11.2661 9.55372C10.9877 10.2407 11.4838 10.407 12.0727 10.4649C11.6815 10.078 11.1074 10.3669 11.3016 9.55267C11.4347 9.62717 11.3771 9.91076 11.5323 10.0229C11.6373 10.0988 12.1573 10.1206 12.3205 10.2499C12.6453 10.0917 12.9557 9.8946 13.2875 9.75016C13.5431 9.63911 14.2349 9.53439 14.3061 9.29156C14.3841 9.02694 13.9051 8.14383 13.7559 8.28826L13.9655 9.41139L13.9659 9.41175ZM15.2053 10.4885C15.1759 10.4414 15.0512 10.4231 14.9996 10.3075C14.9603 10.2193 15.0382 10.1135 14.9557 10.0078C14.645 9.60995 13.9922 9.8345 13.5783 9.9712C13.1643 10.1079 12.1538 10.5876 12.0765 11.0662C11.9993 11.5449 12.3255 12.2213 12.8437 12.221C12.9627 12.1159 12.4922 11.8239 12.448 11.7747C12.1278 11.4176 12.1208 11.1748 12.4585 10.8167C12.3307 11.5821 12.7637 11.5983 13.1594 12.0755C13.7117 11.5768 14.9553 11.6127 15.5084 11.2012C15.9638 10.8624 15.6506 9.92939 15.1601 9.76281C15.1411 10.0851 15.3995 10.2632 15.442 10.5686C15.4529 10.6466 15.4926 11.0135 15.3707 11.0269C15.3848 10.8223 15.311 10.6558 15.2057 10.4885H15.2053ZM17.054 12.3623C17.1056 12.1532 16.8658 11.263 16.7432 11.1601C16.5326 10.9829 15.8718 11.4271 15.6165 11.5206C15.1464 11.6932 14.3247 11.8436 13.9466 12.0263C13.9069 12.0456 13.421 12.4339 13.4002 12.4621C13.021 12.9762 14.429 13.4868 14.5273 13.4151C14.2478 13.0521 13.5035 13.0651 13.6158 12.4325C13.863 12.4097 13.678 12.6462 13.8967 12.818C13.9466 12.8574 14.791 13.2647 14.8493 13.2724C15.0575 13.3005 16.3219 13.089 16.54 13.0071C16.66 12.9621 16.8507 12.8644 16.9494 12.785C16.9947 12.7485 17.3819 12.3461 17.3925 12.3155C17.4423 12.1718 17.522 11.0044 17.1235 11.1681C17.0097 11.2883 17.4399 12.1957 17.0536 12.3619L17.054 12.3623ZM6.31921 11.7301C6.06254 11.8892 5.94983 11.6794 5.78831 11.6643C4.93404 11.5856 4.26094 12.1247 3.53272 12.4164C3.16299 12.5643 2.70092 12.635 2.32136 12.7843L2.83505 12.8971C3.16861 12.8883 3.47163 12.7362 3.79044 12.674C3.86242 12.6599 4.02043 12.5819 4.00392 12.7123C3.39368 13.0419 2.80169 13.1167 2.12333 13.2176L1.75957 14.3984C2.69144 14.2884 3.52605 13.4509 4.39999 13.2984C4.48706 13.2833 4.61522 13.3466 4.77709 13.3178C5.01515 13.2756 5.72195 13.0321 5.92314 12.9136C6.39645 12.6346 6.3336 12.2125 6.31886 11.7301H6.31921ZM17.8949 12.9948L17.7555 11.6601C17.9469 12.0881 17.1632 13.0693 17.8949 12.9948ZM23.0862 13.2759C23.1392 13.3297 24.3994 13.0978 24.575 13.0451C25.5353 12.7572 25.8464 11.7188 24.5223 11.7968C24.3411 11.8074 23.6779 11.9936 23.5483 12.0874C23.2779 12.2839 23.6101 12.9607 23.2614 13.205L23.1203 12.2885L22.806 12.2927C23.0037 12.5893 23.1361 12.9112 23.0862 13.2759ZM20.351 12.9245C20.4174 13.1245 20.4746 14.0058 20.6049 14.0434C20.6793 14.0649 21.9335 13.718 22.1031 13.6604C22.2822 13.5996 22.7769 13.4169 22.8081 13.2387C22.8443 13.0342 22.5051 12.1553 22.3499 12.5706C22.5006 12.798 22.6252 13.0654 22.5947 13.3455C22.3886 13.213 22.2305 12.6346 22.0346 12.5373C21.7709 12.4065 21.1466 12.6638 20.8735 12.7808C20.7615 12.9505 20.9311 13.6709 20.6315 13.8375L20.5603 12.9238L20.3507 12.9245H20.351ZM36.7522 17.8978C36.8656 17.7013 36.531 15.6747 36.439 15.3254C35.8716 13.1691 33.6367 11.9799 31.5394 12.7829L20.4911 16.7891C20.7204 17.1707 21.1863 17.241 21.5378 17.4613C22.5125 18.0728 22.594 18.4959 23.8945 18.614C24.9851 18.7127 24.773 18.3919 25.6143 19.21C26.3046 19.8812 26.4651 19.851 27.2473 20.3145C27.9029 20.7028 28.3183 21.2029 29.1557 21.2837C30.9018 21.4524 31.7659 20.4139 33.2115 19.7965C33.6107 19.6261 34.0668 19.547 34.4548 19.3555C35.2143 18.9802 35.9541 18.2545 36.7522 17.8981V17.8978ZM20.2106 14.2571C20.1144 13.84 20.1688 13.3912 19.8134 13.076C19.3268 13.0015 18.8591 13.1761 18.3939 13.283L18.5259 14.5393L18.1449 13.5522L17.8956 13.3459C18.0568 13.6435 17.9946 13.9468 18.0894 14.2399C18.2738 14.8106 18.7039 14.7927 19.192 14.6085C19.5835 14.4609 19.8022 13.5922 19.6498 13.2053C19.7762 13.264 19.8931 13.5553 19.9142 13.678C19.9574 13.9289 19.89 14.0926 19.8601 14.3284L20.2109 14.2567L20.2106 14.2571ZM16.0716 15.4533C17.0515 15.4347 17.2938 13.9004 16.731 13.2861C16.1987 13.4903 15.5438 13.3427 15.0902 13.7317C15.4669 14.2392 16.1583 14.7705 16.0712 15.453L16.0716 15.4533ZM17.4044 15.032C17.5905 15.045 17.8665 15.0028 17.8984 14.7839C17.9093 14.7101 17.6186 13.6175 17.5758 13.5599C17.4501 13.3902 17.1727 13.4109 16.9831 13.4165C17.3798 13.8414 17.3847 14.4852 17.4044 15.0316V15.032ZM1.19813 18.5089V19.5277C1.7557 19.2012 2.3017 18.7187 2.87859 18.4358C3.35716 18.2011 3.88349 18.1055 4.36979 17.8918C5.37961 17.448 6.28901 16.6977 7.37573 16.3969C7.42453 16.1962 7.21562 15.2991 7.04708 15.247L5.2669 15.6631L6.38943 15.0323L3.65386 15.6645L4.49479 15.8037C4.25392 15.8114 3.99199 15.9376 3.75814 15.9446C3.58153 15.9499 3.45512 15.8473 3.2118 15.8894C2.98568 15.9288 2.90246 16.2739 2.61876 16.3494C2.36314 16.4173 1.58857 16.4022 1.40739 16.5417C1.24728 16.665 1.22481 17.7245 1.19707 17.9825C1.34349 18.1297 2.58435 17.7161 2.81363 17.5987C3.05485 17.475 3.22093 17.2698 3.42458 17.157C3.91474 16.885 4.91684 16.5722 5.47336 16.4682C5.54604 16.4545 5.70299 16.3754 5.68684 16.5065C5.29288 16.6478 4.78587 16.7673 4.4207 16.9602C4.01621 17.1739 3.65526 17.6114 3.23146 17.8068C2.9467 17.9382 1.24588 18.3574 1.19742 18.5096L1.19813 18.5089ZM36.1356 23.4614C36.4031 23.2685 36.4692 22.6317 36.5345 22.28C36.5889 21.9869 36.8663 20.1177 36.7676 20.0186C36.1388 19.9979 35.3744 20.1349 34.8031 20.4055C34.5232 20.5383 34.3533 20.7661 34.1051 20.9007C33.6546 21.1452 32.6613 21.4668 32.1542 21.5469C32.0795 21.5589 31.9102 21.6214 31.9271 21.4946C32.3217 21.3863 32.8505 21.2433 33.2058 21.0539C33.5703 20.8595 33.9365 20.4262 34.2936 20.2467C35.3055 19.7371 37.1644 19.9504 36.8368 18.2629C36.7585 18.1772 35.097 19.3741 34.874 19.4932C34.3523 19.7716 33.8674 19.8577 33.3519 20.0766C32.3126 20.5173 31.3656 21.3206 30.2413 21.5979L30.1788 21.6794C30.1262 21.8519 30.3951 22.7393 30.5001 22.7635L32.347 22.4082L31.2252 22.9688L33.8902 22.3362L33.1195 22.1974C33.5159 22.047 34.1268 22.2122 34.4727 22.1278C34.5257 22.1148 34.6012 21.9222 34.696 21.8442C35.0801 21.5265 35.8589 21.6306 36.3459 21.4953L34.9439 22.0927L35.4681 22.1254C35.6166 22.1296 35.9758 21.9402 36.0654 22.1257C34.4471 22.766 32.7027 22.9656 31.0605 23.5423C30.8516 23.6287 31.0493 23.9981 30.7705 24.023C30.3414 23.6586 29.8165 22.0628 29.3829 21.8291C28.8871 21.562 28.6413 21.8368 28.2635 21.8288C27.7466 21.8175 27.109 21.3617 26.6273 21.3519C26.3892 21.347 26.2509 21.4668 26.0342 21.4939C26.2021 21.219 26.7737 21.1505 27.0542 21.1762C27.2164 21.1909 27.3888 21.373 27.5581 21.4081C27.7881 21.4559 28.0447 21.4095 28.2789 21.4232L26.6339 20.2966C26.3334 20.1609 26.0346 20.2565 25.7284 20.2976C25.674 20.6617 25.1118 20.5232 24.7821 20.6273C24.4078 20.7453 24.4089 21.1266 24.0697 21.2127C24.1519 20.3721 25.0188 20.2509 25.6778 20.0137C25.8362 19.7835 25.0153 18.9714 24.7203 18.9113C23.8461 18.7331 23.4307 19.0346 22.4535 18.5117C22.1589 18.3539 21.9999 18.1132 21.7895 17.9821C21.1533 17.5857 20.5838 17.448 20.0726 16.821C19.9532 16.6745 19.7822 16.2876 19.6909 16.2205C19.4047 16.011 18.7429 16.3213 18.7344 16.6784C18.7309 16.827 18.8738 17.6005 18.9255 17.759C19.0399 18.1093 19.5613 18.6646 19.8809 18.8389C20.7341 19.3045 20.4419 18.1589 21.2632 18.1933C20.8963 18.4348 20.7407 18.6709 20.6326 19.106L21.0522 18.8252L21.0877 19.3165C21.2376 19.2778 21.5343 18.5423 21.6842 18.6853C21.2888 19.4208 21.0799 19.7969 22.0132 20.149C22.1621 20.0091 22.5613 19.8766 22.6663 19.7709C22.7418 19.6946 22.6961 19.5913 22.8232 19.5045C23.0722 19.334 23.6301 19.314 23.9286 19.3179L23.1603 19.6366C22.9103 19.9568 22.6958 20.2326 22.3166 20.4062C22.9848 20.759 23.2053 21.4394 23.8064 21.8635L25.542 22.5495C25.5599 22.6736 25.3836 22.6184 25.3134 22.6029C24.951 22.5228 24.6178 22.229 24.2095 22.2684C24.2565 22.3773 24.3685 22.4687 24.457 22.5467C25.2295 23.2256 25.9795 23.6006 26.997 23.7967C27.3095 23.8568 27.7379 23.8318 28.0676 23.8842L27.0504 24.0244L26.6652 23.9545L27.0644 24.2915C27.3604 24.2093 27.8218 24.4458 28.0332 24.4458H29.1206C29.1111 24.5466 28.8088 24.5684 28.7263 24.5779C28.3695 24.619 27.0339 24.6499 26.7835 24.5027C26.6761 24.4394 26.6554 24.314 26.5465 24.2483C25.6884 23.7289 25.1094 23.5142 24.279 22.7959C24.0936 22.6356 23.4496 21.8931 23.3169 21.8569C23.1635 21.8147 21.9156 22.4546 21.8577 22.5485C21.6965 22.8096 22.2414 23.6185 22.4567 23.7777C22.5866 23.8737 22.9521 23.9956 23.1361 24.081C23.351 24.1808 23.4398 24.4078 23.7885 24.3052L23.167 23.5581L22.911 22.7607C23.8376 23.6431 24.5174 24.8994 25.8351 25.2417C27.0739 25.5636 28.4039 25.4445 29.6111 25.0794C28.7515 25.7123 27.6929 25.9864 26.9598 26.8076L27.2912 28.0513C27.4085 28.2249 27.8028 28.1082 27.9959 28.2769C28.1617 28.4217 28.1304 28.7619 28.2782 28.9418C27.9784 28.972 27.9443 28.4604 27.8105 28.375C27.6343 28.2625 27.3295 28.3553 27.2365 28.2991C27.1834 28.2671 26.9577 27.482 26.5946 27.6082C26.6764 27.9252 26.7231 28.3177 26.5995 28.6315C26.4422 29.0311 25.7021 29.2475 25.9819 29.7655L26.1382 29.8558H27.3309C27.3421 29.8558 27.536 29.787 27.5058 29.7163C27.0518 29.638 26.6585 29.8225 26.3137 29.3649C26.9384 29.4605 27.5813 29.6587 28.1855 29.3769C29.0409 28.9777 29.7417 28.0675 30.3126 27.3622C30.4531 27.1886 30.7968 26.925 30.873 26.7289C31.0026 26.3954 30.3488 26.9914 30.3095 27.009C30.1894 27.0617 30.0268 27.0231 29.9727 27.0565C29.8997 27.1014 29.932 27.4377 29.8211 27.5723C29.7406 27.67 29.405 27.838 29.2607 27.8183C29.314 27.6535 29.5208 27.6377 29.596 27.4873C29.6711 27.3369 29.6378 27.0354 29.7178 26.9067C29.7979 26.7781 30.6974 26.3715 30.8361 25.9962C30.9025 25.8166 30.6465 25.2639 31.0823 25.0442C31.083 24.9349 30.5865 24.768 30.8031 24.6918C30.9678 24.6338 31.1676 24.6608 31.3547 24.612C32.6297 24.2806 34.9112 23.3595 36.1359 23.4636C35.8119 23.6972 34.9632 23.8969 34.5422 24.0803C34.2132 24.2237 33.866 24.5428 33.439 24.6615C32.8926 24.8133 32.2441 24.7863 31.6908 25.0885C31.2543 25.3271 31.1128 25.8209 31.2965 26.2738C31.6693 26.0756 31.6244 26.354 31.775 26.3779C32.7722 26.5349 34.1721 25.3363 35.2241 25.2892C34.8828 24.9342 34.2445 25.279 33.8382 25.3426C33.7634 25.3542 33.5945 25.4174 33.611 25.2906C34.3319 24.9167 35.1033 24.9051 35.8814 24.7346L36.275 23.4973C36.2894 23.4379 36.1879 23.4678 36.1359 23.4636L36.1356 23.4614ZM17.1934 21.4236C17.376 21.172 15.8823 20.4814 15.6976 20.3584C15.389 20.1528 15.1246 19.8169 14.7858 19.6556C14.1302 19.3435 13.6007 19.5277 12.949 19.4577C12.2149 19.3787 12.0562 18.7676 11.5751 18.375C11.2187 18.084 10.593 17.8848 10.1566 17.6177C9.64326 17.3035 9.3901 16.9286 8.72192 16.8063C8.19805 16.7104 7.33289 16.7585 6.83009 16.9131C6.16788 17.1169 5.2827 17.8243 4.61312 18.1354C4.05027 18.3965 3.46671 18.5079 2.90492 18.8136C2.31785 19.133 1.78906 19.6095 1.19707 19.929C1.2996 20.9326 1.34103 22.0934 1.63878 23.0559C2.20057 24.8727 4.26867 25.9639 6.09344 25.4491L17.193 21.4243L17.1934 21.4236ZM21.4728 22.5488C20.4943 22.6897 20.3556 24.0311 20.8173 24.7318C21.074 24.6306 22.4012 24.5821 22.4556 24.3379C22.1466 23.7338 21.437 23.2949 21.4728 22.5485V22.5488ZM20.561 24.5849C20.1632 24.1696 20.2471 23.5619 20.1776 23.0373C20.0887 22.8928 19.6695 23.0506 19.6839 23.329C19.6884 23.4217 19.9686 24.4226 20.0052 24.4749C20.1323 24.6563 20.3615 24.5737 20.561 24.5849ZM19.7193 24.6552C19.3398 23.9077 19.6165 23 18.3837 23.4238C17.9999 23.5556 17.7773 24.4359 17.9655 24.7958C17.7878 24.8306 17.8412 24.7631 17.7892 24.6598C17.6235 24.3305 17.6962 24.0297 17.6846 23.6726L17.4062 23.7464C17.4739 24.1952 17.41 25.034 18.0599 25.0024C18.1839 24.9964 19.1628 24.7754 19.1986 24.729L19.0891 23.6024L19.4458 24.5438L19.72 24.6549L19.7193 24.6552ZM16.9824 24.1643C17.0164 24.3344 16.8697 25.2076 17.1576 25.1475C17.3545 25.0147 17.1597 24.8077 17.1288 24.6155C17.1007 24.4398 17.1972 24.0936 17.008 24.0311C16.9027 23.9963 15.7239 24.2911 15.5252 24.3551C14.7169 24.6155 14.6232 24.7508 15.028 25.5594L15.2299 25.5331C15.1235 25.2558 14.956 25.0488 15.0196 24.7262L15.5565 25.4867C15.9501 25.5447 16.351 25.4174 16.7043 25.2544C16.9055 25.0558 16.5902 24.3442 16.9824 24.1636V24.1643ZM20.5606 25.6395C20.5754 25.7537 20.4879 25.8448 20.4869 25.9558C20.4865 26.0001 20.7513 26.756 20.7769 26.7932C20.99 27.1032 21.5806 26.6523 21.8577 26.5515C22.5982 26.2812 23.648 26.1389 24.1761 25.571C24.5234 25.1978 23.6301 24.7322 23.3285 24.6605C23.2899 24.6513 23.0167 24.6109 23.1217 24.7269C23.4064 24.9307 24.266 25.1577 23.8938 25.6395C23.8394 25.4234 23.8418 25.3211 23.6456 25.1866C22.8812 24.6622 22.3282 24.7406 21.4669 24.9114C20.5789 25.0875 19.9535 25.6863 20.1407 26.6593C20.1709 26.8157 20.2889 26.8463 20.4212 26.9043C20.5318 26.4907 20.1133 25.8869 20.5617 25.6399L20.5606 25.6395ZM14.4575 24.7258C13.6688 24.9346 12.0158 24.8197 12.2454 26.0637C12.8816 26.4032 13.5438 26.1069 14.1685 25.9122C14.2605 25.8075 14.0484 25.0323 14.2826 24.8671L14.4501 25.7393L14.7377 25.7797L14.4571 24.7262L14.4575 24.7258ZM19.3686 25.0773V36.8793L20.0006 36.8083C19.929 36.2193 19.8268 35.6096 19.7903 35.0171C19.621 32.2518 19.7225 29.4268 19.7924 26.6611C19.8022 26.2767 19.8489 25.5218 19.7892 25.1834C19.7755 25.105 19.7608 25.0453 19.6783 25.0147L19.3682 25.0776L19.3686 25.0773ZM18.667 25.2178H18.2457L18.3156 31.0131L18.2489 34.3182L18.0456 36.7992L18.6667 36.8793V25.2178H18.667ZM11.9887 26.2134L4.4035 28.9545C4.33222 28.9938 4.27674 29.0072 4.29184 29.1077C4.30694 29.2082 5.38488 30.5415 5.54955 30.7305C8.16188 33.732 11.8444 35.8637 15.7777 36.576C16.0498 36.6252 17.4946 36.8659 17.6193 36.7784L17.8981 33.7562L17.8623 25.3545C17.8166 25.2758 17.179 25.429 17.0519 25.4621C15.9957 25.7386 14.8799 26.1396 13.8268 26.3772C13.3318 26.4889 12.7598 26.6411 12.2696 26.459C12.0586 26.3807 12.007 26.2211 11.9891 26.213L11.9887 26.2134ZM20.351 36.8087C27.0563 36.3602 33.2367 31.7911 35.5738 25.4986C34.886 25.7116 34.2065 25.9607 33.5422 26.2383C33.0215 26.4559 31.1672 27.1914 30.8734 27.4297C29.9288 28.1947 29.2178 29.2317 28.0893 29.8404C27.5556 30.1282 26.2474 30.5204 25.6459 30.5562C25.2614 30.5791 23.8555 30.2087 23.5427 29.995C23.0272 29.6432 23.1421 29.0718 22.9103 28.8016C22.7797 28.6494 22.3387 28.5932 22.1256 28.4635C21.6916 28.1996 21.5083 27.5976 21.5434 27.1144C21.0304 27.2575 20.6435 27.4483 20.1414 27.1144C20.0936 28.9225 20.0199 30.7449 20.0677 32.5618C20.0719 32.728 20.1382 32.8816 20.1435 33.0478C20.1849 34.3048 20.1653 35.5594 20.3514 36.8087H20.351ZM22.6073 28.0868C22.7502 28.3332 23.5423 28.1996 23.7899 28.135C24.76 27.8816 26.1164 27.1376 25.1898 26.0282C24.8945 25.6747 24.6038 25.7991 24.9099 26.0971C25.3155 26.4917 25.615 26.7328 25.0859 27.255C25.0588 27.0167 25.1965 26.8031 25.0848 26.5539C25.0012 26.3677 24.5413 26.2816 24.4482 25.9952C23.8713 26.4056 22.589 26.4467 22.0676 26.8319C21.4321 27.3014 22.2923 28.362 22.3847 28.239C22.4475 27.9336 22.1379 27.689 22.1063 27.4244C22.0929 27.313 22.0978 27.0041 22.2446 26.9749C22.0982 27.3857 22.4781 27.4898 22.5602 27.6778C22.6242 27.8239 22.5634 28.0106 22.6076 28.0872L22.6073 28.0868ZM26.0785 28.8459C26.6452 28.2762 26.4798 27.6802 25.6455 27.6068C25.4861 27.5927 25.4647 27.6363 25.6294 27.6936C26.0999 27.857 26.391 27.7913 26.313 28.4491C26.1596 28.3985 26.167 28.0692 26.0339 27.9923C25.9984 27.9715 25.2856 27.8124 25.2333 27.8176C25.0227 27.8384 24.3941 28.2291 24.1375 28.343C23.9082 28.4449 23.2892 28.5205 23.2411 28.7756C23.213 28.926 23.5121 29.6007 23.6835 29.7135C23.8394 29.7694 23.7186 29.3712 23.7102 29.335C23.6596 29.1235 23.4191 28.8157 23.7168 28.6603C23.9135 29.1161 24.0518 29.6032 24.5251 29.8421C24.8998 29.2929 25.6638 29.2623 26.0778 28.8459H26.0785Z" fill="black"/>
<path d="M18.2721 1.01804C32.3175 0.39947 41.6793 15.8131 34.5561 28.0387C27.9742 39.3351 11.928 40.1188 4.34113 29.4373C-3.94359 17.7737 4.11028 1.64194 18.2721 1.01804ZM18.5512 2.13033C15.5514 2.17728 12.568 3.08649 10.0446 4.69184C10.4035 5.05273 10.803 4.99979 11.2175 5.11465C12.1435 5.371 12.9572 5.54945 13.9218 5.59539C14.2515 5.61104 14.7049 5.84275 15.0019 5.85108C15.5554 5.86639 16.1475 5.86639 16.6604 5.79315C17.0613 5.73588 17.4954 5.84608 17.8859 5.92365L18.5512 2.13033ZM18.5515 8.35232V7.18776L18.0858 7.25401C17.8516 9.2582 18.2205 11.2477 18.2854 13.2443H18.6846V9.11771C18.9271 9.20028 19.107 9.19994 19.3492 9.11771V13.1108L19.752 13.0032C19.6925 12.113 19.8904 11.2311 19.9466 10.3482C20.0324 9.00418 19.9632 7.70246 19.8049 6.36511C19.6412 4.98281 19.3129 3.62283 19.1373 2.24186L19.0874 2.15897L18.8845 2.12934L18.2867 5.79015L18.5405 5.71225C18.5415 5.47221 18.7404 4.28468 19.1423 4.53437C19.6758 5.68694 19.3083 7.10453 19.417 8.35299C19.3538 8.68225 18.629 8.62066 18.5522 8.35199L18.5515 8.35232ZM27.9888 4.65955C25.4075 3.16306 22.4989 2.14964 19.4819 2.12967C19.5747 2.54582 19.9532 5.59106 20.1226 5.64799C20.5666 5.79681 20.9768 5.49984 21.3773 5.45823C22.4284 5.34903 23.4613 5.27945 24.5181 5.14228C25.3367 5.03608 26.1277 4.7501 26.956 4.92222L27.9892 4.65921L27.9888 4.65955ZM11.44 6.05582C11.1556 5.75153 10.8669 5.38465 10.5312 5.13629C10.3107 4.97316 9.98038 4.73945 9.71194 4.8593C9.81173 5.10999 10.0223 5.29243 10.2525 5.41828C10.3133 5.45157 10.4358 5.45323 10.4424 5.46022C10.4491 5.46722 10.3809 5.57075 10.3915 5.6157C10.4304 5.7775 11.2165 6.16735 11.44 6.05582ZM29.1857 5.58973C28.6791 5.05839 28.1541 4.72979 27.3911 4.85897C27.5571 5.08502 27.9323 5.06571 28.1857 5.16059C28.525 5.28744 28.8357 5.49085 29.1853 5.58973H29.1857ZM25.9295 5.05739C26.6383 5.17158 27.3917 5.66797 28.1082 5.70592C28.233 5.71258 28.2955 5.76352 28.3867 5.62369C27.7364 5.21386 26.9344 4.95951 26.1606 4.99147C26.0801 4.9948 25.9135 4.94087 25.9295 5.05706V5.05739ZM9.5037 5.13429C9.35002 5.04574 9.12516 5.28211 9.18104 5.45623L9.7116 5.5904C9.76848 5.53447 9.52532 5.14694 9.5037 5.13463V5.13429ZM26.9257 5.65798C26.2322 5.4499 25.5429 5.12797 24.7991 5.19189C24.8198 5.27645 24.9043 5.34304 24.9824 5.37366C25.3068 5.50051 26.0821 5.82178 26.3802 5.84342C26.5066 5.85274 26.7028 5.81912 26.8269 5.78849C26.9254 5.76418 26.944 5.83676 26.926 5.65798H26.9257ZM12.9019 6.38875C12.9256 6.27189 12.8421 6.22428 12.7702 6.15503C12.3654 5.76318 11.7354 5.3457 11.1742 5.25814C11.6096 5.82278 12.1126 6.44235 12.9019 6.38841V6.38875ZM25.5296 5.8574C24.6062 5.55611 23.7287 5.25714 22.7388 5.39131C22.7231 5.48719 22.8559 5.48419 22.9244 5.5035C23.4007 5.63767 24.8224 6.08945 25.2 6.02819C25.2622 6.0182 25.5266 5.94762 25.5296 5.8574ZM14.4973 6.58817C13.9172 6.07846 13.2296 5.5874 12.4369 5.52481C12.731 5.71025 13.1258 6.18133 13.4162 6.30718C13.5745 6.37576 13.7409 6.35545 13.855 6.40273C13.9534 6.44334 13.9464 6.57352 14.0123 6.5905C14.1424 6.62445 14.3516 6.56653 14.4976 6.5885L14.4973 6.58817ZM23.8684 6.05749C23.0531 5.77251 22.2189 5.43992 21.3433 5.5914C21.3277 5.68694 21.4604 5.68461 21.529 5.70359C22.173 5.88304 23.1346 6.27289 23.7706 6.18966C23.8624 6.17767 23.9659 6.15304 23.8687 6.05749H23.8684ZM17.7459 7.19575C17.4664 7.03694 17.2126 7.19109 16.9262 7.19076C15.2195 7.18876 13.0014 7.00498 11.3721 6.55654C10.8589 6.41538 10.331 6.26956 9.81539 6.11875C9.50171 6.02686 8.85306 5.65498 8.56333 5.73289C8.50379 5.74887 7.73672 6.41205 7.61664 6.52025C5.76816 8.18553 4.27394 10.4121 3.33157 12.7106C3.48625 12.8378 6.19926 11.5061 6.58678 11.3453C6.91743 11.2081 7.00125 11.327 7.38678 11.015C8.81381 9.85913 9.17938 8.87634 11.1599 8.33767C12.3172 8.02306 12.8986 8.00908 14.0306 8.48649C14.8871 8.84771 14.5981 9.42866 14.9131 9.76624C14.9982 9.85746 15.4932 9.98664 15.6732 10.1032C16.091 10.3735 16.1991 10.9098 16.226 11.3803C16.6711 11.1246 17.2086 11.1029 17.6487 11.3862C17.7472 11.4495 17.7146 11.586 17.8197 11.5797C17.6634 10.1275 17.6298 8.65195 17.7459 7.19575ZM16.2254 6.72133C15.5115 6.19432 14.6756 5.76185 13.7665 5.72456L14.5129 6.14738C14.9883 6.1021 14.7348 6.181 14.8951 6.35545C15.0854 6.56286 15.93 6.79258 16.2254 6.72167V6.72133ZM21.044 5.79015C20.7456 5.75253 20.3867 5.81745 20.0803 5.79015L21.3962 6.30252C21.7375 6.38475 22.0655 6.44501 22.4061 6.32183C22.4943 6.20331 21.1631 5.80513 21.0436 5.79015H21.044ZM19.2753 5.93031L18.2861 5.85707C18.2505 6.06614 18.3499 5.95794 18.45 5.98891C18.7025 6.06681 18.9553 6.184 19.1855 6.25391C19.3518 6.30452 19.277 6.02186 19.275 5.93064L19.2753 5.93031ZM17.7538 6.721C17.1281 6.23527 16.2882 5.95728 15.4945 5.92399L15.7104 5.99257C16.2896 6.39873 17.0237 6.9101 17.7538 6.721ZM17.9681 6.44201C18.0459 6.50893 18.2225 6.45333 18.3067 6.47963C18.3865 6.5046 19.2906 6.92908 19.281 6.62179C18.6669 6.31184 17.9421 5.99057 17.2466 5.93164C17.1654 5.92465 16.892 5.86073 16.89 5.98891C17.1241 6.0505 17.691 6.07313 17.8723 6.20297C17.9278 6.24293 17.9092 6.39141 17.9677 6.44168L17.9681 6.44201ZM32.9741 9.64939C33.0935 9.48359 31.3827 7.49771 31.1472 7.25334C30.9437 7.04227 29.8699 6.01421 29.6793 5.98957C29.4751 5.96327 29.1341 6.11608 28.8883 6.12574C28.0061 6.16036 27.1592 6.20963 26.291 6.31883C25.4398 6.4257 24.5779 6.43436 23.7284 6.55887C23.0491 6.65841 22.3266 6.8555 21.6384 6.91743C21.3976 6.93907 20.2819 6.85117 20.2207 7.09221C20.548 9.05079 20.1608 11.0157 20.0803 12.9773C20.8587 12.8058 21.6221 12.5295 22.3922 12.3314C22.5981 12.2785 22.8243 12.2765 23.0195 12.2275C23.6934 12.0587 24.9621 11.4545 25.34 12.3704L32.9738 9.64905L32.9741 9.64939ZM20.9442 6.52158C21.02 6.42037 20.1931 6.13905 20.1472 6.18999L20.1542 6.51526C20.4293 6.59482 20.6698 6.62512 20.9442 6.52158ZM11.44 10.8476C11.2507 10.504 11.261 10.1171 11.4763 9.78655C11.6775 9.47793 12.2593 9.27152 11.9742 8.81575C11.5062 8.68158 11.0501 8.69823 10.5755 8.78579C10.4704 8.87102 10.5818 8.9073 10.6743 8.91862C11.0132 8.96057 11.3838 8.83073 11.6389 9.18396C10.8659 9.0964 10.4045 8.89432 9.69131 9.33078C8.95086 9.78389 8.4479 10.4328 7.91734 11.0816C7.78096 11.2484 7.44333 11.4878 7.38645 11.6819C7.30628 11.9555 7.86412 11.4671 7.9363 11.4329C8.03244 11.3872 8.23435 11.3882 8.24533 11.3769C8.26795 11.353 8.23901 11.1778 8.26362 11.0976C8.34479 10.8326 8.65015 10.6911 8.91393 10.6495C8.85439 10.8149 8.63418 10.8416 8.56366 10.9971C8.48483 11.1708 8.55535 11.3942 8.48316 11.5154C8.45356 11.5654 7.94662 11.8267 7.8272 11.9232C7.72308 12.0075 7.67585 12.122 7.58737 12.2182C7.5368 12.2731 7.4124 12.2985 7.39676 12.3248C7.3462 12.409 7.46396 12.679 7.43934 12.8604C7.41273 13.0562 7.17456 13.2726 7.1882 13.3375C7.21947 13.4873 7.50587 13.4467 7.45165 13.6428L2.6623 14.8044C2.59677 14.8493 2.43345 15.6633 2.40484 15.8171C2.37623 15.9709 2.4534 16.0535 2.45906 16.1437C2.46105 16.1737 2.35461 16.1614 2.33764 16.2206C2.30737 16.3271 2.3443 16.4587 2.26746 16.5715C2.3097 16.6051 3.15694 16.2829 3.29232 16.2339C3.3991 16.1953 3.4613 16.1713 3.52983 16.0725C3.25773 15.9869 2.9843 16.1051 2.70089 16.1081C2.62505 16.1087 2.45008 16.152 2.46737 16.0402C3.46563 15.6007 4.566 15.5058 5.60483 15.2215C5.9551 15.1256 6.82096 14.8726 7.11901 14.7418C7.45032 14.5963 7.13764 14.2291 7.47394 14.319C7.7447 14.3912 7.79061 14.86 7.88974 15.0347C7.99219 15.2155 8.63651 16.2832 8.71767 16.3355C9.15177 16.6155 9.52333 16.3521 9.93414 16.3787C10.5951 16.4214 11.1629 17.011 11.904 16.7053C11.7989 16.8888 11.3276 16.9727 11.1363 16.9733C10.7311 16.9747 10.2887 16.445 9.84466 16.8049C10.6453 17.1272 11.1017 18.0137 12.0727 17.8373C12.2387 17.807 12.2004 17.6492 12.3644 17.5992C12.6042 17.526 12.9339 17.53 13.1864 17.489L13.7652 16.9044C13.8237 17.8426 12.7356 17.7254 12.2407 18.2098C12.2323 18.2588 12.7463 18.868 12.8338 18.9356C13.3543 19.3374 13.7212 19.0554 14.2465 19.117C15.0591 19.2126 15.4147 19.6281 16.0032 20.0213C16.6149 20.4297 17.0846 20.492 17.6204 21.1306C17.7768 21.3167 17.8766 21.7554 18.174 21.7458C18.6629 21.7298 18.8346 21.4415 18.816 20.9984C18.7857 20.2766 18.4314 19.5322 17.7761 19.1783C16.9279 18.7202 17.2705 19.8361 16.4905 19.7656C16.5307 19.6031 16.7519 19.6291 16.8274 19.5215C16.8481 19.4922 17.1092 18.9273 17.0879 18.9013L16.6904 19.1673L16.5909 18.7685C16.3381 18.9203 16.3518 19.3401 16.0251 19.3661C16.4971 18.6549 16.5414 18.2098 15.6635 17.8979C15.583 18.1526 15.2477 18.1715 15.1133 18.3207C15.0488 18.3923 15.0714 18.5088 14.9836 18.573C14.7498 18.7442 14.2461 18.6942 13.9654 18.7002L14.6919 18.3969C14.8116 18.2298 14.9397 18.072 15.0934 17.9342C15.1922 17.8456 15.4679 17.776 15.4267 17.6702C15.3781 17.5453 15.0754 17.4478 14.9587 17.3399C14.6876 17.0892 14.4644 16.5625 14.0938 16.3425L12.5034 15.7052C12.4898 15.5824 12.726 15.6377 12.7869 15.6546C13.058 15.7292 13.3344 15.9689 13.6654 15.9732L13.699 15.8404C13.2449 15.6883 12.6392 14.9219 12.2393 14.8054C12.0823 14.7597 11.9193 14.79 11.7686 14.7444C11.1752 14.5647 10.6942 14.3712 10.0446 14.3742L10.9527 14.2667L11.3066 14.3076C11.2397 14.2024 11.0744 14.0623 10.9583 14.028C10.7272 13.9594 10.0832 13.8732 9.81106 13.8432C9.56724 13.8162 9.29547 13.8615 9.04765 13.8419L9.80873 13.7067C10.2319 13.7517 10.8459 13.6098 11.2221 13.8222C11.3269 13.8815 11.3339 13.983 11.4127 14.0333C11.5574 14.1259 11.7673 14.1299 11.9054 14.2084C12.4399 14.5134 13.0619 14.9732 13.5316 15.3753C13.7365 15.5508 14.3606 16.2822 14.5342 16.3072C14.8582 16.3534 15.5887 15.7718 15.9516 15.6979C16.078 15.4988 15.5005 14.6279 15.3302 14.5064C15.1875 14.4045 14.974 14.3842 14.806 14.2993C14.5821 14.1865 14.4148 13.9191 14.0323 13.9764C14.3932 14.3972 14.8595 14.8463 14.8632 15.4396C13.9035 14.5034 13.2898 13.3249 11.8664 13.0495C11.2318 12.9267 10.3905 12.8891 9.75318 12.9853C9.33339 13.0485 8.94653 13.243 8.5161 13.243L10.1054 12.4063L11.0345 11.6682C11.0668 11.5684 10.792 10.51 10.7148 10.4251C10.6157 10.3156 10.2235 10.3712 10.0719 10.2546C9.98703 10.1897 9.82204 9.61177 9.84566 9.58347C10.148 9.60111 10.0825 10.0549 10.2425 10.1504C10.3885 10.2377 10.6307 10.1268 10.7767 10.2147C10.9337 10.3092 11.0022 10.9781 11.4403 10.8472L11.44 10.8476ZM14.2308 9.91639C13.8616 9.59878 13.8906 8.91762 13.3437 8.79511C12.876 9.38238 11.9679 9.32312 11.6732 10.0509C11.4094 10.7018 11.8794 10.8592 12.4373 10.9142C12.0667 10.5476 11.5228 10.8213 11.7068 10.0499C11.8328 10.1205 11.7783 10.3891 11.9253 10.4953C12.0248 10.5673 12.5174 10.5879 12.6721 10.7104C12.9798 10.5606 13.2738 10.3738 13.5882 10.237C13.8303 10.1318 14.4856 10.0326 14.5532 9.80253C14.627 9.55184 14.1733 8.71521 14.0319 8.85204L14.2305 9.91606L14.2308 9.91639ZM15.4051 10.9365C15.3771 10.8919 15.259 10.8745 15.2101 10.765C15.1729 10.6814 15.2467 10.5812 15.1686 10.481C14.8742 10.1042 14.2558 10.3169 13.8636 10.4464C13.4714 10.5759 12.5141 11.0304 12.4409 11.4838C12.3677 11.9372 12.6768 12.5781 13.1677 12.5778C13.2805 12.4782 12.8348 12.2016 12.7928 12.155C12.4895 11.8167 12.4828 11.5867 12.8028 11.2474C12.6817 11.9725 13.0919 11.9878 13.4668 12.4399C13.99 11.9675 15.1682 12.0015 15.6921 11.6116C16.1236 11.2907 15.8269 10.4068 15.3622 10.249C15.3442 10.5543 15.589 10.7231 15.6293 11.0124C15.6396 11.0863 15.6772 11.4339 15.5617 11.4465C15.575 11.2527 15.5052 11.0949 15.4054 10.9365H15.4051ZM17.1564 12.7116C17.2053 12.5135 16.9781 11.6702 16.862 11.5727C16.6624 11.4049 16.0364 11.8257 15.7946 11.9143C15.3492 12.0777 14.5708 12.2202 14.2126 12.3933C14.175 12.4116 13.7146 12.7795 13.695 12.8062C13.3357 13.2932 14.6696 13.777 14.7627 13.709C14.498 13.3651 13.7928 13.3775 13.8992 12.7782C14.1334 12.7566 13.9581 12.9806 14.1653 13.1434C14.2126 13.1807 15.0125 13.5666 15.0678 13.5739C15.265 13.6005 16.4629 13.4001 16.6694 13.3225C16.7832 13.2799 16.9638 13.1874 17.0573 13.1121C17.1002 13.0775 17.4671 12.6963 17.4771 12.6673C17.5243 12.5312 17.5998 11.4252 17.2223 11.5803C17.1145 11.6942 17.522 12.5538 17.1561 12.7113L17.1564 12.7116ZM6.98662 12.1127C6.74346 12.2635 6.63668 12.0647 6.48367 12.0504C5.67435 11.9758 5.03668 12.4866 4.34679 12.7629C3.99652 12.903 3.55877 12.97 3.19918 13.1114L3.68583 13.2183C4.00184 13.21 4.28891 13.0658 4.59095 13.0069C4.65914 12.9936 4.80883 12.9197 4.79319 13.0432C4.21506 13.3555 3.65423 13.4264 3.01157 13.5219L2.66696 14.6406C3.54978 14.5364 4.34047 13.743 5.16841 13.5985C5.2509 13.5842 5.37232 13.6441 5.52566 13.6168C5.75119 13.5769 6.4208 13.3462 6.6114 13.234C7.0598 12.9696 7.00026 12.5698 6.98629 12.1127H6.98662ZM17.9531 13.3109L17.821 12.0464C18.0023 12.4519 17.2599 13.3814 17.9531 13.3109ZM22.8712 13.5772C22.9214 13.6281 24.1152 13.4084 24.2816 13.3585C25.1913 13.0858 25.486 12.102 24.2317 12.1759C24.06 12.1859 23.4317 12.3624 23.3089 12.4513C23.0528 12.6374 23.3675 13.2786 23.0371 13.51L22.9034 12.6417L22.6057 12.6457C22.793 12.9267 22.9184 13.2316 22.8712 13.5772ZM20.2799 13.2443C20.3428 13.4337 20.397 14.2687 20.5204 14.3043C20.5909 14.3246 21.7791 13.996 21.9398 13.9414C22.1094 13.8838 22.5781 13.7107 22.6077 13.5419C22.642 13.3482 22.3206 12.5155 22.1736 12.909C22.3163 13.1244 22.4344 13.3778 22.4055 13.6431C22.2102 13.5176 22.0605 12.9696 21.8749 12.8774C21.6251 12.7536 21.0337 12.9973 20.7749 13.1081C20.6688 13.2689 20.8294 13.9514 20.5457 14.1092L20.4782 13.2436L20.2796 13.2443H20.2799ZM35.8178 17.9558C35.9253 17.7697 35.6083 15.8497 35.5211 15.5188C34.9836 13.476 32.8663 12.3494 30.8795 13.1101L20.4126 16.9054C20.6298 17.267 21.0712 17.3336 21.4042 17.5423C22.3276 18.1216 22.4048 18.5224 23.6369 18.6343C24.6701 18.7279 24.4692 18.4239 25.2662 19.1989C25.9201 19.8348 26.0722 19.8062 26.8133 20.2453C27.4343 20.6132 27.8278 21.0869 28.6212 21.1635C30.2754 21.3233 31.094 20.3395 32.4635 19.7546C32.8417 19.5931 33.2738 19.5182 33.6414 19.3368C34.3609 18.9812 35.0617 18.2937 35.8178 17.9561V17.9558ZM20.1468 14.5067C20.0557 14.1115 20.1073 13.6864 19.7706 13.3878C19.3096 13.3172 18.8665 13.4827 18.4258 13.5839L18.5508 14.7741L18.1899 13.8389L17.9538 13.6435C18.1064 13.9254 18.0476 14.2128 18.1374 14.4904C18.312 15.0311 18.7195 15.0141 19.1819 14.8396C19.5527 14.6998 19.76 13.8768 19.6156 13.5103C19.7354 13.5659 19.8461 13.8419 19.8661 13.9581C19.907 14.1958 19.8431 14.3509 19.8149 14.5743L20.1472 14.5064L20.1468 14.5067ZM16.2257 15.64C17.1541 15.6223 17.3836 14.1688 16.8504 13.5869C16.3461 13.7803 15.7257 13.6405 15.296 14.009C15.6529 14.4897 16.3078 14.9931 16.2254 15.6397L16.2257 15.64ZM17.4884 15.2408C17.6647 15.2531 17.9261 15.2132 17.9564 15.0058C17.9667 14.9359 17.6913 13.9008 17.6507 13.8462C17.5316 13.6854 17.2688 13.705 17.0892 13.7104C17.4651 14.1129 17.4698 14.7228 17.4884 15.2405V15.2408ZM2.13507 18.5348V19.4999C2.6633 19.1906 3.18055 18.7335 3.72708 18.4655C4.18047 18.2431 4.6791 18.1526 5.1398 17.9501C6.09647 17.5297 6.95801 16.8189 7.98753 16.5339C8.03377 16.3438 7.83585 15.4938 7.67618 15.4446L5.9897 15.8387L7.05315 15.2412L4.46155 15.8401L5.25822 15.9719C5.03003 15.9792 4.78188 16.0988 4.56034 16.1054C4.39303 16.1104 4.27328 16.0132 4.04276 16.0532C3.82854 16.0904 3.7497 16.4174 3.48093 16.4889C3.23877 16.5532 2.50496 16.5389 2.33332 16.6711C2.18164 16.7879 2.16035 17.7917 2.13407 18.036C2.27278 18.1755 3.44833 17.7837 3.66554 17.6725C3.89407 17.5553 4.05141 17.3609 4.24434 17.254C4.7087 16.9963 5.65805 16.7 6.18529 16.6015C6.25415 16.5885 6.40284 16.5136 6.38753 16.6378C6.01431 16.7716 5.53398 16.8848 5.18804 17.0676C4.80483 17.27 4.46288 17.6845 4.06138 17.8696C3.79161 17.9941 2.18031 18.3913 2.1344 18.5354L2.13507 18.5348ZM35.2337 23.2266C35.4872 23.0439 35.5497 22.4406 35.6116 22.1073C35.6632 21.8297 35.9259 20.0589 35.8325 19.965C35.2367 19.9453 34.5126 20.0752 33.9714 20.3315C33.7062 20.4574 33.5452 20.6731 33.3101 20.8006C32.8833 21.0323 31.9422 21.337 31.4619 21.4129C31.3911 21.4242 31.2307 21.4834 31.2467 21.3633C31.6206 21.2607 32.1215 21.1252 32.4582 20.9458C32.8035 20.7617 33.1504 20.3512 33.4887 20.1811C34.4474 19.6983 36.2084 19.9004 35.898 18.3017C35.8238 18.2205 34.2498 19.3544 34.0385 19.4673C33.5442 19.7309 33.0849 19.8125 32.5966 20.0199C31.6119 20.4374 30.7148 21.1985 29.6497 21.4611L29.5905 21.5384C29.5406 21.7018 29.7954 22.5425 29.8949 22.5654L31.6445 22.2289L30.5818 22.7599L33.1065 22.1606L32.3763 22.0291C32.7519 21.8866 33.3307 22.0431 33.6583 21.9632C33.7086 21.9509 33.7801 21.7684 33.8699 21.6945C34.2338 21.3936 34.9716 21.4921 35.433 21.3639L34.1047 21.9299L34.6014 21.9609C34.7421 21.9649 35.0824 21.7854 35.1672 21.9612C33.6341 22.5678 31.9815 22.7569 30.4257 23.3032C30.2278 23.3851 30.4151 23.735 30.151 23.7586C29.7445 23.4134 29.2472 21.9016 28.8364 21.6802C28.3667 21.4272 28.1339 21.6875 27.7759 21.6799C27.2863 21.6692 26.6822 21.2374 26.2258 21.2281C26.0003 21.2234 25.8692 21.337 25.664 21.3626C25.823 21.1023 26.3645 21.0373 26.6303 21.0616C26.784 21.0756 26.9473 21.2481 27.1077 21.2814C27.3255 21.3266 27.5687 21.2827 27.7906 21.2957L26.2322 20.2283C25.9474 20.0998 25.6643 20.1904 25.3743 20.2293C25.3227 20.5742 24.7902 20.4431 24.4778 20.5416C24.1232 20.6535 24.1242 21.0147 23.8029 21.0963C23.8807 20.2999 24.702 20.1851 25.3264 19.9603C25.4764 19.7423 24.6987 18.9729 24.4193 18.916C23.591 18.7472 23.1975 19.0328 22.2717 18.5374C21.9927 18.3879 21.842 18.1599 21.6427 18.0357C21.04 17.6602 20.5004 17.5297 20.0161 16.9357C19.903 16.7969 19.741 16.4304 19.6545 16.3668C19.3834 16.1683 18.7564 16.4623 18.7484 16.8006C18.7451 16.9414 18.8805 17.6742 18.9294 17.8243C19.0378 18.1562 19.5318 18.6822 19.8345 18.8474C20.6428 19.2885 20.3661 18.2032 21.1441 18.2358C20.7965 18.4645 20.6491 18.6882 20.5467 19.1004L20.9442 18.8344L20.9778 19.2998C21.1198 19.2632 21.4009 18.5664 21.5429 18.7019C21.1684 19.3987 20.9705 19.7549 21.8546 20.0885C21.9957 19.956 22.3739 19.8305 22.4733 19.7303C22.5448 19.658 22.5016 19.5602 22.622 19.4779C22.8579 19.3165 23.3864 19.2975 23.6692 19.3011L22.9414 19.6031C22.7045 19.9064 22.5013 20.1677 22.142 20.3322C22.775 20.6665 22.9839 21.311 23.5534 21.7128L25.1976 22.3627C25.2146 22.4802 25.0476 22.428 24.9811 22.4133C24.6378 22.3374 24.3221 22.0591 23.9353 22.0964C23.9799 22.1996 24.086 22.2861 24.1698 22.36C24.9016 23.0032 25.6121 23.3585 26.5761 23.5442C26.8722 23.6012 27.278 23.5775 27.5903 23.6271L26.6267 23.76L26.2618 23.6937L26.64 24.013C26.9204 23.9351 27.3575 24.1591 27.5577 24.1591H28.5879C28.5789 24.2547 28.2925 24.2753 28.2144 24.2843C27.8764 24.3233 26.611 24.3526 26.3739 24.2131C26.2721 24.1532 26.2524 24.0343 26.1493 23.972C25.3364 23.48 24.7878 23.2766 24.0011 22.5961C23.8255 22.4443 23.2154 21.7408 23.0897 21.7065C22.9443 21.6666 21.7621 22.2728 21.7073 22.3617C21.5546 22.6091 22.0708 23.3754 22.2747 23.5263C22.3978 23.6171 22.7441 23.7327 22.9184 23.8136C23.122 23.9081 23.2061 24.1232 23.5364 24.026L22.9477 23.3182L22.7052 22.5628C23.583 23.3988 24.227 24.5889 25.4754 24.9132C26.649 25.2182 27.909 25.1053 29.0526 24.7594C28.2383 25.359 27.2354 25.6187 26.5408 26.3967L26.8549 27.5749C26.966 27.7394 27.3395 27.6289 27.5225 27.7887C27.6795 27.9258 27.6499 28.2481 27.7899 28.4186C27.5058 28.4472 27.4736 27.9625 27.3468 27.8816C27.1798 27.775 26.8911 27.8629 26.803 27.8096C26.7527 27.7793 26.5388 27.0356 26.1949 27.1551C26.2724 27.4554 26.3166 27.8273 26.1996 28.1246C26.0505 28.5031 25.3493 28.7082 25.6144 29.1989L25.7625 29.2845H26.8924C26.9031 29.2845 27.0867 29.2192 27.0581 29.1523C26.628 29.0781 26.2554 29.2529 25.9288 28.8194C26.5206 28.91 27.1296 29.0977 27.7021 28.8307C28.5124 28.4525 29.1763 27.5902 29.7172 26.9221C29.8503 26.7576 30.1759 26.5079 30.2481 26.3221C30.3709 26.0062 29.7515 26.5708 29.7142 26.5875C29.6005 26.6374 29.4465 26.6008 29.3952 26.6324C29.326 26.675 29.3566 26.9936 29.2515 27.1212C29.1754 27.2137 28.8573 27.3728 28.7206 27.3542C28.7712 27.1981 28.9671 27.1831 29.0383 27.0406C29.1095 26.8981 29.0779 26.6125 29.1537 26.4906C29.2296 26.3688 30.0818 25.9836 30.2132 25.628C30.2761 25.4579 30.0336 24.9342 30.4464 24.7261C30.447 24.6226 29.9767 24.4644 30.1819 24.3922C30.3379 24.3373 30.5272 24.3629 30.7045 24.3166C31.9123 24.0027 34.0738 23.1301 35.2341 23.2286C34.927 23.45 34.123 23.6391 33.7242 23.8129C33.4125 23.9487 33.0835 24.251 32.679 24.3636C32.1615 24.5074 31.5471 24.4817 31.0228 24.7681C30.6094 24.9941 30.4753 25.4619 30.6493 25.891C31.0025 25.7032 30.96 25.9669 31.1027 25.9896C32.0474 26.1384 33.3736 25.0028 34.3702 24.9582C34.0469 24.6219 33.4421 24.9485 33.0573 25.0088C32.9864 25.0198 32.8264 25.0797 32.842 24.9595C33.5249 24.6053 34.2558 24.5943 34.9929 24.4328L35.3658 23.2606C35.3794 23.2043 35.2833 23.2326 35.2341 23.2286L35.2337 23.2266ZM17.2885 21.296C17.4614 21.0576 16.0464 20.4034 15.8714 20.2869C15.579 20.0922 15.3286 19.7739 15.0076 19.6211C14.3865 19.3254 13.8849 19.4999 13.2675 19.4336C12.572 19.3587 12.4216 18.7798 11.9659 18.4079C11.6283 18.1323 11.0355 17.9435 10.622 17.6905C10.1357 17.3928 9.89589 17.0376 9.26287 16.9217C8.76657 16.8309 7.94695 16.8765 7.47061 17.023C6.84325 17.216 6.00467 17.8862 5.37032 18.1809C4.8371 18.4282 4.28425 18.5338 3.75203 18.8234C3.19586 19.126 2.6949 19.5775 2.13407 19.8801C2.2312 20.8309 2.27045 21.9306 2.55253 22.8424C3.08475 24.5636 5.044 25.5974 6.77273 25.1096L17.2881 21.2967L17.2885 21.296ZM21.3427 22.362C20.4156 22.4955 20.2842 23.7663 20.7216 24.4301C20.9648 24.3343 22.2222 24.2883 22.2737 24.0569C21.981 23.4846 21.3088 23.0688 21.3427 22.3617V22.362ZM20.4788 24.291C20.1019 23.8975 20.1814 23.3218 20.1156 22.8248C20.0314 22.688 19.6342 22.8374 19.6479 23.1011C19.6522 23.189 19.9177 24.1372 19.9522 24.1868C20.0727 24.3586 20.2899 24.2803 20.4788 24.291ZM19.6815 24.3576C19.3219 23.6494 19.584 22.7895 18.4161 23.191C18.0525 23.3159 17.8417 24.1498 18.0199 24.4907C17.8516 24.5237 17.9022 24.4598 17.853 24.3619C17.696 24.0499 17.7648 23.765 17.7538 23.4267L17.4901 23.4966C17.5543 23.9218 17.4937 24.7165 18.1094 24.6865C18.2268 24.6808 19.1542 24.4714 19.1882 24.4275L19.0844 23.3601L19.4224 24.252L19.6821 24.3572L19.6815 24.3576ZM17.0886 23.8925C17.1208 24.0536 16.9818 24.8809 17.2545 24.824C17.4412 24.6981 17.2565 24.5021 17.2273 24.3199C17.2007 24.1535 17.2921 23.8256 17.1128 23.7663C17.013 23.7333 15.8964 24.0127 15.7081 24.0733C14.9424 24.3199 14.8535 24.4481 15.2371 25.2142L15.4283 25.1892C15.3276 24.9265 15.1689 24.7304 15.2291 24.4248L15.7377 25.1453C16.1106 25.2002 16.4905 25.0797 16.8251 24.9252C17.0157 24.7371 16.717 24.0629 17.0886 23.8918V23.8925ZM20.4785 25.2901C20.4925 25.3983 20.4096 25.4845 20.4086 25.5897C20.4083 25.6317 20.6591 26.3478 20.6834 26.3831C20.8853 26.6767 21.4448 26.2496 21.7073 26.154C22.4088 25.898 23.4034 25.7632 23.9037 25.2252C24.2327 24.8716 23.3864 24.4305 23.1007 24.3626C23.0641 24.3539 22.8053 24.3156 22.9048 24.4255C23.1745 24.6186 23.9888 24.8336 23.6362 25.2901C23.5847 25.0853 23.587 24.9885 23.4011 24.8609C22.6769 24.3642 22.153 24.4385 21.337 24.6003C20.4958 24.7671 19.9034 25.3344 20.0806 26.2562C20.1093 26.4044 20.221 26.4333 20.3464 26.4883C20.4512 26.0964 20.0547 25.5245 20.4795 25.2904L20.4785 25.2901ZM14.6965 24.4245C13.9494 24.6222 12.3834 24.5134 12.6009 25.6919C13.2037 26.0135 13.831 25.7329 14.4228 25.5484C14.5099 25.4492 14.309 24.7148 14.5309 24.5583L14.6896 25.3846L14.962 25.4229L14.6962 24.4248L14.6965 24.4245ZM19.3492 24.7574V35.9383L19.9479 35.871C19.8801 35.313 19.7833 34.7354 19.7487 34.1741C19.5883 31.5544 19.6845 28.878 19.7507 26.2579C19.76 25.8937 19.8042 25.1786 19.7477 24.858C19.7347 24.7837 19.7207 24.7271 19.6426 24.6981L19.3488 24.7577L19.3492 24.7574ZM18.6846 24.8906H18.2854L18.3516 30.3808L18.2884 33.5119L18.0958 35.8624L18.6842 35.9383V24.8906H18.6846ZM12.3578 25.8337L5.17174 28.4305C5.10421 28.4678 5.05165 28.4805 5.06596 28.5757C5.08026 28.6709 6.10146 29.934 6.25747 30.1131C8.73231 32.9566 12.221 34.9761 15.9473 35.651C16.2051 35.6976 17.5739 35.9256 17.692 35.8427L17.9561 32.9796L17.9221 25.0201C17.8789 24.9455 17.2748 25.0907 17.1544 25.122C16.1538 25.384 15.0967 25.7638 14.0991 25.9889C13.6301 26.0948 13.0882 26.2389 12.6239 26.0665C12.4239 25.9922 12.375 25.8411 12.3581 25.8334L12.3578 25.8337ZM20.2799 35.8714C26.6323 35.4465 32.4874 31.1179 34.7015 25.1566C34.0499 25.3583 33.4062 25.5944 32.7768 25.8574C32.2835 26.0635 30.5269 26.7603 30.2484 26.986C29.3536 27.7108 28.68 28.6932 27.6109 29.2698C27.1053 29.5425 25.8659 29.914 25.2961 29.948C24.9319 29.9696 23.6 29.6187 23.3036 29.4163C22.8153 29.0831 22.9241 28.5417 22.7045 28.2857C22.5808 28.1416 22.163 28.0883 21.9611 27.9654C21.5499 27.7154 21.3763 27.1451 21.4095 26.6874C20.9236 26.8229 20.557 27.0036 20.0813 26.6874C20.0361 28.4002 19.9662 30.1268 20.0115 31.848C20.0155 32.0055 20.0783 32.151 20.0833 32.3084C20.1226 33.4993 20.1039 34.6878 20.2802 35.8714H20.2799ZM22.4174 27.6086C22.5528 27.8419 23.3033 27.7154 23.5378 27.6542C24.4569 27.4141 25.7418 26.7093 24.864 25.6583C24.5843 25.3234 24.3088 25.4412 24.5989 25.7235C24.9831 26.0974 25.2668 26.3258 24.7655 26.8205C24.7399 26.5948 24.8703 26.3924 24.7645 26.1563C24.6854 25.9799 24.2496 25.8983 24.1615 25.627C23.6149 26.0159 22.4001 26.0548 21.9062 26.4197C21.3041 26.8645 22.1191 27.8692 22.2065 27.7527C22.2661 27.4634 21.9727 27.2317 21.9428 26.981C21.9301 26.8755 21.9348 26.5828 22.0738 26.5552C21.9351 26.9444 22.295 27.0429 22.3729 27.221C22.4334 27.3595 22.3759 27.5363 22.4178 27.6089L22.4174 27.6086ZM25.7059 28.3277C26.2428 27.788 26.0861 27.2234 25.2958 27.1538C25.1448 27.1405 25.1245 27.1817 25.2805 27.236C25.7262 27.3908 26.002 27.3286 25.9281 27.9518C25.7828 27.9039 25.7897 27.5919 25.6637 27.519C25.6301 27.4994 24.9548 27.3485 24.9053 27.3535C24.7057 27.3732 24.1102 27.7434 23.8671 27.8513C23.6499 27.9478 23.0634 28.0194 23.0179 28.2611C22.9912 28.4036 23.2747 29.0428 23.437 29.1497C23.5847 29.2026 23.4702 28.8254 23.4623 28.7911C23.4144 28.5907 23.1865 28.299 23.4686 28.1519C23.6549 28.5837 23.7859 29.0451 24.2343 29.2715C24.5892 28.7511 25.3131 28.7222 25.7053 28.3277H25.7059Z" fill="white"/>
</g>
<defs>
<clipPath id="clip0_406_692">
<rect width="38" height="38" fill="white"/>
</clipPath>
</defs>
</svg>
