<svg width="18" height="25" viewBox="0 0 18 25" fill="none" xmlns="http://www.w3.org/2000/svg">
<g clip-path="url(#clip0_148_2228)">
<path d="M5.18726 18.5127C5.89206 19.3973 6.53356 20.3291 7.10713 21.3013C7.59681 22.2156 7.80094 22.8357 8.1588 23.9374C8.37828 24.5461 8.57663 24.7277 9.00309 24.7277C9.4678 24.7277 9.67864 24.4187 9.84154 23.9407C10.1798 22.9003 10.4452 22.1062 10.864 21.356C11.6857 19.9075 12.7068 18.6203 13.71 17.3832C13.9816 17.0331 15.7377 14.9933 16.5282 13.3839C16.5282 13.3839 17.4999 11.616 17.4999 9.14683C17.4999 6.8372 16.5417 5.23535 16.5417 5.23535L13.7828 5.96294L12.1074 10.3085L11.6929 10.9077L11.61 11.0163L11.4998 11.1522L11.3063 11.3692L11.0297 11.6415L9.5378 12.8384L5.80776 14.9593L5.18726 18.5127Z" fill="#34A853"/>
<path d="M1.33752 13.0863C2.24789 15.1341 4.0034 16.9341 5.19115 18.5138L11.4998 11.1546C11.4998 11.1546 10.611 12.2993 8.99881 12.2993C7.20299 12.2993 5.75221 10.8871 5.75221 9.1064C5.75221 7.88527 6.49822 7.04639 6.49822 7.04639L2.21575 8.17641L1.33752 13.0863Z" fill="#FBBC04"/>
<path d="M11.5703 1.1123C13.6655 1.77757 15.4589 3.17421 16.5436 5.2337L11.5017 11.1505C11.5017 11.1505 12.2477 10.2965 12.2477 9.08292C12.2477 7.26075 10.6896 5.89949 9.00645 5.89949C7.41476 5.89949 6.50061 7.04227 6.50061 7.04227V3.31475L11.5703 1.1123Z" fill="#4285F4"/>
<path d="M2.49316 3.72669C3.74459 2.25223 5.94662 0.733887 8.98245 0.733887C10.4553 0.733887 11.565 1.11468 11.565 1.11468L6.4958 7.04556H2.90422L2.49316 3.72669Z" fill="#1A73E8"/>
<path d="M1.33752 13.0864C1.33752 13.0864 0.5 11.4712 0.5 9.1314C0.5 6.91994 1.37298 4.98686 2.49318 3.72656L6.49868 7.04595L1.33752 13.0864Z" fill="#EA4335"/>
</g>
<defs>
<clipPath id="clip0_148_2228">
<rect width="17" height="24" fill="white" transform="translate(0.5 0.733887)"/>
</clipPath>
</defs>
</svg>
