<svg width="77" height="21" viewBox="0 0 77 21" fill="none" xmlns="http://www.w3.org/2000/svg">
<path d="M20.424 0.804833V20.9548H14.106V8.47483L12.91 10.8928L10.362 10.8668L7.814 10.8928L6.618 8.47483V20.9548H0.3V0.804833H8.048L10.362 5.58883L12.676 0.804833H20.424ZM25.6246 5.84883H36.5186C37.9746 5.84883 39.1186 7.01883 39.1186 8.44883V13.0508C39.1186 14.4808 37.9746 15.6508 36.5186 15.6508H29.3426V16.4308H39.1186V18.3548C39.1186 19.7848 37.9746 20.9548 36.5186 20.9548H25.6246C24.1946 20.9548 23.0246 19.7848 23.0246 18.3548V8.44883C23.0246 7.01883 24.1946 5.84883 25.6246 5.84883ZM29.3426 11.1528H32.8006V10.3468H29.3426V11.1528ZM41.7121 5.84883H55.2321C56.6621 5.84883 57.8321 7.01883 57.8321 8.44883V20.9548H51.4881V12.1928H48.0561V20.9548H41.7121V5.84883ZM66.769 14.6108H70.201V5.84883H76.545V18.3548C76.545 19.7848 75.375 20.9548 73.945 20.9548H63.025C61.595 20.9548 60.425 19.7848 60.425 18.3548V5.84883H66.769V14.6108Z" fill="#F0BD22"/>
</svg>
