<svg width="428" height="400" viewBox="0 0 428 400" fill="none" xmlns="http://www.w3.org/2000/svg">
<rect width="428" height="400" fill="#CDCDCD"/>
<path d="M86.524 182.76H89.296V194.424H86.524V182.76ZM74.428 184.92L76.768 183.876C77.416 184.596 78.052 185.388 78.676 186.252C79.324 187.092 79.9 187.932 80.404 188.772C80.932 189.588 81.34 190.344 81.628 191.04L79.144 192.228C78.88 191.556 78.484 190.8 77.956 189.96C77.452 189.096 76.888 188.22 76.264 187.332C75.664 186.444 75.052 185.64 74.428 184.92ZM98.98 183.66L101.644 184.632C101.116 185.496 100.54 186.396 99.916 187.332C99.316 188.244 98.704 189.132 98.08 189.996C97.456 190.836 96.868 191.592 96.316 192.264L94.048 191.328C94.624 190.656 95.212 189.876 95.812 188.988C96.436 188.1 97.024 187.188 97.576 186.252C98.152 185.292 98.62 184.428 98.98 183.66ZM81.376 199.428H83.86V212.028H81.376V199.428ZM82.852 199.428H94.624V209.724H82.852V207.384H92.104V201.768H82.852V199.428ZM74.356 193.308H100.744V195.828H77.056V215.88H74.356V193.308ZM99.124 193.308H101.788V212.496C101.788 213.264 101.68 213.864 101.464 214.296C101.272 214.752 100.888 215.1 100.312 215.34C99.76 215.532 98.992 215.652 98.008 215.7C97.024 215.748 95.824 215.772 94.408 215.772C94.336 215.388 94.216 214.944 94.048 214.44C93.88 213.936 93.688 213.504 93.472 213.144C94.6 213.168 95.62 213.18 96.532 213.18C97.444 213.204 98.056 213.204 98.368 213.18C98.68 213.18 98.884 213.12 98.98 213C99.076 212.904 99.124 212.724 99.124 212.46V193.308ZM108.232 197.556H139.912V200.22H108.232V197.556ZM110.788 188.664H137.464V191.328H110.788V188.664ZM122.524 182.796H125.368V215.88H122.524V182.796ZM121.84 198.924L124.144 199.896C123.304 201.336 122.308 202.74 121.156 204.108C120.004 205.476 118.768 206.772 117.448 207.996C116.152 209.196 114.796 210.3 113.38 211.308C111.988 212.292 110.596 213.144 109.204 213.864C109.036 213.648 108.832 213.396 108.592 213.108C108.376 212.82 108.148 212.544 107.908 212.28C107.668 211.992 107.44 211.764 107.224 211.596C108.592 210.972 109.972 210.204 111.364 209.292C112.78 208.38 114.136 207.372 115.432 206.268C116.728 205.14 117.916 203.952 118.996 202.704C120.1 201.456 121.048 200.196 121.84 198.924ZM126.052 198.924C126.844 200.196 127.792 201.456 128.896 202.704C130.024 203.928 131.236 205.116 132.532 206.268C133.828 207.396 135.184 208.416 136.6 209.328C138.016 210.216 139.408 210.96 140.776 211.56C140.584 211.752 140.356 211.98 140.092 212.244C139.852 212.508 139.612 212.784 139.372 213.072C139.156 213.36 138.964 213.636 138.796 213.9C137.428 213.18 136.036 212.316 134.62 211.308C133.204 210.3 131.836 209.184 130.516 207.96C129.196 206.736 127.96 205.44 126.808 204.072C125.68 202.704 124.684 201.312 123.82 199.896L126.052 198.924ZM159.208 190.788V193.632H171.232V190.788H159.208ZM159.208 186V188.844H171.232V186H159.208ZM156.724 183.948H173.824V195.72H156.724V183.948ZM155.104 198.312H175.804V200.58H155.104V198.312ZM163.924 199.428H166.48V214.152L163.924 213.108V199.428ZM159.1 206.052C159.748 208.044 160.588 209.532 161.62 210.516C162.676 211.5 163.9 212.148 165.292 212.46C166.708 212.772 168.256 212.928 169.936 212.928C170.152 212.928 170.572 212.928 171.196 212.928C171.82 212.928 172.516 212.928 173.284 212.928C174.052 212.928 174.772 212.928 175.444 212.928C176.116 212.928 176.62 212.916 176.956 212.892C176.836 213.084 176.716 213.324 176.596 213.612C176.476 213.9 176.38 214.2 176.308 214.512C176.236 214.824 176.176 215.1 176.128 215.34H174.652H169.828C168.316 215.34 166.924 215.22 165.652 214.98C164.38 214.764 163.228 214.356 162.196 213.756C161.164 213.156 160.252 212.292 159.46 211.164C158.668 210.012 157.996 208.524 157.444 206.7L159.1 206.052ZM165.688 204.828H174.04V207.06H165.688V204.828ZM157.444 202.308L159.928 202.596C159.568 205.548 158.908 208.14 157.948 210.372C156.988 212.58 155.692 214.416 154.06 215.88C153.94 215.712 153.748 215.52 153.484 215.304C153.22 215.112 152.956 214.908 152.692 214.692C152.452 214.5 152.236 214.356 152.044 214.26C153.652 212.988 154.876 211.344 155.716 209.328C156.58 207.288 157.156 204.948 157.444 202.308ZM143.044 201.876C144.436 201.516 146.116 201.036 148.084 200.436C150.052 199.812 152.044 199.188 154.06 198.564L154.42 201.012C152.572 201.636 150.712 202.26 148.84 202.884C146.968 203.484 145.264 204.036 143.728 204.54L143.044 201.876ZM143.44 190.032H154.42V192.552H143.44V190.032ZM147.904 182.796H150.424V212.496C150.424 213.24 150.328 213.804 150.136 214.188C149.968 214.596 149.656 214.908 149.2 215.124C148.768 215.34 148.192 215.484 147.472 215.556C146.752 215.628 145.816 215.652 144.664 215.628C144.64 215.316 144.544 214.908 144.376 214.404C144.232 213.924 144.076 213.504 143.908 213.144C144.676 213.168 145.372 213.18 145.996 213.18C146.644 213.18 147.076 213.168 147.292 213.144C147.508 213.144 147.664 213.096 147.76 213C147.856 212.928 147.904 212.76 147.904 212.496V182.796ZM187.684 182.832L190.24 183.624C189.448 185.664 188.524 187.68 187.468 189.672C186.412 191.64 185.272 193.5 184.048 195.252C182.848 197.004 181.588 198.552 180.268 199.896C180.196 199.68 180.064 199.404 179.872 199.068C179.704 198.732 179.512 198.396 179.296 198.06C179.104 197.7 178.924 197.412 178.756 197.196C179.932 196.044 181.072 194.7 182.176 193.164C183.28 191.628 184.3 189.984 185.236 188.232C186.196 186.456 187.012 184.656 187.684 182.832ZM183.832 192.156L186.46 189.564L186.496 189.6V215.808H183.832V192.156ZM190.06 190.464H212.164V193.056H190.06V190.464ZM189.16 201.948H212.56V204.576H189.16V201.948ZM194.704 183.156H197.332V203.352H194.704V183.156ZM204.352 183.12H207.016V203.388H204.352V183.12ZM195.424 206.592L198.016 207.42C197.416 208.452 196.732 209.484 195.964 210.516C195.196 211.524 194.392 212.484 193.552 213.396C192.712 214.308 191.884 215.1 191.068 215.772C190.9 215.628 190.684 215.448 190.42 215.232C190.18 215.016 189.916 214.8 189.628 214.584C189.364 214.368 189.124 214.2 188.908 214.08C190.156 213.144 191.368 212.016 192.544 210.696C193.72 209.352 194.68 207.984 195.424 206.592ZM203.632 207.924L205.756 206.7C206.572 207.468 207.388 208.32 208.204 209.256C209.044 210.192 209.812 211.116 210.508 212.028C211.204 212.916 211.756 213.72 212.164 214.44L209.896 215.88C209.512 215.136 208.972 214.296 208.276 213.36C207.604 212.448 206.86 211.512 206.044 210.552C205.228 209.592 204.424 208.716 203.632 207.924ZM216.484 186.18H247.624V188.664H216.484V186.18ZM230.488 182.76H233.26V187.584H230.488V182.76ZM217.996 192.48H245.176V194.856H220.588V215.844H217.996V192.48ZM243.736 192.48H246.364V212.532C246.364 213.324 246.256 213.948 246.04 214.404C245.824 214.86 245.428 215.196 244.852 215.412C244.252 215.628 243.448 215.76 242.44 215.808C241.432 215.856 240.184 215.88 238.696 215.88C238.648 215.64 238.576 215.364 238.48 215.052C238.384 214.74 238.276 214.416 238.156 214.08C238.036 213.768 237.904 213.492 237.76 213.252C238.936 213.276 240.016 213.288 241 213.288C241.984 213.312 242.632 213.312 242.944 213.288C243.256 213.264 243.46 213.192 243.556 213.072C243.676 212.976 243.736 212.796 243.736 212.532V192.48ZM227.068 194.208H229.552C229.432 195.792 229.144 197.136 228.688 198.24C228.232 199.344 227.476 200.256 226.42 200.976C225.388 201.696 223.948 202.272 222.1 202.704C222.004 202.416 221.824 202.08 221.56 201.696C221.296 201.312 221.044 201.012 220.804 200.796C222.412 200.46 223.648 200.016 224.512 199.464C225.4 198.912 226.024 198.216 226.384 197.376C226.744 196.536 226.972 195.48 227.068 194.208ZM233.764 194.244H236.176V198.42C236.176 198.756 236.236 198.972 236.356 199.068C236.476 199.164 236.764 199.212 237.22 199.212C237.316 199.212 237.508 199.212 237.796 199.212C238.084 199.212 238.396 199.212 238.732 199.212C239.092 199.212 239.416 199.212 239.704 199.212C240.016 199.212 240.244 199.212 240.388 199.212C240.628 199.212 240.808 199.164 240.928 199.068C241.072 198.972 241.18 198.756 241.252 198.42C241.324 198.06 241.372 197.532 241.396 196.836C241.636 197.004 241.96 197.172 242.368 197.34C242.776 197.484 243.148 197.592 243.484 197.664C243.364 199.104 243.1 200.076 242.692 200.58C242.308 201.06 241.636 201.3 240.676 201.3C240.556 201.3 240.316 201.3 239.956 201.3C239.62 201.3 239.236 201.3 238.804 201.3C238.396 201.3 238.012 201.3 237.652 201.3C237.316 201.3 237.076 201.3 236.932 201.3C236.092 201.3 235.444 201.216 234.988 201.048C234.532 200.88 234.208 200.592 234.016 200.184C233.848 199.776 233.764 199.2 233.764 198.456V194.244ZM225.304 203.136H227.752V214.224H225.304V203.136ZM226.78 203.136H239.02V211.992H226.78V209.868H236.536V205.26H226.78V203.136ZM223.396 188.628L225.988 188.124C226.42 188.796 226.816 189.54 227.176 190.356C227.56 191.172 227.848 191.892 228.04 192.516L225.268 193.164C225.124 192.54 224.872 191.808 224.512 190.968C224.152 190.104 223.78 189.324 223.396 188.628ZM237.868 188.016L240.82 188.556C240.412 189.396 239.98 190.224 239.524 191.04C239.092 191.856 238.684 192.552 238.3 193.128L235.672 192.588C236.056 191.964 236.452 191.22 236.86 190.356C237.268 189.468 237.604 188.688 237.868 188.016ZM260.872 186.864V193.704H275.236V186.864H260.872ZM258.244 184.308H278.008V196.296H258.244V184.308ZM252.988 200.148H265.804V215.556H263.104V202.704H255.58V215.88H252.988V200.148ZM269.764 200.148H283.3V215.664H280.564V202.704H272.356V215.88H269.764V200.148ZM254.176 211.308H264.22V213.936H254.176V211.308ZM271.06 211.308H281.752V213.936H271.06V211.308ZM289.348 184.308H291.904V206.772H289.348V184.308ZM290.716 184.308H299.824V204.936H290.716V202.488H297.304V186.72H290.716V184.308ZM290.68 193.056H298.6V195.432H290.68V193.056ZM301.408 184.236H317.536V186.648H301.408V184.236ZM316.672 184.236H319.264C319.264 184.236 319.252 184.368 319.228 184.632C319.228 184.896 319.216 185.112 319.192 185.28C319.096 187.008 318.976 188.436 318.832 189.564C318.712 190.668 318.556 191.532 318.364 192.156C318.196 192.756 317.992 193.2 317.752 193.488C317.464 193.776 317.152 193.98 316.816 194.1C316.48 194.22 316.084 194.304 315.628 194.352C315.22 194.376 314.644 194.388 313.9 194.388C313.156 194.388 312.364 194.364 311.524 194.316C311.5 193.98 311.428 193.608 311.308 193.2C311.188 192.768 311.032 192.396 310.84 192.084C311.632 192.156 312.364 192.204 313.036 192.228C313.708 192.228 314.188 192.228 314.476 192.228C314.716 192.228 314.92 192.216 315.088 192.192C315.28 192.144 315.436 192.06 315.556 191.94C315.748 191.748 315.904 191.4 316.024 190.896C316.144 190.368 316.252 189.6 316.348 188.592C316.468 187.584 316.576 186.264 316.672 184.632V184.236ZM307.672 184.992H310.336C310.192 186.312 309.94 187.524 309.58 188.628C309.244 189.708 308.752 190.692 308.104 191.58C307.48 192.444 306.652 193.212 305.62 193.884C304.588 194.556 303.304 195.132 301.768 195.612C301.624 195.3 301.396 194.94 301.084 194.532C300.796 194.124 300.52 193.812 300.256 193.596C301.624 193.188 302.764 192.72 303.676 192.192C304.588 191.664 305.308 191.052 305.836 190.356C306.364 189.636 306.772 188.832 307.06 187.944C307.348 187.056 307.552 186.072 307.672 184.992ZM305.008 198.348V203.82H315.556V198.348H305.008ZM302.488 196.08H318.22V206.088H302.488V196.08ZM298.24 208.5L300.724 208.248C300.964 209.4 301.168 210.648 301.336 211.992C301.504 213.336 301.6 214.452 301.624 215.34L298.996 215.736C298.996 215.136 298.96 214.416 298.888 213.576C298.816 212.76 298.732 211.908 298.636 211.02C298.54 210.132 298.408 209.292 298.24 208.5ZM305.944 208.392L308.464 207.924C308.8 208.692 309.124 209.508 309.436 210.372C309.748 211.212 310.024 212.052 310.264 212.892C310.504 213.708 310.684 214.44 310.804 215.088L308.14 215.664C308.02 215.04 307.852 214.308 307.636 213.468C307.42 212.628 307.168 211.764 306.88 210.876C306.592 209.988 306.28 209.16 305.944 208.392ZM313.288 208.212L315.736 207.204C316.312 207.972 316.9 208.824 317.5 209.76C318.124 210.672 318.688 211.572 319.192 212.46C319.72 213.324 320.128 214.104 320.416 214.8L317.86 215.952C317.572 215.256 317.176 214.452 316.672 213.54C316.192 212.652 315.652 211.74 315.052 210.804C314.452 209.868 313.864 209.004 313.288 208.212ZM292.264 207.456L294.856 208.212C294.208 209.556 293.464 210.948 292.624 212.388C291.784 213.804 290.956 215.028 290.14 216.06L287.548 214.908C288.1 214.308 288.664 213.6 289.24 212.784C289.816 211.944 290.368 211.068 290.896 210.156C291.424 209.244 291.88 208.344 292.264 207.456ZM329.884 192.084H354.508V194.856H329.884V192.084ZM341.512 182.796H344.356V193.344H341.512V182.796ZM328.48 183.696H331.288V195.684C331.288 197.484 331.216 199.284 331.072 201.084C330.952 202.884 330.7 204.648 330.316 206.376C329.932 208.104 329.356 209.772 328.588 211.38C327.82 212.988 326.788 214.512 325.492 215.952C325.348 215.712 325.144 215.46 324.88 215.196C324.64 214.956 324.388 214.704 324.124 214.44C323.86 214.2 323.608 213.996 323.368 213.828C324.904 212.124 326.032 210.276 326.752 208.284C327.472 206.292 327.94 204.228 328.156 202.092C328.372 199.956 328.48 197.82 328.48 195.684V183.696ZM329.776 200.616H348.964V215.88H346.048V203.388H329.776V200.616Z" fill="black"/>
</svg>
