<svg width="296" height="296" viewBox="0 0 296 296" fill="none" xmlns="http://www.w3.org/2000/svg">
<path d="M222.001 123.333H172.667V74.0002C172.667 67.4582 170.069 61.1841 165.443 56.5582C160.817 51.9323 154.543 49.3335 148.001 49.3335C141.459 49.3335 135.185 51.9323 130.559 56.5582C125.933 61.1841 123.334 67.4582 123.334 74.0002L124.21 123.333H74.0007C67.4586 123.333 61.1846 125.932 56.5587 130.558C51.9328 135.184 49.334 141.458 49.334 148C49.334 154.542 51.9328 160.816 56.5587 165.442C61.1846 170.068 67.4586 172.667 74.0007 172.667L124.21 171.791L123.334 222C123.334 228.542 125.933 234.816 130.559 239.442C135.185 244.068 141.459 246.667 148.001 246.667C154.543 246.667 160.817 244.068 165.443 239.442C170.069 234.816 172.667 228.542 172.667 222V171.791L222.001 172.667C228.543 172.667 234.817 170.068 239.443 165.442C244.069 160.816 246.667 154.542 246.667 148C246.667 141.458 244.069 135.184 239.443 130.558C234.817 125.932 228.543 123.333 222.001 123.333Z" fill="white"/>
</svg>
