<svg width="12" height="170" viewBox="0 0 12 170" fill="none" xmlns="http://www.w3.org/2000/svg">
<path d="M11.0554 8.86942H0.826455L5.94092 0.011596L11.0554 8.86942ZM6.71353 14.3426C6.92392 15.0535 7.2141 15.6883 7.58408 16.2469C7.96132 16.8055 8.44737 17.2734 9.04225 17.6507C9.63712 18.0279 10.3626 18.3072 11.2186 18.4886C11.0953 18.6046 10.9647 18.757 10.8269 18.9456C10.689 19.127 10.5548 19.3156 10.4242 19.5114C10.3009 19.7073 10.1994 19.8851 10.1196 20.0447C9.1692 19.7835 8.37846 19.4135 7.74731 18.9347C7.11616 18.4487 6.59746 17.8502 6.1912 17.1392C5.78495 16.4283 5.44036 15.6012 5.15743 14.6581L6.71353 14.3426ZM1.40319 13.6679H10.5222V15.3002H1.40319V13.6679ZM1.06586 10.3489H10.816V11.9812H1.06586V10.3489ZM4.98332 10.7842H6.68089V13.5373C6.68089 14.0016 6.64462 14.4877 6.57207 14.9955C6.50678 15.496 6.3762 15.993 6.18032 16.4863C5.9917 16.9723 5.7124 17.4403 5.34242 17.8901C4.97244 18.3398 4.49001 18.7497 3.89514 19.1197C3.30752 19.4897 2.57481 19.8016 1.697 20.0555C1.63897 19.9177 1.55191 19.7581 1.43584 19.5767C1.32702 19.4026 1.20732 19.2285 1.07674 19.0544C0.946156 18.8803 0.826455 18.7388 0.717637 18.63C1.47211 18.4269 2.10326 18.1802 2.61108 17.8901C3.12615 17.5926 3.53966 17.2662 3.85161 16.9107C4.17081 16.548 4.41021 16.1743 4.56981 15.7899C4.72941 15.4054 4.83823 15.0209 4.89627 14.6364C4.9543 14.2446 4.98332 13.8747 4.98332 13.5264V10.7842ZM1.04409 20.4904H10.8486V22.09H1.04409V20.4904ZM4.85274 21.9703H6.56119V30.0011H4.85274V21.9703ZM5.74505 24.6473L6.83323 23.3741C7.11616 23.5119 7.42448 23.6715 7.75819 23.8529C8.0919 24.0343 8.42561 24.2229 8.75932 24.4187C9.10029 24.6146 9.41949 24.8105 9.71692 25.0064C10.0144 25.195 10.2646 25.3763 10.4678 25.5505L9.28165 27.0086C9.10029 26.8345 8.86814 26.6459 8.58521 26.4428C8.30954 26.2324 8.00847 26.022 7.68202 25.8116C7.35556 25.6012 7.02548 25.3945 6.69177 25.1914C6.35806 24.9882 6.04249 24.8069 5.74505 24.6473ZM2.93753 29.696L4.49364 30.1531C4.29776 30.5521 4.06199 30.9438 3.78632 31.3283C3.5179 31.7055 3.22772 32.0574 2.91577 32.3838C2.61108 32.703 2.30639 32.9823 2.00169 33.2217C1.90739 33.1202 1.78043 33.0041 1.62083 32.8735C1.46123 32.7429 1.298 32.616 1.13115 32.4927C0.971547 32.3693 0.830083 32.2678 0.706755 32.188C1.16379 31.905 1.59181 31.5423 1.99081 31.0998C2.39707 30.65 2.71264 30.1821 2.93753 29.696ZM3.01371 30.7842H10.5113V32.1662H2.67637L3.01371 30.7842ZM1.00056 33.2979H10.903V34.7017H1.00056V33.2979ZM1.18556 35.8225H10.7398V37.2263H1.18556V35.8225ZM4.37394 31.2848H5.67976V36.5733H4.37394V31.2848ZM2.44785 31.2848H3.84073V36.5733H2.44785V31.2848ZM6.22385 31.2848H7.52967V36.5733H6.22385V31.2848ZM8.09553 31.2848H9.54281V36.5733H8.09553V31.2848ZM4.02572 37.7595L5.49477 37.5854C5.56731 37.9191 5.62898 38.2854 5.67976 38.6844C5.73779 39.0762 5.77044 39.4099 5.77769 39.6856L4.22159 39.9141C4.22159 39.7327 4.21434 39.5187 4.19983 39.272C4.18532 39.0254 4.16355 38.7715 4.13454 38.5103C4.10552 38.2419 4.06925 37.9916 4.02572 37.7595ZM6.15856 37.803L7.64937 37.5527C7.73643 37.7704 7.81985 38.0061 7.89965 38.26C7.98671 38.5067 8.05926 38.7497 8.11729 38.9891C8.18258 39.2213 8.22974 39.4316 8.25876 39.6203L6.67001 39.925C6.64099 39.6493 6.5757 39.3119 6.47413 38.9129C6.37982 38.5139 6.27463 38.144 6.15856 37.803ZM8.2914 37.7486L9.81486 37.2807C9.97446 37.5056 10.1377 37.7522 10.3045 38.0206C10.4787 38.2818 10.6419 38.543 10.7942 38.8041C10.9466 39.058 11.0663 39.2902 11.1533 39.5006L9.52105 40.0338C9.4485 39.8306 9.34331 39.5985 9.20548 39.3373C9.07489 39.0762 8.92618 38.8078 8.75932 38.5321C8.59972 38.2492 8.44375 37.988 8.2914 37.7486ZM2.03434 37.3242L3.57956 37.6942C3.46349 38.1149 3.30026 38.5393 3.08988 38.9674C2.88675 39.3881 2.65823 39.7472 2.40432 40.0447L0.869983 39.4353C1.10213 39.2031 1.32339 38.8948 1.53378 38.5103C1.75141 38.1186 1.91827 37.7232 2.03434 37.3242ZM2.4805 44.5602H4.98332V45.5178H2.4805V44.5602ZM0.946156 40.5992H6.58295V41.9268H0.946156V40.5992ZM3.01371 39.794H4.49364V41.3609H3.01371V39.794ZM3.22046 43.8202H4.21071V46.421H3.22046V43.8202ZM1.08762 42.6232H5.66888V43.9726H2.37168V50.012H1.08762V42.6232ZM5.13567 42.6232H6.45237V48.6735C6.45237 48.9637 6.41972 49.1959 6.35443 49.37C6.2964 49.5513 6.17307 49.6928 5.98445 49.7944C5.80309 49.8959 5.58908 49.9576 5.34242 49.9794C5.09577 50.0084 4.80921 50.0229 4.48276 50.0229C4.46099 49.8488 4.41021 49.642 4.33041 49.4026C4.25786 49.1632 4.17806 48.9637 4.09101 48.8041C4.26512 48.8114 4.43923 48.8186 4.61334 48.8259C4.78745 48.8259 4.90352 48.8259 4.96156 48.8259C5.02685 48.8259 5.07037 48.815 5.09214 48.7932C5.12116 48.7642 5.13567 48.7171 5.13567 48.6518V42.6232ZM3.079 46.0837H4.90715V48.3362H3.079V47.4004H3.93866V47.0195H3.079V46.0837ZM2.58931 46.0837H3.52515V48.6844H2.58931V46.0837ZM1.80582 41.9377L3.02459 41.6656C3.09713 41.8107 3.1588 41.9776 3.20958 42.1662C3.26762 42.3476 3.30752 42.5035 3.32928 42.6341L2.0561 42.9497C2.04885 42.8119 2.01983 42.6486 1.96905 42.46C1.91827 42.2714 1.86386 42.0973 1.80582 41.9377ZM4.43923 41.6765L5.88651 41.9159C5.7922 42.119 5.70878 42.304 5.63623 42.4709C5.57094 42.6305 5.50928 42.772 5.45124 42.8953L4.21071 42.6559C4.24698 42.5108 4.28688 42.3476 4.33041 42.1662C4.38119 41.9776 4.41746 41.8144 4.43923 41.6765ZM7.43174 41.6656H11.1098V43.1238H7.43174V41.6656ZM7.31204 39.6851L8.83549 39.9137C8.72667 40.6391 8.58158 41.3428 8.40022 42.0247C8.21886 42.6994 7.99759 43.3269 7.73643 43.9073C7.48252 44.4804 7.18145 44.9773 6.83323 45.3981C6.76069 45.3038 6.65187 45.1841 6.50678 45.039C6.36894 44.8939 6.22385 44.7525 6.0715 44.6146C5.92641 44.4695 5.79946 44.3535 5.69064 44.2664C5.98808 43.9182 6.24199 43.5047 6.45237 43.0259C6.67001 42.5471 6.84774 42.0247 6.98558 41.4589C7.13067 40.8858 7.23949 40.2945 7.31204 39.6851ZM9.09666 42.5471L10.5984 42.6559C10.4895 43.8456 10.3009 44.9121 10.0325 45.8551C9.77133 46.7982 9.39409 47.6216 8.90078 48.3253C8.40747 49.0218 7.75819 49.6094 6.95293 50.0882C6.90941 49.9721 6.83323 49.8306 6.72442 49.6638C6.62285 49.4969 6.51403 49.3301 6.39796 49.1632C6.28189 48.9964 6.1767 48.8622 6.08239 48.7606C6.78608 48.3906 7.34468 47.9118 7.75819 47.3242C8.1717 46.7366 8.48002 46.0438 8.68315 45.2458C8.89353 44.4478 9.03137 43.5482 9.09666 42.5471ZM8.20435 42.7973C8.33493 43.6824 8.52355 44.5167 8.7702 45.3002C9.01686 46.0764 9.34694 46.7656 9.76045 47.3677C10.174 47.9626 10.6963 48.4378 11.3274 48.7932C11.1606 48.9311 10.9756 49.1233 10.7725 49.37C10.5766 49.6239 10.4206 49.8524 10.3045 50.0555C9.6081 49.6058 9.03499 49.0363 8.58521 48.3471C8.14268 47.6579 7.78721 46.8635 7.51879 45.964C7.25763 45.0571 7.04362 44.0669 6.87676 42.9932L8.20435 42.7973ZM3.16605 59.827C2.95567 59.5659 2.71627 59.2938 2.44785 59.0109C2.18669 58.728 1.91827 58.4523 1.64259 58.1839C1.37417 57.9082 1.11301 57.6615 0.859101 57.4439L2.2411 56.2578C2.495 56.4682 2.77068 56.7184 3.06812 57.0086C3.37281 57.2988 3.65936 57.589 3.92778 57.8792C4.1962 58.1694 4.41021 58.416 4.56981 58.6191L3.16605 59.827ZM2.91577 68.0859H8.84637V69.6094H2.91577V68.0859ZM2.20845 65.0934H9.68428V70.0229H7.97583V66.606H3.82984V70.0229H2.20845V65.0934ZM4.30865 59.5872L6.1368 60.1748C5.89014 60.6391 5.62535 61.1034 5.34242 61.5677C5.06675 62.0247 4.79107 62.4564 4.5154 62.8626C4.23973 63.2689 3.97494 63.6316 3.72103 63.9508L2.28462 63.385C2.53128 63.044 2.77793 62.6595 3.02459 62.2315C3.2785 61.7962 3.5179 61.3501 3.74279 60.893C3.96768 60.436 4.1563 60.0007 4.30865 59.5872ZM6.92029 61.633L8.1717 60.708C8.52717 60.9982 8.89353 61.321 9.27077 61.6765C9.65526 62.032 10.0107 62.3947 10.3372 62.7647C10.6636 63.1274 10.9212 63.4684 11.1098 63.7876L9.7278 64.8431C9.56095 64.5312 9.32518 64.1866 9.02048 63.8094C8.71579 63.4321 8.37846 63.0549 8.00847 62.6776C7.63849 62.2932 7.27576 61.9449 6.92029 61.633ZM1.12027 62.6341C1.68612 62.6196 2.31364 62.6015 3.00282 62.5797C3.69201 62.5579 4.41384 62.5326 5.16831 62.5035C5.92279 62.4745 6.68452 62.4455 7.4535 62.4165C8.22248 62.3875 8.97333 62.3584 9.70604 62.3294L9.64075 63.8638C8.89353 63.9073 8.13543 63.9472 7.36644 63.9835C6.60472 64.0125 5.85387 64.0451 5.1139 64.0814C4.38119 64.1104 3.68113 64.1394 3.01371 64.1685C2.35354 64.1902 1.75141 64.212 1.20732 64.2338L1.12027 62.6341ZM7.59496 71.4806H8.97696V73.1782C8.97696 73.4466 8.95157 73.6606 8.90078 73.8202C8.85726 73.9726 8.74844 74.0923 8.57433 74.1793C8.40747 74.2664 8.22611 74.3208 8.03024 74.3426C7.84162 74.3571 7.62761 74.3643 7.38821 74.3643C7.35919 74.1902 7.30478 74.0016 7.22498 73.7985C7.15243 73.5881 7.07626 73.4031 6.99646 73.2435C7.09077 73.2508 7.18508 73.2544 7.27939 73.2544C7.3737 73.2544 7.44262 73.2544 7.48614 73.2544C7.55869 73.2544 7.59496 73.2181 7.59496 73.1456V71.4806ZM8.93343 72.3512L10.076 71.7745C10.2284 71.9341 10.3807 72.1082 10.5331 72.2968C10.6927 72.4854 10.8341 72.6776 10.9575 72.8735C11.088 73.0621 11.1896 73.2362 11.2621 73.3958L10.0325 74.0379C9.97446 73.8783 9.8874 73.7005 9.77133 73.5047C9.65526 73.3088 9.52105 73.1093 9.3687 72.9062C9.22361 72.703 9.07852 72.518 8.93343 72.3512ZM5.00508 77.1174H9.66251V78.2927H5.00508V77.1174ZM5.15743 75.7028H8.85726V75.3981H4.14542V74.2664H10.3372V76.8454H5.15743V75.7028ZM4.65686 75.7028H6.21297C6.14042 76.0365 6.057 76.3847 5.96269 76.7475C5.87563 77.1102 5.78858 77.4584 5.70152 77.7921C5.61447 78.1258 5.53104 78.4233 5.45124 78.6844L3.93866 78.4994C4.06925 78.1149 4.19983 77.6688 4.33041 77.161C4.46099 76.6531 4.56981 76.1671 4.65686 75.7028ZM9.23812 77.1174H10.816C10.816 77.1174 10.8051 77.19 10.7833 77.3351C10.7688 77.4729 10.7471 77.5926 10.7181 77.6942C10.6237 78.2455 10.5149 78.6772 10.3916 78.9891C10.2683 79.2938 10.1304 79.5187 9.97809 79.6638C9.84025 79.7799 9.69516 79.8633 9.54281 79.9141C9.39772 79.9649 9.23449 79.9975 9.05313 80.012C8.90078 80.0265 8.70491 80.0338 8.46551 80.0338C8.23336 80.041 7.97946 80.041 7.70378 80.0338C7.69653 79.8379 7.65663 79.6203 7.58408 79.3809C7.51879 79.1415 7.43174 78.9311 7.32292 78.7497C7.52604 78.7715 7.72555 78.786 7.92142 78.7932C8.12455 78.8005 8.27326 78.8041 8.36757 78.8041C8.44737 78.8041 8.51629 78.7969 8.57433 78.7824C8.63237 78.7679 8.68677 78.7425 8.73756 78.7062C8.82461 78.6336 8.91167 78.4813 8.99872 78.2492C9.09303 78.017 9.1692 77.6906 9.22724 77.2698L9.23812 77.1174ZM3.99307 70.4795H10.9575V71.7418H3.99307V70.4795ZM6.57207 69.6851H8.1717V71.2086H6.57207V69.6851ZM4.45011 71.7962L5.73417 72.1227C5.58908 72.4781 5.3932 72.8227 5.14655 73.1564C4.89989 73.4902 4.63873 73.7658 4.36306 73.9835C4.29051 73.9037 4.18895 73.813 4.05836 73.7114C3.93504 73.6099 3.80445 73.5119 3.66662 73.4176C3.53603 73.316 3.41996 73.2362 3.3184 73.1782C3.56505 73.0041 3.78632 72.7973 3.98219 72.5579C4.18532 72.3113 4.34129 72.0574 4.45011 71.7962ZM1.31614 70.893L2.18669 69.7069C2.39707 69.7794 2.62196 69.8738 2.86136 69.9898C3.10802 70.0987 3.34016 70.2147 3.5578 70.3381C3.78269 70.4614 3.96405 70.5811 4.10189 70.6972L3.17693 72.003C3.05361 71.8796 2.88675 71.7527 2.67637 71.6221C2.46599 71.4843 2.2411 71.3501 2.00169 71.2195C1.76229 71.0889 1.53378 70.9801 1.31614 70.893ZM0.739401 73.842L1.59907 72.645C1.80945 72.7103 2.03434 72.7973 2.27374 72.9062C2.51314 73.0077 2.74166 73.1202 2.9593 73.2435C3.17693 73.3596 3.35467 73.4757 3.49251 73.5917L2.57843 74.9084C2.4551 74.7924 2.28825 74.669 2.07787 74.5384C1.86749 74.4079 1.64622 74.2809 1.41408 74.1576C1.18193 74.0343 0.957037 73.9291 0.739401 73.842ZM1.00056 78.9891C1.16742 78.7062 1.34878 78.3761 1.54466 77.9989C1.74778 77.6216 1.95454 77.219 2.16492 76.791C2.3753 76.363 2.57118 75.9313 2.75254 75.496L4.00395 76.4428C3.84435 76.8345 3.6775 77.2299 3.50339 77.6289C3.32928 78.0206 3.15154 78.4088 2.97018 78.7932C2.79607 79.1777 2.61471 79.555 2.42609 79.925L1.00056 78.9891ZM5.90828 71.448H7.27939V72.1662C7.27939 72.3693 7.25037 72.6232 7.19233 72.9279C7.14155 73.2254 7.02911 73.5264 6.855 73.8311C6.68089 74.1286 6.41972 74.3825 6.0715 74.5929C5.99896 74.5203 5.8974 74.4333 5.76681 74.3317C5.63623 74.2301 5.50202 74.1322 5.36418 74.0379C5.2336 73.9436 5.1139 73.8674 5.00508 73.8094C5.2735 73.6498 5.46938 73.4648 5.5927 73.2544C5.72329 73.044 5.80671 72.8372 5.84299 72.6341C5.88651 72.4237 5.90828 72.2533 5.90828 72.1227V71.448ZM5.33154 80.5448H10.631V81.9703H5.33154V80.5448ZM4.67863 82.645H11.0989V84.1032H4.67863V82.645ZM4.93979 84.9084H10.9683V86.3557H4.93979V84.9084ZM7.15969 79.6851H8.72667V83.4611H7.15969V79.6851ZM8.4111 83.9617H9.97809V88.3253C9.97809 88.7026 9.93456 89 9.8475 89.2176C9.7677 89.4425 9.60448 89.6166 9.35782 89.74C9.11117 89.856 8.82461 89.9286 8.49816 89.9576C8.17896 89.9939 7.81623 90.012 7.40997 90.012C7.38095 89.7799 7.31929 89.5151 7.22498 89.2176C7.13793 88.9202 7.04362 88.6627 6.94205 88.445C7.1742 88.4523 7.41723 88.4595 7.67114 88.4668C7.92505 88.4668 8.09553 88.4668 8.18258 88.4668C8.26964 88.4668 8.32767 88.4559 8.35669 88.4341C8.39297 88.4124 8.4111 88.3652 8.4111 88.2927V83.9617ZM5.22272 86.8889L6.38708 86.1598C6.53942 86.3122 6.6954 86.4827 6.855 86.6713C7.0146 86.8599 7.16694 87.0485 7.31204 87.2371C7.45713 87.4258 7.56957 87.5962 7.64937 87.7486L6.40884 88.5647C6.3363 88.4124 6.23473 88.2383 6.10415 88.0424C5.97357 87.8465 5.82848 87.647 5.66888 87.4439C5.51653 87.2408 5.36781 87.0558 5.22272 86.8889ZM0.739401 85.4308C1.10213 85.351 1.51201 85.2566 1.96905 85.1478C2.43334 85.0318 2.9194 84.9048 3.42722 84.767C3.94229 84.6291 4.45011 84.4913 4.95067 84.3535L5.15743 85.7463C4.4755 85.9567 3.77544 86.1671 3.05723 86.3775C2.34629 86.5879 1.697 86.7765 1.10938 86.9433L0.739401 85.4308ZM2.64372 79.696H4.09101V90.0338H2.64372V79.696ZM1.16379 80.251L2.46961 80.4686C2.42609 80.9474 2.36805 81.4299 2.2955 81.9159C2.23021 82.402 2.14679 82.8626 2.04522 83.2979C1.95091 83.7259 1.83847 84.1032 1.70788 84.4296C1.62808 84.3643 1.51927 84.2882 1.38143 84.2011C1.25085 84.1068 1.11301 84.0161 0.967919 83.9291C0.830083 83.8348 0.710382 83.7622 0.608818 83.7114C0.717637 83.4285 0.808319 83.0984 0.880865 82.7212C0.95341 82.3439 1.01145 81.9449 1.05497 81.5242C1.10576 81.0962 1.14203 80.6718 1.16379 80.251ZM1.58818 81.6656H4.8745V83.1673H1.28349L1.58818 81.6656ZM0.91351 90.9474H5.08126V92.46H0.91351V90.9474ZM2.18669 91.633H3.75367V97.0739H2.18669V91.633ZM0.706755 96.7148C1.07674 96.6495 1.50476 96.5697 1.99081 96.4754C2.48412 96.3738 3.00645 96.265 3.5578 96.149C4.10915 96.0256 4.65686 95.9059 5.20096 95.7899L5.36418 97.1936C4.63147 97.3967 3.88788 97.5999 3.13341 97.803C2.37893 98.0061 1.69338 98.1911 1.07674 98.358L0.706755 96.7148ZM6.06062 91.5786H11.0663V93.0912H6.06062V91.5786ZM6.24561 89.6634L7.8126 89.979C7.64575 90.6681 7.44262 91.3464 7.20322 92.0139C6.96382 92.6813 6.69902 93.3015 6.40884 93.8747C6.11866 94.4478 5.80671 94.9447 5.473 95.3655C5.37869 95.2784 5.24811 95.1732 5.08126 95.0499C4.9144 94.9266 4.74392 94.8069 4.56981 94.6908C4.40296 94.5747 4.25424 94.484 4.12365 94.4187C4.45736 94.056 4.75843 93.6244 5.02685 93.1238C5.29527 92.616 5.53104 92.0683 5.73417 91.4806C5.94455 90.8858 6.11503 90.28 6.24561 89.6634ZM8.7702 92.6015L10.3916 92.8409C10.2102 93.7985 9.96358 94.6618 9.65163 95.4308C9.33969 96.1925 8.94794 96.8672 8.47639 97.4548C8.0121 98.0351 7.45713 98.5393 6.81147 98.9674C6.17307 99.3954 5.42948 99.7545 4.58069 100.045C4.53716 99.9141 4.46462 99.7581 4.36306 99.5767C4.26875 99.3954 4.16355 99.2104 4.04748 99.0218C3.93866 98.8404 3.8371 98.6917 3.74279 98.5756C4.76568 98.2854 5.61447 97.8828 6.28914 97.3677C6.97107 96.8526 7.51154 96.2034 7.91054 95.4199C8.30954 94.6364 8.59609 93.6969 8.7702 92.6015ZM6.82235 92.6994C7.01097 93.6353 7.28664 94.4949 7.64937 95.2784C8.0121 96.0546 8.48727 96.7257 9.07489 97.2916C9.66977 97.8574 10.4061 98.2963 11.2839 98.6083C11.1678 98.7171 11.0373 98.8549 10.8922 99.0218C10.7543 99.1886 10.6237 99.3627 10.5004 99.5441C10.3771 99.7255 10.2755 99.8923 10.1957 100.045C9.23812 99.6457 8.44375 99.1124 7.8126 98.445C7.18871 97.7776 6.68452 96.9869 6.30002 96.0728C5.91553 95.1515 5.59996 94.1177 5.3533 92.9715L6.82235 92.6994ZM2.00169 100.066H4.40658V101.524H2.00169V100.066ZM2.00169 102.493H4.46099V103.951H2.00169V102.493ZM6.2565 103.907H9.98897V105.333H6.2565V103.907ZM2.00169 104.974H4.40658V106.465H2.00169V104.974ZM1.39231 100.066H2.80695V104.06C2.80695 104.502 2.79607 104.988 2.77431 105.518C2.7598 106.04 2.72352 106.573 2.66549 107.117C2.60745 107.662 2.5204 108.187 2.40432 108.695C2.2955 109.196 2.15041 109.649 1.96905 110.056C1.88199 109.976 1.75867 109.889 1.59907 109.794C1.44672 109.7 1.28712 109.609 1.12027 109.522C0.960665 109.443 0.819201 109.381 0.695873 109.337C0.862728 108.967 0.989683 108.561 1.07674 108.119C1.17105 107.676 1.23997 107.219 1.28349 106.747C1.33427 106.276 1.36329 105.812 1.37055 105.355C1.38506 104.89 1.39231 104.459 1.39231 104.06V100.066ZM3.52515 100.066H4.98332V108.369C4.98332 108.703 4.95067 108.982 4.88538 109.207C4.82735 109.432 4.70039 109.609 4.50452 109.74C4.3159 109.871 4.09464 109.95 3.84073 109.979C3.58682 110.016 3.28575 110.034 2.93753 110.034C2.93028 109.896 2.90489 109.733 2.86136 109.544C2.81783 109.355 2.76705 109.17 2.70901 108.989C2.65098 108.8 2.58931 108.641 2.52402 108.51C2.69088 108.518 2.85411 108.521 3.01371 108.521C3.18056 108.521 3.29663 108.521 3.36193 108.521C3.41996 108.521 3.45986 108.51 3.48163 108.489C3.51064 108.46 3.52515 108.409 3.52515 108.336V100.066ZM9.14018 100.066H10.6528V102.177C10.6528 102.511 10.6056 102.776 10.5113 102.971C10.4242 103.16 10.2538 103.305 9.99985 103.407C9.7532 103.501 9.46301 103.559 9.1293 103.581C8.80285 103.595 8.43287 103.603 8.01936 103.603C7.99034 103.399 7.92867 103.175 7.83436 102.928C7.74731 102.681 7.65663 102.467 7.56232 102.286C7.72192 102.293 7.89603 102.3 8.08465 102.308C8.27326 102.315 8.44375 102.319 8.59609 102.319C8.74844 102.311 8.85 102.308 8.90078 102.308C8.98784 102.308 9.0495 102.297 9.08578 102.275C9.12205 102.253 9.14018 102.21 9.14018 102.144V100.066ZM9.55369 103.907H9.81486L10.0651 103.864L11.001 104.158C10.8559 105.108 10.6346 105.96 10.3372 106.715C10.0398 107.462 9.66251 108.111 9.20548 108.663C8.75569 109.214 8.22611 109.675 7.61673 110.045C7.52242 109.871 7.38458 109.667 7.20322 109.435C7.02911 109.203 6.86588 109.022 6.71353 108.891C7.22135 108.623 7.66751 108.253 8.052 107.781C8.44375 107.302 8.76657 106.755 9.02048 106.138C9.27439 105.514 9.45213 104.854 9.55369 104.158V103.907ZM8.01936 104.898C8.20072 105.463 8.44375 106 8.74844 106.508C9.06038 107.009 9.43037 107.458 9.85839 107.857C10.2864 108.256 10.7688 108.576 11.3057 108.815C11.1461 108.953 10.9683 109.141 10.7725 109.381C10.5838 109.628 10.4351 109.845 10.3263 110.034C9.74594 109.722 9.23087 109.326 8.78108 108.848C8.33856 108.369 7.95406 107.825 7.62761 107.215C7.30115 106.599 7.02548 105.931 6.80059 105.213L8.01936 104.898ZM5.39683 100.066H9.49929V101.524H6.88764V110.034H5.39683V100.066ZM7.10528 111.524C7.02548 112.076 6.92754 112.663 6.81147 113.287C6.6954 113.911 6.53217 114.564 6.32179 115.246C6.1114 115.971 5.86112 116.606 5.57094 117.15C5.28076 117.694 4.9543 118.119 4.59157 118.423C4.2361 118.728 3.84435 118.88 3.41633 118.88C2.96655 118.88 2.5603 118.735 2.19757 118.445C1.84209 118.148 1.55917 117.749 1.34878 117.248C1.14566 116.74 1.04409 116.178 1.04409 115.561C1.04409 114.916 1.17467 114.306 1.43584 113.733C1.697 113.153 2.05973 112.641 2.52402 112.199C2.98832 111.756 3.53241 111.408 4.1563 111.154C4.78019 110.9 5.45487 110.773 6.18032 110.773C6.87676 110.773 7.50065 110.886 8.052 111.111C8.6106 111.328 9.08578 111.637 9.47752 112.036C9.87652 112.435 10.1812 112.903 10.3916 113.439C10.602 113.969 10.7072 114.542 10.7072 115.159C10.7072 115.92 10.5548 116.61 10.2501 117.226C9.94544 117.836 9.48478 118.347 8.86814 118.761C8.2515 119.167 7.47164 119.45 6.52854 119.609L5.52741 118.042C5.75956 118.013 5.95543 117.984 6.11503 117.955C6.27463 117.919 6.43423 117.883 6.59383 117.847C6.94205 117.759 7.25763 117.636 7.54055 117.477C7.82348 117.317 8.06651 117.121 8.26964 116.889C8.47277 116.657 8.62874 116.392 8.73756 116.095C8.84637 115.79 8.90078 115.46 8.90078 115.104C8.90078 114.684 8.83912 114.303 8.71579 113.962C8.59972 113.621 8.42198 113.327 8.18258 113.08C7.95044 112.834 7.66388 112.645 7.32292 112.514C6.98195 112.384 6.59021 112.319 6.14768 112.319C5.58182 112.319 5.08488 112.42 4.65686 112.623C4.2361 112.819 3.88425 113.077 3.60133 113.396C3.3184 113.708 3.10439 114.042 2.9593 114.397C2.82146 114.752 2.75254 115.083 2.75254 115.387C2.75254 115.699 2.78519 115.964 2.85048 116.182C2.91577 116.392 2.9992 116.552 3.10076 116.66C3.20958 116.769 3.32928 116.824 3.45986 116.824C3.60495 116.824 3.73916 116.751 3.86249 116.606C3.99307 116.461 4.1164 116.247 4.23247 115.964C4.3558 115.674 4.48276 115.318 4.61334 114.898C4.78019 114.382 4.92166 113.827 5.03773 113.233C5.1538 112.63 5.23723 112.043 5.28801 111.47L7.10528 111.524ZM3.15517 124.397H8.47639V123.962H1.9364V122.689H10.0325V125.67H3.15517V124.397ZM2.26286 124.397H3.85161C3.77906 124.76 3.69926 125.137 3.61221 125.529C3.52515 125.913 3.4381 126.283 3.35104 126.639C3.26399 126.994 3.18056 127.313 3.10076 127.596L1.51201 127.422C1.59907 127.146 1.68612 126.838 1.77318 126.497C1.86749 126.156 1.95817 125.804 2.04522 125.442C2.13228 125.079 2.20482 124.731 2.26286 124.397ZM2.91577 126.105H9.4884V127.411H2.52402L2.91577 126.105ZM9.07489 126.105H10.6636C10.6636 126.105 10.66 126.174 10.6528 126.312C10.6528 126.443 10.6455 126.555 10.631 126.65C10.5875 127.353 10.5294 127.901 10.4569 128.293C10.3916 128.677 10.2864 128.949 10.1413 129.109C10.0107 129.254 9.86927 129.355 9.71692 129.414C9.57183 129.479 9.4086 129.522 9.22724 129.544C9.06764 129.566 8.86451 129.58 8.61786 129.588C8.3712 129.595 8.11004 129.595 7.83436 129.588C7.82711 129.355 7.77995 129.105 7.6929 128.837C7.6131 128.568 7.51154 128.34 7.38821 128.151C7.59859 128.173 7.79809 128.187 7.98671 128.195C8.18258 128.202 8.3313 128.202 8.43287 128.195C8.51267 128.195 8.58158 128.191 8.63962 128.184C8.69766 128.169 8.75207 128.14 8.80285 128.097C8.86814 128.024 8.92255 127.85 8.96608 127.574C9.0096 127.299 9.04588 126.871 9.07489 126.29V126.105ZM5.12478 122.982H6.67001V130.034H5.12478V122.982ZM4.84186 126.595L6.06062 127.117C5.82122 127.422 5.54918 127.716 5.24448 127.999C4.93979 128.282 4.60971 128.547 4.25424 128.793C3.90602 129.033 3.53966 129.25 3.15517 129.446C2.77793 129.649 2.39344 129.82 2.00169 129.958C1.92915 129.834 1.83484 129.693 1.71877 129.533C1.60995 129.381 1.49025 129.229 1.35967 129.076C1.23634 128.931 1.12027 128.811 1.01145 128.717C1.38868 128.616 1.76229 128.489 2.13228 128.336C2.50226 128.184 2.85411 128.017 3.18782 127.836C3.52878 127.654 3.84073 127.458 4.12365 127.248C4.40658 127.038 4.64598 126.82 4.84186 126.595ZM2.39344 120.48H5.77769V121.677H2.39344V120.48ZM6.78971 120.48H10.9139V121.677H6.78971V120.48ZM2.34991 119.587L3.81896 119.99C3.66662 120.353 3.48163 120.712 3.26399 121.067C3.05361 121.423 2.82871 121.756 2.58931 122.068C2.34991 122.38 2.11414 122.652 1.88199 122.884C1.78769 122.797 1.66073 122.703 1.50113 122.601C1.34878 122.493 1.18918 122.387 1.02233 122.286C0.862728 122.184 0.721264 122.101 0.597937 122.036C0.960665 121.745 1.298 121.379 1.60995 120.937C1.92189 120.494 2.16855 120.044 2.34991 119.587ZM6.86588 119.587L8.35669 119.968C8.15356 120.505 7.88515 121.024 7.55144 121.524C7.22498 122.025 6.89127 122.442 6.55031 122.776C6.456 122.689 6.32904 122.591 6.16944 122.482C6.00984 122.366 5.84661 122.257 5.67976 122.155C5.52016 122.054 5.37869 121.97 5.25537 121.905C5.60359 121.629 5.91916 121.285 6.20209 120.871C6.48501 120.458 6.70628 120.03 6.86588 119.587ZM2.68725 121.426L3.92778 120.882C4.08738 121.085 4.24698 121.321 4.40658 121.589C4.56618 121.851 4.68226 122.079 4.7548 122.275L3.42722 122.884C3.36918 122.689 3.26762 122.453 3.12252 122.177C2.97743 121.901 2.83234 121.651 2.68725 121.426ZM7.50791 121.426L8.80285 120.958C8.9697 121.154 9.14018 121.375 9.31429 121.622C9.49566 121.869 9.6335 122.086 9.7278 122.275L8.35669 122.797C8.28415 122.609 8.16445 122.387 7.99759 122.134C7.83799 121.872 7.67476 121.637 7.50791 121.426ZM0.880865 133.896H11.0227V135.627H0.880865V133.896ZM4.1563 141.622V142.743H7.6929V141.622H4.1563ZM2.63284 140.11H9.31429V144.245H2.63284V140.11ZM1.18556 145.017H5.50565V149.99H3.92778V146.53H2.67637V150.034H1.18556V145.017ZM6.27826 145.017H10.7072V149.99H9.11842V146.53H7.79084V150.034H6.27826V145.017ZM1.83847 147.999H4.59157V149.511H1.83847V147.999ZM6.98558 147.999H9.93456V149.511H6.98558V147.999ZM4.98332 156.65H11.0119V157.955H4.98332V156.65ZM8.24787 155.355H9.7278V160.056H8.24787V155.355ZM7.31204 149.685L9.05313 149.979C8.88627 150.269 8.71579 150.548 8.54168 150.817C8.37483 151.085 8.22611 151.314 8.09553 151.502L6.83323 151.176C6.92754 150.951 7.01823 150.704 7.10528 150.436C7.19959 150.16 7.26851 149.91 7.31204 149.685ZM7.34468 151.383H8.66138V153.254C8.66138 153.566 8.62874 153.896 8.56345 154.245C8.50541 154.586 8.38934 154.923 8.21523 155.257C8.04837 155.59 7.80172 155.902 7.47526 156.192C7.15606 156.483 6.73167 156.733 6.20209 156.943C6.12954 156.864 6.0316 156.769 5.90828 156.66C5.7922 156.552 5.6725 156.446 5.54918 156.345C5.42585 156.236 5.3134 156.149 5.21184 156.084C5.68339 155.91 6.06062 155.706 6.34355 155.474C6.62648 155.235 6.84049 154.988 6.98558 154.734C7.13067 154.473 7.22498 154.212 7.26851 153.951C7.31929 153.69 7.34468 153.447 7.34468 153.222V151.383ZM2.00169 152.493H5.14655V153.82H2.00169V152.493ZM3.18782 149.707H4.54805V153.287H3.18782V149.707ZM2.08875 154.876H4.72216V160.056H3.32928V156.192H2.08875V154.876ZM1.34878 150.022H2.69813V154.027C2.69813 154.448 2.68725 154.919 2.66549 155.442C2.65098 155.957 2.61833 156.49 2.56755 157.041C2.51677 157.585 2.44422 158.119 2.34991 158.641C2.2556 159.163 2.13228 159.638 1.97993 160.066C1.87837 160.016 1.74778 159.961 1.58818 159.903C1.43584 159.845 1.27624 159.791 1.10938 159.74C0.942528 159.689 0.797437 159.649 0.67411 159.62C0.819201 159.221 0.935274 158.779 1.02233 158.293C1.11664 157.799 1.18556 157.295 1.22908 156.78C1.27987 156.265 1.31251 155.772 1.32702 155.3C1.34153 154.821 1.34878 154.397 1.34878 154.027V150.022ZM6.68089 153.45V153.973H9.30341V153.45H6.68089ZM6.68089 151.862V152.373H9.30341V151.862H6.68089ZM5.29889 150.697H10.7507V155.137H5.29889V150.697ZM11.0554 160.86L5.94092 169.718L0.826455 160.86H11.0554Z" fill="black"/>
</svg>
