<svg width="12" height="151" viewBox="0 0 12 151" fill="none" xmlns="http://www.w3.org/2000/svg">
<path d="M5.34257 144.786C6.05352 144.576 6.68829 144.286 7.24689 143.916C7.80549 143.539 8.27341 143.053 8.65065 142.458C9.02789 141.863 9.30719 141.137 9.48855 140.281C9.60463 140.405 9.75697 140.535 9.94559 140.673C10.127 140.811 10.3156 140.945 10.5114 141.076C10.7073 141.199 10.8851 141.301 11.0447 141.38C10.7835 142.331 10.4135 143.122 9.93471 143.753C9.44865 144.384 8.85015 144.903 8.1392 145.309C7.42826 145.715 6.60124 146.06 5.65814 146.343L5.34257 144.786ZM4.6679 150.097V140.978H6.30017V150.097H4.6679ZM1.34893 150.434V140.684H2.98121V150.434H1.34893ZM1.78421 146.517V144.819H4.53731C5.00161 144.819 5.48766 144.855 5.99548 144.928C6.49605 144.993 6.99298 145.124 7.48629 145.32C7.97235 145.508 8.44027 145.788 8.89005 146.158C9.33983 146.528 9.74972 147.01 10.1197 147.605C10.4897 148.192 10.8016 148.925 11.0555 149.803C10.9177 149.861 10.7581 149.948 10.5767 150.064C10.4026 150.173 10.2285 150.293 10.0544 150.423C9.8803 150.554 9.73884 150.674 9.63002 150.782C9.42689 150.028 9.18023 149.397 8.89005 148.889C8.59261 148.374 8.26616 147.96 7.91069 147.648C7.54796 147.329 7.17435 147.09 6.78986 146.93C6.40536 146.771 6.02087 146.662 5.63638 146.604C5.24463 146.546 4.87465 146.517 4.52643 146.517H1.78421ZM1.4904 140.445V130.64H3.09003V140.445H1.4904ZM2.97033 136.636V134.928H11.0011V136.636H2.97033ZM5.64726 135.744L4.37409 134.655C4.51192 134.373 4.67152 134.064 4.85289 133.731C5.03425 133.397 5.22287 133.063 5.41874 132.729C5.61462 132.388 5.81049 132.069 6.00636 131.772C6.19498 131.474 6.37635 131.224 6.55046 131.021L8.00862 132.207C7.83451 132.388 7.64589 132.621 7.44277 132.903C7.23238 133.179 7.022 133.48 6.81162 133.807C6.60124 134.133 6.39448 134.463 6.19135 134.797C5.98823 135.131 5.80686 135.446 5.64726 135.744ZM0.696023 128.54L1.15306 126.984C1.55206 127.18 1.94381 127.415 2.3283 127.691C2.70554 127.96 3.05738 128.25 3.38384 128.562C3.70304 128.866 3.98234 129.171 4.22174 129.476C4.12018 129.57 4.0041 129.697 3.87352 129.857C3.74294 130.016 3.61598 130.179 3.49266 130.346C3.36933 130.506 3.26777 130.647 3.18796 130.771C2.90504 130.314 2.54231 129.886 2.09978 129.487C1.65 129.08 1.18208 128.765 0.696023 128.54ZM1.78421 128.464V120.966H3.1662V128.801L1.78421 128.464ZM4.29791 130.477V120.574H5.70167V130.477H4.29791ZM6.8225 130.292V120.738H8.22626V130.292H6.8225ZM2.28477 127.103V125.798H7.57335V127.103H2.28477ZM2.28477 129.03V127.637H7.57335V129.03H2.28477ZM2.28477 125.254V123.948H7.57335V125.254H2.28477ZM2.28477 123.382V121.935H7.57335V123.382H2.28477ZM8.75947 127.452L8.58536 125.983C8.91907 125.91 9.28543 125.848 9.68443 125.798C10.0762 125.74 10.4099 125.707 10.6856 125.7L10.9141 127.256C10.7327 127.256 10.5187 127.263 10.272 127.278C10.0254 127.292 9.77148 127.314 9.51032 127.343C9.2419 127.372 8.99162 127.408 8.75947 127.452ZM8.803 125.319L8.55271 123.828C8.77035 123.741 9.00612 123.658 9.26003 123.578C9.50669 123.491 9.74972 123.418 9.98912 123.36C10.2213 123.295 10.4316 123.248 10.6203 123.219L10.925 124.807C10.6493 124.836 10.3119 124.902 9.91295 125.003C9.51394 125.098 9.14396 125.203 8.803 125.319ZM8.74859 123.186L8.28067 121.663C8.50556 121.503 8.75222 121.34 9.02063 121.173C9.2818 120.999 9.54296 120.836 9.80413 120.683C10.058 120.531 10.2902 120.411 10.5006 120.324L11.0338 121.956C10.8306 122.029 10.5985 122.134 10.3373 122.272C10.0762 122.403 9.80775 122.551 9.53208 122.718C9.24915 122.878 8.98799 123.034 8.74859 123.186ZM8.3242 129.443L8.69418 127.898C9.11494 128.014 9.53934 128.177 9.96735 128.388C10.3881 128.591 10.7472 128.819 11.0447 129.073L10.4353 130.607C10.2031 130.375 9.89481 130.154 9.51032 129.944C9.11857 129.726 8.7232 129.559 8.3242 129.443ZM5.56021 118.986V116.483H6.51781V118.986H5.56021ZM1.59922 120.52V114.883H2.9268V120.52H1.59922ZM0.793959 118.452V116.972H2.36094V118.452H0.793959ZM4.82024 118.246V117.255H7.421V118.246H4.82024ZM3.62324 120.378V115.797H4.97259V119.094H11.012V120.378H3.62324ZM3.62324 116.33V115.014H9.67354C9.96373 115.014 10.1959 115.046 10.37 115.112C10.5513 115.17 10.6928 115.293 10.7944 115.482C10.8959 115.663 10.9576 115.877 10.9794 116.124C11.0084 116.37 11.0229 116.657 11.0229 116.983C10.8488 117.005 10.642 117.056 10.4026 117.136C10.1632 117.208 9.96373 117.288 9.80413 117.375C9.81138 117.201 9.81864 117.027 9.82589 116.853C9.82589 116.679 9.82589 116.563 9.82589 116.505C9.82589 116.439 9.81501 116.396 9.79324 116.374C9.76423 116.345 9.71707 116.33 9.65178 116.33H3.62324ZM7.08367 118.387V116.559H9.33621V118.387H8.40037V117.527H8.0195V118.387H7.08367ZM7.08367 118.877V117.941H9.68443V118.877H7.08367ZM2.93768 119.66L2.66564 118.442C2.81073 118.369 2.97758 118.307 3.1662 118.257C3.34757 118.198 3.50354 118.159 3.63412 118.137L3.94969 119.41C3.81186 119.417 3.64863 119.446 3.46001 119.497C3.27139 119.548 3.09728 119.602 2.93768 119.66ZM2.67652 117.027L2.91592 115.58C3.11905 115.674 3.30404 115.757 3.47089 115.83C3.63049 115.895 3.77196 115.957 3.89528 116.015L3.65588 117.255C3.51079 117.219 3.34757 117.179 3.1662 117.136C2.97758 117.085 2.81435 117.049 2.67652 117.027ZM2.66564 114.034V110.356H4.1238V114.034H2.66564ZM0.68514 114.154L0.913659 112.631C1.63912 112.739 2.34281 112.885 3.02474 113.066C3.69941 113.247 4.32693 113.469 4.9073 113.73C5.48041 113.984 5.97734 114.285 6.39811 114.633C6.3038 114.705 6.1841 114.814 6.03901 114.959C5.89392 115.097 5.75245 115.242 5.61462 115.395C5.46953 115.54 5.35345 115.667 5.2664 115.775C4.91818 115.478 4.50467 115.224 4.02587 115.014C3.54707 114.796 3.02474 114.618 2.45888 114.481C1.88577 114.335 1.29452 114.227 0.68514 114.154ZM3.54707 112.369L3.65588 110.868C4.84563 110.977 5.91205 111.165 6.85515 111.434C7.79824 111.695 8.62163 112.072 9.32533 112.565C10.0218 113.059 10.6094 113.708 11.0882 114.513C10.9721 114.557 10.8306 114.633 10.6638 114.742C10.4969 114.843 10.3301 114.952 10.1632 115.068C9.99637 115.184 9.86216 115.289 9.7606 115.384C9.39062 114.68 8.91182 114.121 8.3242 113.708C7.73658 113.294 7.04377 112.986 6.24576 112.783C5.44776 112.573 4.5482 112.435 3.54707 112.369ZM3.79735 113.262C4.68241 113.131 5.51668 112.943 6.30017 112.696C7.07641 112.449 7.76559 112.119 8.36772 111.706C8.9626 111.292 9.43777 110.77 9.79324 110.139C9.93108 110.306 10.1233 110.491 10.37 110.694C10.6239 110.89 10.8524 111.045 11.0555 111.162C10.6058 111.858 10.0363 112.431 9.34709 112.881C8.65791 113.323 7.86353 113.679 6.96397 113.947C6.05714 114.208 5.0669 114.422 3.99322 114.589L3.79735 113.262ZM10.827 108.289C10.5659 108.499 10.2938 108.739 10.0109 109.007C9.72795 109.268 9.45228 109.537 9.18386 109.812C8.90819 110.081 8.66153 110.342 8.4439 110.596L7.25778 109.214C7.46816 108.96 7.71844 108.684 8.00862 108.387C8.2988 108.082 8.58899 107.795 8.87917 107.527C9.16935 107.259 9.41601 107.045 9.61914 106.885L10.827 108.289ZM9.08592 98.5277V92.5971H10.6094V98.5277H9.08592ZM6.09342 99.2351V91.7592H11.0229V93.4677H7.60599V97.6137H11.0229V99.2351H6.09342ZM0.587204 97.1349L1.17482 95.3067C1.63912 95.5534 2.10341 95.8182 2.5677 96.1011C3.02474 96.3768 3.45638 96.6524 3.86264 96.9281C4.2689 97.2038 4.63162 97.4686 4.95082 97.7225L4.38497 99.1589C4.044 98.9122 3.65951 98.6656 3.23149 98.4189C2.79622 98.165 2.35006 97.9256 1.89303 97.7007C1.43599 97.4758 1.00071 97.2872 0.587204 97.1349ZM2.63299 94.5232L1.70803 93.2718C1.99822 92.9163 2.32104 92.55 2.67652 92.1727C3.03199 91.7883 3.39472 91.4328 3.7647 91.1063C4.12743 90.7799 4.4684 90.5223 4.7876 90.3337L5.84314 91.7157C5.53119 91.8826 5.1866 92.1183 4.80936 92.423C4.43212 92.7277 4.05489 93.0651 3.67765 93.435C3.29316 93.805 2.94494 94.1678 2.63299 94.5232ZM3.63412 100.323C3.61961 99.7574 3.60148 99.1299 3.57971 98.4407C3.55795 97.7515 3.53256 97.0297 3.50354 96.2752C3.47452 95.5207 3.4455 94.759 3.41648 93.99C3.38747 93.221 3.35845 92.4702 3.32943 91.7375L4.86377 91.8028C4.9073 92.55 4.9472 93.3081 4.98347 94.0771C5.01249 94.8388 5.04513 95.5896 5.08141 96.3296C5.11042 97.0623 5.13944 97.7624 5.16846 98.4298C5.19022 99.09 5.21199 99.6921 5.23375 100.236L3.63412 100.323ZM2.48064 83.8373V82.4553H4.17821C4.44663 82.4553 4.66064 82.4807 4.82024 82.5314C4.97259 82.575 5.09229 82.6838 5.17934 82.8579C5.2664 83.0247 5.32081 83.2061 5.34257 83.402C5.35708 83.5906 5.36433 83.8046 5.36433 84.044C5.19022 84.073 5.00161 84.1274 4.79848 84.2072C4.5881 84.2798 4.4031 84.356 4.2435 84.4358C4.25076 84.3414 4.25439 84.2471 4.25439 84.1528C4.25439 84.0585 4.25439 83.9896 4.25439 83.9461C4.25439 83.8735 4.21811 83.8373 4.14557 83.8373H2.48064ZM3.35119 82.4988L2.77445 81.3562C2.93406 81.2038 3.10816 81.0515 3.29678 80.8992C3.4854 80.7396 3.67765 80.5981 3.87352 80.4748C4.06214 80.3442 4.23625 80.2426 4.39585 80.1701L5.03788 81.3997C4.87828 81.4578 4.70054 81.5448 4.50467 81.6609C4.3088 81.777 4.10929 81.9112 3.90617 82.0635C3.70304 82.2086 3.51805 82.3537 3.35119 82.4988ZM8.11744 86.4271V81.7697H9.29268V86.4271H8.11744ZM6.7028 86.2748V82.575H6.39811V87.2868H5.2664V81.095H7.84539V86.2748H6.7028ZM6.7028 86.7754V85.2192C7.03651 85.2918 7.38473 85.3752 7.74746 85.4695C8.11019 85.5566 8.45841 85.6436 8.79212 85.7307C9.12583 85.8177 9.42326 85.9012 9.68443 85.981L9.49944 87.4936C9.11494 87.363 8.66879 87.2324 8.16097 87.1018C7.65315 86.9712 7.16709 86.8624 6.7028 86.7754ZM8.11744 82.1941V80.6162C8.11744 80.6162 8.18999 80.6271 8.33508 80.6489C8.47291 80.6634 8.59261 80.6851 8.69418 80.7142C9.24553 80.8085 9.67717 80.9173 9.98912 81.0406C10.2938 81.1639 10.5187 81.3018 10.6638 81.4541C10.7799 81.592 10.8633 81.7371 10.9141 81.8894C10.9649 82.0345 10.9975 82.1977 11.012 82.3791C11.0265 82.5314 11.0338 82.7273 11.0338 82.9667C11.041 83.1989 11.041 83.4528 11.0338 83.7284C10.8379 83.7357 10.6203 83.7756 10.3809 83.8481C10.1415 83.9134 9.93108 84.0005 9.74972 84.1093C9.77148 83.9062 9.78599 83.7067 9.79324 83.5108C9.8005 83.3077 9.80413 83.159 9.80413 83.0646C9.80413 82.9848 9.79687 82.9159 9.78236 82.8579C9.76785 82.7999 9.74246 82.7454 9.70619 82.6947C9.63364 82.6076 9.4813 82.5206 9.24915 82.4335C9.01701 82.3392 8.69055 82.263 8.26979 82.205L8.11744 82.1941ZM1.47952 87.4391V80.4748H2.74181V87.4391H1.47952ZM0.68514 84.8601V83.2605H2.2086V84.8601H0.68514ZM2.79622 86.9821L3.12267 85.698C3.47815 85.8431 3.82274 86.039 4.15645 86.2857C4.49016 86.5323 4.76583 86.7935 4.98347 87.0692C4.90367 87.1417 4.81299 87.2433 4.71142 87.3739C4.60986 87.4972 4.51192 87.6278 4.41761 87.7656C4.31605 87.8962 4.23625 88.0123 4.17821 88.1138C4.0041 87.8672 3.79735 87.6459 3.55795 87.45C3.31129 87.2469 3.05738 87.0909 2.79622 86.9821ZM1.89303 90.1161L0.706904 89.2455C0.77945 89.0351 0.873759 88.8103 0.989832 88.5709C1.09865 88.3242 1.21472 88.0921 1.33805 87.8744C1.46138 87.6495 1.58108 87.4682 1.69715 87.3303L3.00297 88.2553C2.87965 88.3786 2.75269 88.5455 2.62211 88.7558C2.48427 88.9662 2.35006 89.1911 2.21948 89.4305C2.0889 89.6699 1.98008 89.8984 1.89303 90.1161ZM4.84201 90.6928L3.645 89.8332C3.71029 89.6228 3.79735 89.3979 3.90617 89.1585C4.00773 88.9191 4.12018 88.6906 4.2435 88.4729C4.35958 88.2553 4.47565 88.0775 4.59172 87.9397L5.90843 88.8538C5.79235 88.9771 5.66903 89.144 5.53844 89.3543C5.40786 89.5647 5.28091 89.786 5.15758 90.0181C5.03425 90.2503 4.92906 90.4752 4.84201 90.6928ZM9.98912 90.4317C9.70619 90.2648 9.37611 90.0834 8.99887 89.8876C8.62163 89.6844 8.219 89.4777 7.79099 89.2673C7.36297 89.0569 6.93132 88.861 6.49605 88.6797L7.44277 87.4283C7.83451 87.5879 8.22989 87.7547 8.62889 87.9288C9.02063 88.1029 9.40875 88.2807 9.79324 88.462C10.1777 88.6361 10.555 88.8175 10.925 89.0061L9.98912 90.4317ZM2.448 85.5239V84.1528H3.1662C3.36933 84.1528 3.62324 84.1818 3.92793 84.2399C4.22537 84.2907 4.52643 84.4031 4.83112 84.5772C5.12856 84.7513 5.38247 85.0125 5.59285 85.3607C5.52031 85.4333 5.43325 85.5348 5.33169 85.6654C5.23012 85.796 5.13219 85.9302 5.03788 86.068C4.94357 86.1986 4.8674 86.3183 4.80936 86.4271C4.64976 86.1587 4.46477 85.9628 4.25439 85.8395C4.044 85.7089 3.83725 85.6255 3.63412 85.5892C3.42374 85.5457 3.25326 85.5239 3.12267 85.5239H2.448ZM1.54481 76.0894V70.7899H2.97033V76.0894H1.54481ZM3.645 76.7423V70.322H5.10317V76.7423H3.645ZM5.90843 76.4811V70.4526H7.35571V76.4811H5.90843ZM0.68514 74.2612V72.6942H4.46114V74.2612H0.68514ZM4.96171 73.0098V71.4428H9.32533C9.70256 71.4428 10 71.4864 10.2176 71.5734C10.4425 71.6532 10.6166 71.8164 10.74 72.0631C10.856 72.3098 10.9286 72.5963 10.9576 72.9228C10.9939 73.242 11.012 73.6047 11.012 74.0109C10.7799 74.04 10.5151 74.1016 10.2176 74.1959C9.9202 74.283 9.66266 74.3773 9.44503 74.4789C9.45228 74.2467 9.45954 74.0037 9.46679 73.7498C9.46679 73.4959 9.46679 73.3254 9.46679 73.2383C9.46679 73.1513 9.45591 73.0932 9.43414 73.0642C9.41238 73.028 9.36523 73.0098 9.29268 73.0098H4.96171ZM7.88892 76.1982L7.15984 75.0338C7.31218 74.8815 7.48267 74.7255 7.67129 74.5659C7.8599 74.4063 8.04852 74.254 8.23714 74.1089C8.42576 73.9638 8.59624 73.8513 8.74859 73.7715L9.56473 75.0121C9.41238 75.0846 9.23827 75.1862 9.0424 75.3168C8.84652 75.4474 8.64702 75.5924 8.4439 75.752C8.24077 75.9044 8.05578 76.0531 7.88892 76.1982ZM6.43075 80.6815C6.35095 80.3188 6.25665 79.9089 6.14783 79.4519C6.03175 78.9876 5.9048 78.5015 5.76696 77.9937C5.62913 77.4786 5.49129 76.9708 5.35345 76.4702L6.74633 76.2635C6.95671 76.9454 7.16709 77.6455 7.37748 78.3637C7.58786 79.0746 7.77648 79.7239 7.94333 80.3115L6.43075 80.6815ZM0.696023 78.7772V77.3299H11.0338V78.7772H0.696023ZM1.251 80.2571L1.46863 78.9513C1.94743 78.9948 2.42986 79.0529 2.91592 79.1254C3.40197 79.1907 3.86264 79.2741 4.29791 79.3757C4.72593 79.47 5.10317 79.5825 5.42963 79.713C5.36433 79.7928 5.28816 79.9017 5.20111 80.0395C5.1068 80.1701 5.01611 80.3079 4.92906 80.453C4.83475 80.5908 4.76221 80.7105 4.71142 80.8121C4.4285 80.7033 4.09841 80.6126 3.72118 80.5401C3.34394 80.4675 2.94494 80.4095 2.52417 80.3659C2.09615 80.3152 1.67176 80.2789 1.251 80.2571ZM2.66564 79.8327V76.5464H4.16733V80.1374L2.66564 79.8327ZM1.94743 70.4961V66.3284H3.46001V70.4961H1.94743ZM2.63299 69.2229V67.656H8.07391V69.2229H2.63299ZM7.71481 70.7029C7.64952 70.3329 7.56972 69.9049 7.47541 69.4188C7.37385 68.9255 7.26503 68.4032 7.14896 67.8518C7.02563 67.3005 6.90593 66.7528 6.78986 66.2087L8.19361 66.0454C8.39674 66.7781 8.59987 67.5217 8.803 68.2762C9.00612 69.0307 9.19112 69.7162 9.35797 70.3329L7.71481 70.7029ZM2.57858 65.349V60.3434H4.09116V65.349H2.57858ZM0.663377 65.164L0.97895 63.597C1.66813 63.7639 2.34644 63.967 3.01386 64.2064C3.68128 64.4458 4.30154 64.7106 4.87465 65.0008C5.44776 65.291 5.9447 65.6029 6.36546 65.9366C6.27841 66.0309 6.17322 66.1615 6.04989 66.3284C5.92656 66.4952 5.80686 66.6657 5.69079 66.8398C5.57472 67.0067 5.48403 67.1554 5.41874 67.286C5.05602 66.9523 4.62437 66.6512 4.1238 66.3828C3.61598 66.1144 3.06826 65.8786 2.48064 65.6755C1.88577 65.4651 1.28001 65.2946 0.663377 65.164ZM3.60148 62.6394L3.84088 61.018C4.79848 61.1994 5.66177 61.446 6.43075 61.758C7.19248 62.0699 7.86716 62.4617 8.45478 62.9332C9.03514 63.3975 9.53934 63.9525 9.96735 64.5982C10.3954 65.2366 10.7545 65.9801 11.0447 66.8289C10.9141 66.8725 10.7581 66.945 10.5767 67.0466C10.3954 67.1409 10.2104 67.2461 10.0218 67.3621C9.8404 67.471 9.69168 67.5725 9.57561 67.6668C9.28543 66.6439 8.8828 65.7952 8.36772 65.1205C7.85265 64.4386 7.20337 63.8981 6.41987 63.4991C5.63638 63.1001 4.69691 62.8135 3.60148 62.6394ZM3.69941 64.5873C4.63525 64.3987 5.49492 64.123 6.27841 63.7603C7.05465 63.3975 7.72569 62.9223 8.29155 62.3347C8.85741 61.7399 9.29631 61.0035 9.60825 60.1257C9.71707 60.2418 9.85491 60.3724 10.0218 60.5175C10.1886 60.6553 10.3627 60.7859 10.5441 60.9092C10.7255 61.0325 10.8923 61.1341 11.0447 61.2139C10.6457 62.1715 10.1124 62.9659 9.44503 63.597C8.77761 64.2209 7.98686 64.7251 7.07278 65.1096C6.15145 65.4941 5.11768 65.8097 3.97146 66.0563L3.69941 64.5873ZM1.06601 59.3966V56.9917H2.52417V59.3966H1.06601ZM3.49266 59.3966V56.9373H4.95082V59.3966H3.49266ZM4.9073 55.1418V51.4094H6.33282V55.1418H4.9073ZM5.97372 59.3966V56.9917H7.46453V59.3966H5.97372ZM1.06601 60.006V58.5914H5.05964C5.50217 58.5914 5.98823 58.6023 6.51781 58.624C7.04014 58.6385 7.57335 58.6748 8.11744 58.7328C8.66153 58.7909 9.18749 58.8779 9.69531 58.994C10.1959 59.1028 10.6493 59.2479 11.0555 59.4293C10.9757 59.5163 10.8887 59.6397 10.7944 59.7993C10.7001 59.9516 10.6094 60.1112 10.5223 60.2781C10.4425 60.4377 10.3809 60.5791 10.3373 60.7025C9.96735 60.5356 9.5611 60.4086 9.11857 60.3216C8.67604 60.2273 8.219 60.1584 7.74746 60.1148C7.27591 60.0641 6.81162 60.035 6.35458 60.0278C5.89029 60.0133 5.45864 60.006 5.05964 60.006H1.06601ZM1.06601 57.8732V56.415H9.36885C9.70256 56.415 9.98186 56.4477 10.2068 56.5129C10.4316 56.571 10.6094 56.6979 10.74 56.8938C10.8705 57.0824 10.9503 57.3037 10.9794 57.5576C11.0156 57.8115 11.0338 58.1126 11.0338 58.4608C10.8959 58.4681 10.7327 58.4934 10.5441 58.537C10.3555 58.5805 10.1705 58.6313 9.98912 58.6893C9.8005 58.7474 9.6409 58.809 9.51032 58.8743C9.51757 58.7075 9.5212 58.5442 9.5212 58.3846C9.5212 58.2178 9.5212 58.1017 9.5212 58.0364C9.5212 57.9784 9.51032 57.9385 9.48855 57.9167C9.45954 57.8877 9.40875 57.8732 9.33621 57.8732H1.06601ZM1.06601 52.2581V50.7456H3.17708C3.51079 50.7456 3.77558 50.7927 3.97146 50.887C4.16008 50.9741 4.30517 51.1446 4.40673 51.3985C4.50104 51.6451 4.55908 51.9353 4.58084 52.269C4.59535 52.5955 4.6026 52.9655 4.6026 53.379C4.39948 53.408 4.17459 53.4697 3.92793 53.564C3.68128 53.651 3.46727 53.7417 3.2859 53.836C3.29316 53.6764 3.30041 53.5023 3.30767 53.3137C3.31492 53.1251 3.31855 52.9546 3.31855 52.8022C3.31129 52.6499 3.30767 52.5483 3.30767 52.4975C3.30767 52.4105 3.29678 52.3488 3.27502 52.3126C3.25326 52.2763 3.20973 52.2581 3.14444 52.2581H1.06601ZM4.9073 51.8446V51.5835L4.86377 51.3332L5.15758 50.3974C6.10793 50.5424 6.96034 50.7637 7.71481 51.0611C8.46203 51.3586 9.11132 51.7358 9.66266 52.1929C10.214 52.6426 10.6747 53.1722 11.0447 53.7816C10.8705 53.8759 10.6674 54.0137 10.4353 54.1951C10.2031 54.3692 10.0218 54.5325 9.89118 54.6848C9.62276 54.177 9.25278 53.7308 8.78123 53.3463C8.30243 52.9546 7.75471 52.6318 7.13807 52.3778C6.51418 52.1239 5.85402 51.9462 5.15758 51.8446H4.9073ZM5.89754 53.379C6.4634 53.1976 7.00024 52.9546 7.50806 52.6499C8.00862 52.3379 8.45841 51.968 8.85741 51.5399C9.25641 51.1119 9.57561 50.6295 9.81501 50.0927C9.95285 50.2523 10.1415 50.43 10.3809 50.6259C10.6275 50.8145 10.8452 50.9632 11.0338 51.072C10.7218 51.6524 10.3265 52.1675 9.84765 52.6172C9.36885 53.0598 8.82476 53.4443 8.21538 53.7707C7.59874 54.0972 6.93132 54.3729 6.21312 54.5977L5.89754 53.379ZM1.06601 56.0015V51.899H2.52417V54.5107H11.0338V56.0015H1.06601ZM2.52417 44.2818C3.07552 44.3616 3.66314 44.4595 4.28703 44.5756C4.91092 44.6916 5.56383 44.8549 6.24576 45.0652C6.97122 45.2756 7.60599 45.5259 8.15009 45.8161C8.69418 46.1063 9.11857 46.4327 9.42326 46.7955C9.72795 47.1509 9.8803 47.5427 9.8803 47.9707C9.8803 48.4205 9.73521 48.8267 9.44503 49.1895C9.14759 49.5449 8.74859 49.8279 8.24802 50.0382C7.7402 50.2414 7.17797 50.3429 6.56134 50.3429C5.91568 50.3429 5.3063 50.2124 4.73319 49.9512C4.15282 49.69 3.64138 49.3273 3.19885 48.863C2.75632 48.3987 2.4081 47.8546 2.15419 47.2307C1.90028 46.6068 1.77333 45.9322 1.77333 45.2067C1.77333 44.5103 1.88577 43.8864 2.11066 43.335C2.3283 42.7764 2.63662 42.3013 3.03562 41.9095C3.43462 41.5105 3.90254 41.2058 4.43938 40.9954C4.96896 40.7851 5.54207 40.6799 6.15871 40.6799C6.92044 40.6799 7.60962 40.8322 8.22626 41.1369C8.83564 41.4416 9.34709 41.9023 9.7606 42.5189C10.1669 43.1355 10.4498 43.9154 10.6094 44.8585L9.0424 45.8596C9.01338 45.6275 8.98436 45.4316 8.95534 45.272C8.91907 45.1124 8.8828 44.9528 8.84652 44.7932C8.75947 44.445 8.63614 44.1294 8.47654 43.8465C8.31694 43.5635 8.12107 43.3205 7.88892 43.1174C7.65678 42.9143 7.39198 42.7583 7.09455 42.6495C6.78986 42.5407 6.45977 42.4862 6.1043 42.4862C5.68353 42.4862 5.30267 42.5479 4.96171 42.6712C4.62074 42.7873 4.32693 42.965 4.08028 43.2044C3.83362 43.4366 3.645 43.7232 3.51442 44.0641C3.38384 44.4051 3.31855 44.7968 3.31855 45.2394C3.31855 45.8052 3.42011 46.3021 3.62324 46.7302C3.81911 47.1509 4.07665 47.5028 4.39585 47.7857C4.7078 48.0686 5.04151 48.2826 5.39698 48.4277C5.75245 48.5656 6.08254 48.6345 6.38723 48.6345C6.69917 48.6345 6.96397 48.6018 7.1816 48.5366C7.39198 48.4713 7.55158 48.3878 7.6604 48.2863C7.76922 48.1775 7.82363 48.0578 7.82363 47.9272C7.82363 47.7821 7.75109 47.6479 7.60599 47.5245C7.4609 47.394 7.24689 47.2706 6.96397 47.1546C6.67378 47.0312 6.31831 46.9043 5.89754 46.7737C5.38247 46.6068 4.8275 46.4654 4.23262 46.3493C3.63049 46.2332 3.04287 46.1498 2.46976 46.099L2.52417 44.2818ZM5.39698 38.2206V32.8993H4.96171V39.4393H3.68853V31.3432H6.67016V38.2206H5.39698ZM5.39698 39.1129V37.5241C5.75971 37.5967 6.13694 37.6765 6.52869 37.7635C6.91318 37.8506 7.28317 37.9376 7.63864 38.0247C7.99411 38.1117 8.31331 38.1952 8.59624 38.275L8.42213 39.8637C8.14646 39.7767 7.83814 39.6896 7.49718 39.6026C7.15621 39.5082 6.80436 39.4176 6.44164 39.3305C6.07891 39.2435 5.73069 39.1709 5.39698 39.1129ZM7.10543 38.46V31.8873H8.41125V38.8517L7.10543 38.46ZM7.10543 32.3008V30.7121C7.10543 30.7121 7.17435 30.7157 7.31218 30.723C7.44277 30.723 7.55521 30.7302 7.64952 30.7447C8.35321 30.7883 8.90093 30.8463 9.29268 30.9188C9.67717 30.9841 9.94922 31.0893 10.1088 31.2344C10.2539 31.365 10.3555 31.5065 10.4135 31.6588C10.4788 31.8039 10.5223 31.9671 10.5441 32.1485C10.5659 32.3081 10.5804 32.5112 10.5876 32.7579C10.5949 33.0045 10.5949 33.2657 10.5876 33.5414C10.3555 33.5486 10.1052 33.5958 9.83677 33.6828C9.56835 33.7626 9.33983 33.8642 9.15122 33.9875C9.17298 33.7771 9.18749 33.5776 9.19474 33.389C9.202 33.1931 9.202 33.0444 9.19474 32.9429C9.19474 32.8631 9.19112 32.7941 9.18386 32.7361C9.16935 32.6781 9.14033 32.6237 9.09681 32.5729C9.02426 32.5076 8.85015 32.4532 8.57448 32.4097C8.2988 32.3661 7.87079 32.3299 7.29042 32.3008H7.10543ZM3.98234 36.2509V34.7057H11.0338V36.2509H3.98234ZM7.59511 36.5339L8.11744 35.3151C8.42213 35.5545 8.71594 35.8266 8.99887 36.1312C9.2818 36.4359 9.54659 36.766 9.79324 37.1215C10.0326 37.4697 10.2503 37.8361 10.4462 38.2206C10.6493 38.5978 10.8198 38.9823 10.9576 39.374C10.8343 39.4466 10.6928 39.5409 10.5332 39.657C10.3809 39.7658 10.2285 39.8855 10.0762 40.0161C9.93108 40.1394 9.81138 40.2555 9.71707 40.3643C9.61551 39.987 9.48855 39.6134 9.33621 39.2435C9.18386 38.8735 9.01701 38.5216 8.83564 38.1879C8.65428 37.847 8.45841 37.535 8.24802 37.2521C8.03764 36.9692 7.82 36.7297 7.59511 36.5339ZM1.47952 38.9823V35.598H2.67652V38.9823H1.47952ZM1.47952 34.586V30.4618H2.67652V34.586H1.47952ZM0.587204 39.0258L0.989832 37.5568C1.35256 37.7091 1.71166 37.8941 2.06713 38.1117C2.42261 38.3221 2.75632 38.547 3.06826 38.7864C3.38021 39.0258 3.65226 39.2616 3.8844 39.4937C3.79735 39.588 3.70304 39.715 3.60148 39.8746C3.49266 40.0269 3.38747 40.1865 3.2859 40.3534C3.18434 40.513 3.10091 40.6545 3.03562 40.7778C2.74544 40.4151 2.37908 40.0777 1.93655 39.7658C1.49402 39.4538 1.04424 39.2072 0.587204 39.0258ZM0.587204 34.5099L0.968069 33.019C1.50491 33.2222 2.02361 33.4906 2.52417 33.8243C3.02474 34.1508 3.44187 34.4845 3.77558 34.8254C3.68853 34.9197 3.59059 35.0467 3.48177 35.2063C3.3657 35.3659 3.25688 35.5291 3.15532 35.696C3.05376 35.8556 2.97033 35.997 2.90504 36.1204C2.62936 35.7721 2.28477 35.4566 1.87126 35.1736C1.45775 34.8907 1.02973 34.6695 0.587204 34.5099ZM2.42624 38.6885L1.88214 37.448C2.08527 37.2884 2.32104 37.1288 2.58946 36.9691C2.85063 36.8095 3.07915 36.6935 3.27502 36.6209L3.8844 37.9485C3.68853 38.0066 3.45276 38.1081 3.17708 38.2532C2.90141 38.3983 2.65113 38.5434 2.42624 38.6885ZM2.42624 33.8678L1.95832 32.5729C2.15419 32.406 2.37545 32.2355 2.62211 32.0614C2.86876 31.8801 3.0864 31.7422 3.27502 31.6479L3.79735 33.019C3.60873 33.0916 3.38747 33.2113 3.13356 33.3781C2.87239 33.5377 2.63662 33.701 2.42624 33.8678ZM4.89641 30.4836V20.3417H6.62663V30.4836H4.89641ZM2.62211 17.1968H3.74294V13.6602H2.62211V17.1968ZM1.10953 18.7203V12.0388H5.24463V18.7203H1.10953ZM6.01724 20.1676V15.8475H10.9902V17.4254H7.52982V18.6768H11.0338V20.1676H6.01724ZM6.01724 15.0749V10.646H10.9902V12.2347H7.52982V13.5623H11.0338V15.0749H6.01724ZM8.99887 19.5147V16.7616H10.5114V19.5147H8.99887ZM8.99887 14.3676V11.4186H10.5114V14.3676H8.99887ZM7.64952 6.35852V0.329981H8.95534V6.35852H7.64952ZM6.35458 3.09397V1.61404H11.0555V3.09397H6.35458ZM0.68514 4.02981L0.97895 2.28871C1.26913 2.45557 1.54843 2.62605 1.81685 2.80016C2.08527 2.96701 2.31379 3.11573 2.50241 3.24632L2.17595 4.50861C1.95106 4.4143 1.70441 4.32362 1.43599 4.23656C1.16031 4.14225 0.910032 4.07334 0.68514 4.02981ZM2.38271 3.99716V2.68046H4.25439C4.56633 2.68046 4.89641 2.7131 5.24463 2.7784C5.5856 2.83643 5.92294 2.9525 6.25665 3.12661C6.59036 3.29347 6.9023 3.54012 7.19248 3.86658C7.48267 4.18578 7.73295 4.61017 7.94333 5.13976C7.86353 5.2123 7.76922 5.31024 7.6604 5.43357C7.55158 5.54964 7.44639 5.66934 7.34483 5.79267C7.23601 5.91599 7.14896 6.02844 7.08367 6.13C6.90956 5.65846 6.70643 5.28122 6.47428 4.99829C6.23488 4.71536 5.98823 4.50135 5.73432 4.35626C5.47315 4.21117 5.21199 4.11686 4.95082 4.07333C4.68966 4.02255 4.44663 3.99716 4.22174 3.99716H2.38271ZM3.49266 9.34015V6.19529H4.82024V9.34015H3.49266ZM0.706904 8.15403V6.7938H4.28703V8.15403H0.706904ZM5.87578 9.25309V6.61969H11.0555V8.01256H7.19248V9.25309H5.87578ZM1.02248 9.99306V8.64371H5.027C5.44776 8.64371 5.91931 8.65459 6.44164 8.67636C6.95671 8.69086 7.48992 8.72351 8.04127 8.77429C8.58536 8.82507 9.11857 8.89762 9.6409 8.99193C10.1632 9.08624 10.6384 9.20957 11.0664 9.36191C11.0156 9.46348 10.9612 9.59406 10.9032 9.75366C10.8452 9.906 10.7907 10.0656 10.74 10.2325C10.6892 10.3993 10.6493 10.5444 10.6203 10.6677C10.2213 10.5226 9.77874 10.4066 9.29268 10.3195C8.79937 10.2252 8.29518 10.1563 7.7801 10.1128C7.26503 10.062 6.77172 10.0293 6.30017 10.0148C5.82137 10.0003 5.39698 9.99306 5.027 9.99306H1.02248ZM4.45026 4.66095H4.97259V2.03843H4.45026V4.66095ZM2.86151 4.66095H3.37296V2.03843H2.86151V4.66095ZM1.69715 6.04295V0.591145H6.13694V6.04295H1.69715Z" fill="black"/>
</svg>
