<svg width="88" height="74" viewBox="0 0 88 74" fill="none" xmlns="http://www.w3.org/2000/svg">
<path d="M0 3.46875C0 1.54648 1.6487 0 3.69803 0H10.7089C14.0987 0 17.1034 1.85 18.5055 4.625H81.8342C85.8867 4.625 88.8451 8.23828 87.7819 11.9094L81.4644 33.9215C80.1547 38.4598 75.7633 41.625 70.7556 41.625H26.3022L27.1343 45.7441C27.4733 47.3773 28.9987 48.5625 30.7707 48.5625H75.1932C77.2425 48.5625 78.8912 50.109 78.8912 52.0312C78.8912 53.9535 77.2425 55.5 75.1932 55.5H30.7707C25.4393 55.5 20.863 51.9445 19.8769 47.0449L11.9261 7.87695C11.8183 7.32773 11.3098 6.9375 10.7089 6.9375H3.69803C1.6487 6.9375 0 5.39102 0 3.46875ZM19.7228 67.0625C19.7228 66.1515 19.9141 65.2493 20.2858 64.4076C20.6575 63.5659 21.2023 62.8012 21.8891 62.1569C22.5758 61.5127 23.3912 61.0017 24.2885 60.6531C25.1858 60.3044 26.1476 60.125 27.1189 60.125C28.0901 60.125 29.0519 60.3044 29.9492 60.6531C30.8465 61.0017 31.6619 61.5127 32.3487 62.1569C33.0354 62.8012 33.5802 63.5659 33.9519 64.4076C34.3236 65.2493 34.5149 66.1515 34.5149 67.0625C34.5149 67.9735 34.3236 68.8757 33.9519 69.7174C33.5802 70.5591 33.0354 71.3238 32.3487 71.9681C31.6619 72.6123 30.8465 73.1233 29.9492 73.4719C29.0519 73.8206 28.0901 74 27.1189 74C26.1476 74 25.1858 73.8206 24.2885 73.4719C23.3912 73.1233 22.5758 72.6123 21.8891 71.9681C21.2023 71.3238 20.6575 70.5591 20.2858 69.7174C19.9141 68.8757 19.7228 67.9735 19.7228 67.0625ZM71.4952 60.125C73.4567 60.125 75.3379 60.8559 76.725 62.1569C78.112 63.458 78.8912 65.2226 78.8912 67.0625C78.8912 68.9024 78.112 70.667 76.725 71.9681C75.3379 73.2691 73.4567 74 71.4952 74C69.5336 74 67.6524 73.2691 66.2654 71.9681C64.8783 70.667 64.0991 68.9024 64.0991 67.0625C64.0991 65.2226 64.8783 63.458 66.2654 62.1569C67.6524 60.8559 69.5336 60.125 71.4952 60.125Z" fill="#F0BD22"/>
</svg>
