<svg width="210" height="167" viewBox="0 0 210 167" fill="none" xmlns="http://www.w3.org/2000/svg">
<mask id="path-1-inside-1_76_442" fill="white">
<path d="M3.09437e-05 39.0057C3.09437e-05 60.5526 20.4542 78.0114 45.6918 78.0114C52.3136 78.0114 58.5962 76.8112 64.272 74.6547C66.3959 76.2861 69.8585 78.5177 73.9636 80.393C78.2472 82.3433 83.4054 84.0123 88.5279 84.0123C89.688 84.0123 90.7232 83.2809 91.1694 82.1557C91.6157 81.0306 91.3658 79.7554 90.5626 78.8928L90.5091 78.8365C90.4555 78.7803 90.3841 78.7052 90.277 78.574C90.0807 78.3489 89.7773 77.9926 89.4025 77.5051C88.6707 76.5674 87.689 75.1797 86.6895 73.4545C84.9047 70.3415 83.2091 66.2534 82.87 61.659C88.2245 55.2831 91.3836 47.4632 91.3836 39.0057C91.3836 17.4588 70.9294 0 45.6918 0C20.4542 0 3.09437e-05 17.4588 3.09437e-05 39.0057Z"/>
</mask>
<path d="M3.09437e-05 39.0057C3.09437e-05 60.5526 20.4542 78.0114 45.6918 78.0114C52.3136 78.0114 58.5962 76.8112 64.272 74.6547C66.3959 76.2861 69.8585 78.5177 73.9636 80.393C78.2472 82.3433 83.4054 84.0123 88.5279 84.0123C89.688 84.0123 90.7232 83.2809 91.1694 82.1557C91.6157 81.0306 91.3658 79.7554 90.5626 78.8928L90.5091 78.8365C90.4555 78.7803 90.3841 78.7052 90.277 78.574C90.0807 78.3489 89.7773 77.9926 89.4025 77.5051C88.6707 76.5674 87.689 75.1797 86.6895 73.4545C84.9047 70.3415 83.2091 66.2534 82.87 61.659C88.2245 55.2831 91.3836 47.4632 91.3836 39.0057C91.3836 17.4588 70.9294 0 45.6918 0C20.4542 0 3.09437e-05 17.4588 3.09437e-05 39.0057Z" fill="#F0BD22" stroke="#F0BD22" stroke-width="8" mask="url(#path-1-inside-1_76_442)"/>
<rect x="77" y="43" width="128" height="120" rx="3" stroke="#F0BD22" stroke-width="8"/>
<mask id="path-3-inside-2_76_442" fill="white">
<path d="M94 71.4688C94 69.5465 95.6487 68 97.698 68H104.709C108.099 68 111.103 69.85 112.506 72.625H175.834C179.887 72.625 182.845 76.2383 181.782 79.9094L175.464 101.921C174.155 106.46 169.763 109.625 164.756 109.625H120.302L121.134 113.744C121.473 115.377 122.999 116.562 124.771 116.562H169.193C171.243 116.562 172.891 118.109 172.891 120.031C172.891 121.954 171.243 123.5 169.193 123.5H124.771C119.439 123.5 114.863 119.945 113.877 115.045L105.926 75.877C105.818 75.3277 105.31 74.9375 104.709 74.9375H97.698C95.6487 74.9375 94 73.391 94 71.4688ZM113.723 135.062C113.723 134.151 113.914 133.249 114.286 132.408C114.657 131.566 115.202 130.801 115.889 130.157C116.576 129.513 117.391 129.002 118.289 128.653C119.186 128.304 120.148 128.125 121.119 128.125C122.09 128.125 123.052 128.304 123.949 128.653C124.847 129.002 125.662 129.513 126.349 130.157C127.035 130.801 127.58 131.566 127.952 132.408C128.324 133.249 128.515 134.151 128.515 135.062C128.515 135.974 128.324 136.876 127.952 137.717C127.58 138.559 127.035 139.324 126.349 139.968C125.662 140.612 124.847 141.123 123.949 141.472C123.052 141.821 122.09 142 121.119 142C120.148 142 119.186 141.821 118.289 141.472C117.391 141.123 116.576 140.612 115.889 139.968C115.202 139.324 114.657 138.559 114.286 137.717C113.914 136.876 113.723 135.974 113.723 135.062ZM165.495 128.125C167.457 128.125 169.338 128.856 170.725 130.157C172.112 131.458 172.891 133.223 172.891 135.062C172.891 136.902 172.112 138.667 170.725 139.968C169.338 141.269 167.457 142 165.495 142C163.534 142 161.652 141.269 160.265 139.968C158.878 138.667 158.099 136.902 158.099 135.062C158.099 133.223 158.878 131.458 160.265 130.157C161.652 128.856 163.534 128.125 165.495 128.125Z"/>
</mask>
<path d="M94 71.4688C94 69.5465 95.6487 68 97.698 68H104.709C108.099 68 111.103 69.85 112.506 72.625H175.834C179.887 72.625 182.845 76.2383 181.782 79.9094L175.464 101.921C174.155 106.46 169.763 109.625 164.756 109.625H120.302L121.134 113.744C121.473 115.377 122.999 116.562 124.771 116.562H169.193C171.243 116.562 172.891 118.109 172.891 120.031C172.891 121.954 171.243 123.5 169.193 123.5H124.771C119.439 123.5 114.863 119.945 113.877 115.045L105.926 75.877C105.818 75.3277 105.31 74.9375 104.709 74.9375H97.698C95.6487 74.9375 94 73.391 94 71.4688ZM113.723 135.062C113.723 134.151 113.914 133.249 114.286 132.408C114.657 131.566 115.202 130.801 115.889 130.157C116.576 129.513 117.391 129.002 118.289 128.653C119.186 128.304 120.148 128.125 121.119 128.125C122.09 128.125 123.052 128.304 123.949 128.653C124.847 129.002 125.662 129.513 126.349 130.157C127.035 130.801 127.58 131.566 127.952 132.408C128.324 133.249 128.515 134.151 128.515 135.062C128.515 135.974 128.324 136.876 127.952 137.717C127.58 138.559 127.035 139.324 126.349 139.968C125.662 140.612 124.847 141.123 123.949 141.472C123.052 141.821 122.09 142 121.119 142C120.148 142 119.186 141.821 118.289 141.472C117.391 141.123 116.576 140.612 115.889 139.968C115.202 139.324 114.657 138.559 114.286 137.717C113.914 136.876 113.723 135.974 113.723 135.062ZM165.495 128.125C167.457 128.125 169.338 128.856 170.725 130.157C172.112 131.458 172.891 133.223 172.891 135.062C172.891 136.902 172.112 138.667 170.725 139.968C169.338 141.269 167.457 142 165.495 142C163.534 142 161.652 141.269 160.265 139.968C158.878 138.667 158.099 136.902 158.099 135.062C158.099 133.223 158.878 131.458 160.265 130.157C161.652 128.856 163.534 128.125 165.495 128.125Z" stroke="#F0BD22" stroke-width="16" mask="url(#path-3-inside-2_76_442)"/>
</svg>
