<svg width="40" height="34" viewBox="0 0 40 34" fill="none" xmlns="http://www.w3.org/2000/svg">
<path d="M0 1.59375C0 0.710547 0.749411 0 1.68092 0H4.86767C6.40851 0 7.77426 0.85 8.41161 2.125H37.1974C39.0394 2.125 40.3841 3.78516 39.9009 5.47188L37.0293 15.5855C36.434 17.6707 34.4379 19.125 32.1616 19.125H11.9556L12.3338 21.0176C12.4878 21.768 13.1812 22.3125 13.9867 22.3125H34.1787C35.1102 22.3125 35.8596 23.023 35.8596 23.9062C35.8596 24.7895 35.1102 25.5 34.1787 25.5H13.9867C11.5633 25.5 9.4832 23.8664 9.03495 21.6152L5.42097 3.61914C5.37194 3.3668 5.14082 3.1875 4.86767 3.1875H1.68092C0.749411 3.1875 0 2.47695 0 1.59375ZM8.96491 30.8125C8.96491 30.3939 9.05187 29.9794 9.22082 29.5927C9.38977 29.206 9.6374 28.8546 9.94957 28.5586C10.2617 28.2626 10.6324 28.0278 11.0402 27.8676C11.4481 27.7074 11.8853 27.625 12.3268 27.625C12.7682 27.625 13.2054 27.7074 13.6133 27.8676C14.0212 28.0278 14.3918 28.2626 14.7039 28.5586C15.0161 28.8546 15.2637 29.206 15.4327 29.5927C15.6016 29.9794 15.6886 30.3939 15.6886 30.8125C15.6886 31.2311 15.6016 31.6456 15.4327 32.0323C15.2637 32.419 15.0161 32.7704 14.7039 33.0664C14.3918 33.3624 14.0212 33.5972 13.6133 33.7574C13.2054 33.9176 12.7682 34 12.3268 34C11.8853 34 11.4481 33.9176 11.0402 33.7574C10.6324 33.5972 10.2617 33.3624 9.94957 33.0664C9.6374 32.7704 9.38977 32.419 9.22082 32.0323C9.05187 31.6456 8.96491 31.2311 8.96491 30.8125ZM32.4978 27.625C33.3894 27.625 34.2445 27.9608 34.875 28.5586C35.5055 29.1564 35.8596 29.9671 35.8596 30.8125C35.8596 31.6579 35.5055 32.4686 34.875 33.0664C34.2445 33.6642 33.3894 34 32.4978 34C31.6062 34 30.7511 33.6642 30.1206 33.0664C29.4902 32.4686 29.136 31.6579 29.136 30.8125C29.136 29.9671 29.4902 29.1564 30.1206 28.5586C30.7511 27.9608 31.6062 27.625 32.4978 27.625Z" fill="#FFD83C"/>
</svg>
