<svg width="34" height="40" viewBox="0 0 34 40" fill="none" xmlns="http://www.w3.org/2000/svg">
<path d="M32.5833 5.71429H24.0833V3.57143C24.0833 2.62423 23.7102 1.71582 23.046 1.04605C22.3818 0.376274 21.481 0 20.5417 0H13.4583C12.519 0 11.6182 0.376274 10.954 1.04605C10.2898 1.71582 9.91667 2.62423 9.91667 3.57143V5.71429H1.41667C1.04094 5.71429 0.680609 5.8648 0.414932 6.13271C0.149256 6.40061 0 6.76398 0 7.14286C0 7.52174 0.149256 7.8851 0.414932 8.15301C0.680609 8.42092 1.04094 8.57143 1.41667 8.57143H2.92187L4.60417 35.7964C4.7299 38.1938 6.55208 40 8.85417 40H25.1458C27.4594 40 29.2453 38.2339 29.3958 35.8036L31.0781 8.57143H32.5833C32.9591 8.57143 33.3194 8.42092 33.5851 8.15301C33.8507 7.8851 34 7.52174 34 7.14286C34 6.76398 33.8507 6.40061 33.5851 6.13271C33.3194 5.8648 32.9591 5.71429 32.5833 5.71429ZM11.3838 34.2857H11.3333C10.9662 34.286 10.6133 34.1424 10.349 33.8854C10.0848 33.6284 9.92975 33.278 9.91667 32.908L9.20833 12.908C9.19495 12.5292 9.33137 12.1604 9.58758 11.883C9.84379 11.6055 10.1988 11.4421 10.5745 11.4286C10.9503 11.4151 11.3159 11.5526 11.591 11.811C11.8662 12.0694 12.0283 12.4274 12.0417 12.8062L12.75 32.8063C12.7567 32.9939 12.7267 33.181 12.6617 33.3569C12.5967 33.5329 12.4979 33.6942 12.371 33.8316C12.2441 33.969 12.0916 34.0798 11.9222 34.1577C11.7528 34.2357 11.5699 34.2791 11.3838 34.2857ZM18.4167 32.8571C18.4167 33.236 18.2674 33.5994 18.0017 33.8673C17.7361 34.1352 17.3757 34.2857 17 34.2857C16.6243 34.2857 16.2639 34.1352 15.9983 33.8673C15.7326 33.5994 15.5833 33.236 15.5833 32.8571V12.8571C15.5833 12.4783 15.7326 12.1149 15.9983 11.847C16.2639 11.5791 16.6243 11.4286 17 11.4286C17.3757 11.4286 17.7361 11.5791 18.0017 11.847C18.2674 12.1149 18.4167 12.4783 18.4167 12.8571V32.8571ZM21.25 5.71429H12.75V3.57143C12.7489 3.47733 12.7665 3.38396 12.8017 3.29681C12.837 3.20967 12.8891 3.1305 12.9551 3.06395C13.0211 2.99741 13.0996 2.94484 13.186 2.90932C13.2724 2.87381 13.365 2.85607 13.4583 2.85714H20.5417C20.635 2.85607 20.7276 2.87381 20.814 2.90932C20.9004 2.94484 20.9789 2.99741 21.0449 3.06395C21.1109 3.1305 21.163 3.20967 21.1983 3.29681C21.2335 3.38396 21.2511 3.47733 21.25 3.57143V5.71429ZM24.0833 32.908C24.0703 33.278 23.9152 33.6284 23.651 33.8854C23.3867 34.1424 23.0338 34.286 22.6667 34.2857H22.6153C22.4293 34.279 22.2464 34.2355 22.0771 34.1575C21.9078 34.0795 21.7555 33.9687 21.6287 33.8313C21.5019 33.6939 21.4032 33.5326 21.3382 33.3567C21.2732 33.1809 21.2433 32.9938 21.25 32.8063L21.9583 12.8062C21.965 12.6186 22.0082 12.4342 22.0855 12.2634C22.1628 12.0927 22.2727 11.9389 22.409 11.811C22.5452 11.6831 22.7051 11.5835 22.8795 11.5178C23.0539 11.4522 23.2394 11.4219 23.4255 11.4286C23.6115 11.4353 23.7944 11.4788 23.9638 11.5568C24.1331 11.6348 24.2856 11.7456 24.4124 11.883C24.5393 12.0204 24.6381 12.1816 24.7031 12.3575C24.7682 12.5334 24.7983 12.7204 24.7917 12.908L24.0833 32.908Z" fill="#FFD43B"/>
</svg>
